G04 #@! TF.GenerationSoftware,KiCad,Pcbnew,(5.1.6)-1*
G04 #@! TF.CreationDate,2020-10-27T17:06:52+09:00*
G04 #@! TF.ProjectId,ext-board,6578742d-626f-4617-9264-2e6b69636164,rev?*
G04 #@! TF.SameCoordinates,Original*
G04 #@! TF.FileFunction,Copper,L1,Top*
G04 #@! TF.FilePolarity,Positive*
%FSLAX46Y46*%
G04 Gerber Fmt 4.6, Leading zero omitted, Abs format (unit mm)*
G04 Created by KiCad (PCBNEW (5.1.6)-1) date 2020-10-27 17:06:52*
%MOMM*%
%LPD*%
G01*
G04 APERTURE LIST*
G04 #@! TA.AperFunction,ComponentPad*
%ADD10C,1.700000*%
G04 #@! TD*
G04 #@! TA.AperFunction,ComponentPad*
%ADD11O,1.700000X1.700000*%
G04 #@! TD*
G04 #@! TA.AperFunction,ComponentPad*
%ADD12R,1.700000X1.700000*%
G04 #@! TD*
G04 #@! TA.AperFunction,ComponentPad*
%ADD13C,1.600000*%
G04 #@! TD*
G04 #@! TA.AperFunction,ComponentPad*
%ADD14R,1.600000X1.600000*%
G04 #@! TD*
G04 #@! TA.AperFunction,ComponentPad*
%ADD15R,1.200000X1.200000*%
G04 #@! TD*
G04 #@! TA.AperFunction,ComponentPad*
%ADD16C,1.200000*%
G04 #@! TD*
G04 #@! TA.AperFunction,ComponentPad*
%ADD17O,1.600000X1.600000*%
G04 #@! TD*
G04 #@! TA.AperFunction,ComponentPad*
%ADD18C,1.750000*%
G04 #@! TD*
G04 #@! TA.AperFunction,ViaPad*
%ADD19C,0.800000*%
G04 #@! TD*
G04 #@! TA.AperFunction,Conductor*
%ADD20C,0.250000*%
G04 #@! TD*
G04 #@! TA.AperFunction,Conductor*
%ADD21C,1.000000*%
G04 #@! TD*
G04 #@! TA.AperFunction,Conductor*
%ADD22C,0.254000*%
G04 #@! TD*
G04 APERTURE END LIST*
D10*
X184150000Y-55880000D03*
D11*
X184150000Y-53340000D03*
D12*
X186690000Y-55880000D03*
X186690000Y-53340000D03*
D11*
X189230000Y-55880000D03*
X189230000Y-53340000D03*
X191770000Y-55880000D03*
X191770000Y-53340000D03*
X194310000Y-55880000D03*
X194310000Y-53340000D03*
X196850000Y-55880000D03*
X196850000Y-53340000D03*
G04 #@! TA.AperFunction,ComponentPad*
G36*
G01*
X189550000Y-60754000D02*
X191450000Y-60754000D01*
G75*
G02*
X192400000Y-61704000I0J-950000D01*
G01*
X192400000Y-65804000D01*
G75*
G02*
X191450000Y-66754000I-950000J0D01*
G01*
X189550000Y-66754000D01*
G75*
G02*
X188600000Y-65804000I0J950000D01*
G01*
X188600000Y-61704000D01*
G75*
G02*
X189550000Y-60754000I950000J0D01*
G01*
G37*
G04 #@! TD.AperFunction*
G04 #@! TA.AperFunction,ComponentPad*
G36*
G01*
X194050000Y-60754000D02*
X195950000Y-60754000D01*
G75*
G02*
X196900000Y-61704000I0J-950000D01*
G01*
X196900000Y-65804000D01*
G75*
G02*
X195950000Y-66754000I-950000J0D01*
G01*
X194050000Y-66754000D01*
G75*
G02*
X193100000Y-65804000I0J950000D01*
G01*
X193100000Y-61704000D01*
G75*
G02*
X194050000Y-60754000I950000J0D01*
G01*
G37*
G04 #@! TD.AperFunction*
D10*
X154000000Y-55880000D03*
D11*
X156540000Y-55880000D03*
X154000000Y-58420000D03*
X156540000Y-58420000D03*
X154000000Y-60960000D03*
X156540000Y-60960000D03*
X154000000Y-63500000D03*
X156540000Y-63500000D03*
X154000000Y-66040000D03*
X156540000Y-66040000D03*
X154000000Y-68580000D03*
D12*
X156540000Y-68580000D03*
D11*
X154000000Y-71120000D03*
X156540000Y-71120000D03*
X154000000Y-73660000D03*
X156540000Y-73660000D03*
X154000000Y-76200000D03*
X156540000Y-76200000D03*
X154000000Y-78740000D03*
X156540000Y-78740000D03*
X154000000Y-81280000D03*
X156540000Y-81280000D03*
X154000000Y-83820000D03*
X156540000Y-83820000D03*
X154000000Y-86360000D03*
X156540000Y-86360000D03*
X154000000Y-88900000D03*
X156540000Y-88900000D03*
X154000000Y-91440000D03*
D12*
X156540000Y-91440000D03*
D11*
X154000000Y-93980000D03*
X156540000Y-93980000D03*
X154000000Y-96520000D03*
X156540000Y-96520000D03*
X154000000Y-99060000D03*
X156540000Y-99060000D03*
X154000000Y-101600000D03*
X156540000Y-101600000D03*
X154000000Y-104140000D03*
X156540000Y-104140000D03*
D13*
X172125000Y-73406000D03*
X174625000Y-73406000D03*
X172085000Y-91186000D03*
X174585000Y-91186000D03*
D14*
X178308000Y-62738000D03*
D13*
X181808000Y-62738000D03*
X185547000Y-79248000D03*
X185547000Y-81748000D03*
X185674000Y-89749000D03*
X185674000Y-87249000D03*
D15*
X184658000Y-69088000D03*
D16*
X186158000Y-69088000D03*
D13*
X180427000Y-86868000D03*
X177927000Y-86868000D03*
X180935000Y-105410000D03*
X178435000Y-105410000D03*
D14*
X180467000Y-76454000D03*
D17*
X180467000Y-84074000D03*
X180467000Y-101854000D03*
D14*
X180467000Y-94234000D03*
D10*
X192151000Y-98298000D03*
D11*
X192151000Y-100838000D03*
X192151000Y-103378000D03*
D12*
X192151000Y-105918000D03*
G04 #@! TA.AperFunction,ComponentPad*
G36*
G01*
X189550000Y-73708000D02*
X191450000Y-73708000D01*
G75*
G02*
X192400000Y-74658000I0J-950000D01*
G01*
X192400000Y-78758000D01*
G75*
G02*
X191450000Y-79708000I-950000J0D01*
G01*
X189550000Y-79708000D01*
G75*
G02*
X188600000Y-78758000I0J950000D01*
G01*
X188600000Y-74658000D01*
G75*
G02*
X189550000Y-73708000I950000J0D01*
G01*
G37*
G04 #@! TD.AperFunction*
G04 #@! TA.AperFunction,ComponentPad*
G36*
G01*
X194050000Y-73708000D02*
X195950000Y-73708000D01*
G75*
G02*
X196900000Y-74658000I0J-950000D01*
G01*
X196900000Y-78758000D01*
G75*
G02*
X195950000Y-79708000I-950000J0D01*
G01*
X194050000Y-79708000D01*
G75*
G02*
X193100000Y-78758000I0J950000D01*
G01*
X193100000Y-74658000D01*
G75*
G02*
X194050000Y-73708000I950000J0D01*
G01*
G37*
G04 #@! TD.AperFunction*
G04 #@! TA.AperFunction,ComponentPad*
G36*
G01*
X194050000Y-86662000D02*
X195950000Y-86662000D01*
G75*
G02*
X196900000Y-87612000I0J-950000D01*
G01*
X196900000Y-91712000D01*
G75*
G02*
X195950000Y-92662000I-950000J0D01*
G01*
X194050000Y-92662000D01*
G75*
G02*
X193100000Y-91712000I0J950000D01*
G01*
X193100000Y-87612000D01*
G75*
G02*
X194050000Y-86662000I950000J0D01*
G01*
G37*
G04 #@! TD.AperFunction*
G04 #@! TA.AperFunction,ComponentPad*
G36*
G01*
X189550000Y-86662000D02*
X191450000Y-86662000D01*
G75*
G02*
X192400000Y-87612000I0J-950000D01*
G01*
X192400000Y-91712000D01*
G75*
G02*
X191450000Y-92662000I-950000J0D01*
G01*
X189550000Y-92662000D01*
G75*
G02*
X188600000Y-91712000I0J950000D01*
G01*
X188600000Y-87612000D01*
G75*
G02*
X189550000Y-86662000I950000J0D01*
G01*
G37*
G04 #@! TD.AperFunction*
D13*
X173482000Y-53340000D03*
D17*
X163322000Y-53340000D03*
X163322000Y-57277000D03*
D13*
X173482000Y-57277000D03*
X173482000Y-61214000D03*
D17*
X163322000Y-61214000D03*
X188087000Y-98044000D03*
D13*
X188087000Y-108204000D03*
D17*
X184531000Y-98044000D03*
D13*
X184531000Y-108204000D03*
D17*
X163322000Y-65151000D03*
D13*
X173482000Y-65151000D03*
X173482000Y-69088000D03*
D17*
X163322000Y-69088000D03*
D13*
X164211000Y-88138000D03*
D17*
X174371000Y-88138000D03*
D13*
X164211000Y-106426000D03*
D17*
X174371000Y-106426000D03*
D18*
X163449000Y-78232000D03*
X160909000Y-80772000D03*
X163449000Y-83312000D03*
X163449000Y-100584000D03*
X160909000Y-98044000D03*
X163449000Y-95504000D03*
D14*
X169545000Y-76454000D03*
D17*
X177165000Y-84074000D03*
X169545000Y-78994000D03*
X177165000Y-81534000D03*
X169545000Y-81534000D03*
X177165000Y-78994000D03*
X169545000Y-84074000D03*
X177165000Y-76454000D03*
X177165000Y-94234000D03*
X169545000Y-101854000D03*
X177165000Y-96774000D03*
X169545000Y-99314000D03*
X177165000Y-99314000D03*
X169545000Y-96774000D03*
X177165000Y-101854000D03*
D14*
X169545000Y-94234000D03*
D19*
X151638000Y-51689000D03*
X180000000Y-55000000D03*
X170688000Y-63246000D03*
X170815000Y-55245000D03*
X160782000Y-58166000D03*
X160782000Y-54356000D03*
X160782000Y-52324000D03*
X196215000Y-51435000D03*
X192278000Y-57785000D03*
X151765000Y-108585000D03*
X174117000Y-100838000D03*
X161671000Y-108458000D03*
X176530000Y-108204000D03*
X184150000Y-59944000D03*
X187198000Y-61468000D03*
X190246000Y-70104000D03*
X182626000Y-73025000D03*
X159639000Y-94107000D03*
X182499000Y-97790000D03*
X161925000Y-55880000D03*
X158242000Y-51562000D03*
X177419000Y-57912000D03*
X182245000Y-66802000D03*
X178181000Y-66802000D03*
D20*
X156540000Y-68580000D02*
X156591000Y-68580000D01*
D21*
X156591000Y-68580000D02*
X158496000Y-70485000D01*
D20*
X173482000Y-53340000D02*
X173482000Y-61214000D01*
X173482000Y-61214000D02*
X175006000Y-62738000D01*
X175006000Y-62738000D02*
X178308000Y-62738000D01*
X189484000Y-62738000D02*
X190500000Y-63754000D01*
X181808000Y-62738000D02*
X189484000Y-62738000D01*
X185547000Y-79248000D02*
X187706000Y-81407000D01*
X183224001Y-95667999D02*
X183224001Y-99858999D01*
X187706000Y-81407000D02*
X187706000Y-91186000D01*
X187706000Y-91186000D02*
X183224001Y-95667999D01*
X188087000Y-104721998D02*
X188087000Y-108204000D01*
X183224001Y-99858999D02*
X188087000Y-104721998D01*
X185674000Y-87249000D02*
X182499000Y-90424000D01*
X182499000Y-90424000D02*
X182499000Y-97790000D01*
X173482000Y-65151000D02*
X173482000Y-69088000D01*
X173482000Y-69088000D02*
X184658000Y-69088000D01*
X186158000Y-72366000D02*
X190500000Y-76708000D01*
X186158000Y-69088000D02*
X186158000Y-72366000D01*
X190500000Y-76708000D02*
X190500000Y-89662000D01*
X176657000Y-88138000D02*
X177927000Y-86868000D01*
X174371000Y-88138000D02*
X176657000Y-88138000D01*
X177927000Y-86614000D02*
X177927000Y-86868000D01*
X180467000Y-84074000D02*
X177927000Y-86614000D01*
X179705000Y-84074000D02*
X180467000Y-84074000D01*
X177165000Y-81534000D02*
X179705000Y-84074000D01*
X177419000Y-106426000D02*
X178435000Y-105410000D01*
X174371000Y-106426000D02*
X177419000Y-106426000D01*
X178435000Y-103886000D02*
X180467000Y-101854000D01*
X178435000Y-105410000D02*
X178435000Y-103886000D01*
X177927000Y-99314000D02*
X177165000Y-99314000D01*
X180467000Y-101854000D02*
X177927000Y-99314000D01*
X179705000Y-76454000D02*
X180467000Y-76454000D01*
X177165000Y-78994000D02*
X179705000Y-76454000D01*
X179705000Y-94234000D02*
X180467000Y-94234000D01*
X177165000Y-96774000D02*
X179705000Y-94234000D01*
X154000000Y-55880000D02*
X154000000Y-54534000D01*
X155194000Y-53340000D02*
X163322000Y-53340000D01*
X154000000Y-54534000D02*
X155194000Y-53340000D01*
X198501000Y-55880000D02*
X196850000Y-55880000D01*
X163322000Y-53340000D02*
X165989000Y-50673000D01*
X165989000Y-50673000D02*
X197739000Y-50673000D01*
X199009000Y-51943000D02*
X199009000Y-55372000D01*
X197739000Y-50673000D02*
X199009000Y-51943000D01*
X199009000Y-55372000D02*
X198501000Y-55880000D01*
X161925000Y-55880000D02*
X163322000Y-57277000D01*
X156540000Y-55880000D02*
X161925000Y-55880000D01*
X154000000Y-58420000D02*
X152400000Y-58420000D01*
X152400000Y-58420000D02*
X151638000Y-57658000D01*
X151638000Y-57658000D02*
X151638000Y-54356000D01*
X151638000Y-54356000D02*
X154432000Y-51562000D01*
X154432000Y-51562000D02*
X158242000Y-51562000D01*
X189738000Y-57912000D02*
X185420000Y-57912000D01*
X185420000Y-57912000D02*
X177419000Y-57912000D01*
X191770000Y-55880000D02*
X189738000Y-57912000D01*
X182245000Y-66802000D02*
X181991000Y-66548000D01*
X181991000Y-66548000D02*
X178435000Y-66548000D01*
X178435000Y-66548000D02*
X178181000Y-66802000D01*
X195674999Y-56254003D02*
X193255002Y-58674000D01*
X196850000Y-53340000D02*
X195674999Y-54515001D01*
X195674999Y-54515001D02*
X195674999Y-56254003D01*
X193255002Y-58674000D02*
X183261000Y-58674000D01*
X183261000Y-58674000D02*
X180086000Y-61849000D01*
X180086000Y-61849000D02*
X180086000Y-63145002D01*
X179205003Y-64025999D02*
X180086000Y-63145002D01*
X178198999Y-64025999D02*
X179205003Y-64025999D01*
X178198999Y-64025999D02*
X178452999Y-64025999D01*
X175277999Y-64025999D02*
X178198999Y-64025999D01*
X174879000Y-63627000D02*
X175277999Y-64025999D01*
X172720000Y-63627000D02*
X174879000Y-63627000D01*
X169037000Y-67310000D02*
X172593000Y-63754000D01*
X157066999Y-67310000D02*
X156845000Y-67310000D01*
X172593000Y-63754000D02*
X172720000Y-63627000D01*
X158775000Y-67843000D02*
X158242000Y-67310000D01*
X158775000Y-68809000D02*
X158775000Y-67843000D01*
X158242000Y-67310000D02*
X169037000Y-67310000D01*
X167386000Y-77420000D02*
X158775000Y-68809000D01*
X169545000Y-81534000D02*
X167386000Y-79375000D01*
X156845000Y-67310000D02*
X158242000Y-67310000D01*
X167386000Y-79375000D02*
X167386000Y-77420000D01*
X152146000Y-62814000D02*
X154000000Y-60960000D01*
X152146000Y-66421000D02*
X152146000Y-62814000D01*
X156845000Y-67310000D02*
X153035000Y-67310000D01*
X153035000Y-67310000D02*
X152146000Y-66421000D01*
X169545000Y-99314000D02*
X160495999Y-90264999D01*
X151638000Y-61582998D02*
X153530998Y-59690000D01*
X151638000Y-88277002D02*
X151638000Y-61582998D01*
X155270000Y-59690000D02*
X156540000Y-60960000D01*
X153530998Y-59690000D02*
X155270000Y-59690000D01*
X153543000Y-90170000D02*
X151765000Y-88392000D01*
X151752998Y-88392000D02*
X151638000Y-88277002D01*
X151765000Y-88392000D02*
X151752998Y-88392000D01*
X160147000Y-90170000D02*
X160401000Y-90170000D01*
X160147000Y-90170000D02*
X153543000Y-90170000D01*
X160413002Y-90170000D02*
X160147000Y-90170000D01*
X160413002Y-90182002D02*
X160495999Y-90264999D01*
X160413002Y-90170000D02*
X160413002Y-90182002D01*
X162846001Y-64675001D02*
X163322000Y-65151000D01*
X154000000Y-63500000D02*
X155270000Y-64770000D01*
X162941000Y-64770000D02*
X163322000Y-65151000D01*
X155270000Y-64770000D02*
X162941000Y-64770000D01*
X167386000Y-53340000D02*
X169545000Y-51181000D01*
X189611000Y-51181000D02*
X191770000Y-53340000D01*
X169545000Y-51181000D02*
X189611000Y-51181000D01*
X167386000Y-61087000D02*
X167386000Y-53340000D01*
X163322000Y-65151000D02*
X167386000Y-61087000D01*
X189357000Y-98044000D02*
X192151000Y-100838000D01*
X188087000Y-98044000D02*
X189357000Y-98044000D01*
X189865000Y-103378000D02*
X192151000Y-103378000D01*
X184531000Y-98044000D02*
X189865000Y-103378000D01*
X163449000Y-78232000D02*
X160909000Y-80772000D01*
X160909000Y-84836000D02*
X160909000Y-80772000D01*
X164211000Y-88138000D02*
X160909000Y-84836000D01*
X163449000Y-95504000D02*
X160909000Y-98044000D01*
X160909000Y-103124000D02*
X164211000Y-106426000D01*
X160909000Y-98044000D02*
X160909000Y-103124000D01*
D22*
G36*
X199340001Y-58598919D02*
G01*
X199119744Y-58378662D01*
X198819199Y-58177844D01*
X198485250Y-58039518D01*
X198130732Y-57969000D01*
X197769268Y-57969000D01*
X197414750Y-58039518D01*
X197080801Y-58177844D01*
X196780256Y-58378662D01*
X196524662Y-58634256D01*
X196323844Y-58934801D01*
X196185518Y-59268750D01*
X196115000Y-59623268D01*
X196115000Y-59984732D01*
X196141384Y-60117372D01*
X195285750Y-60119000D01*
X195127000Y-60277750D01*
X195127000Y-63627000D01*
X197376250Y-63627000D01*
X197535000Y-63468250D01*
X197537123Y-61592823D01*
X197769268Y-61639000D01*
X198130732Y-61639000D01*
X198485250Y-61568482D01*
X198819199Y-61430156D01*
X199119744Y-61229338D01*
X199340001Y-61009081D01*
X199340001Y-66498919D01*
X199119744Y-66278662D01*
X198819199Y-66077844D01*
X198485250Y-65939518D01*
X198130732Y-65869000D01*
X197769268Y-65869000D01*
X197537123Y-65915177D01*
X197535000Y-64039750D01*
X197376250Y-63881000D01*
X195127000Y-63881000D01*
X195127000Y-67230250D01*
X195285750Y-67389000D01*
X196141384Y-67390628D01*
X196115000Y-67523268D01*
X196115000Y-67884732D01*
X196185518Y-68239250D01*
X196323844Y-68573199D01*
X196524662Y-68873744D01*
X196780256Y-69129338D01*
X197080801Y-69330156D01*
X197414750Y-69468482D01*
X197769268Y-69539000D01*
X198130732Y-69539000D01*
X198485250Y-69468482D01*
X198819199Y-69330156D01*
X199119744Y-69129338D01*
X199340001Y-68909081D01*
X199340001Y-71552919D01*
X199119744Y-71332662D01*
X198819199Y-71131844D01*
X198485250Y-70993518D01*
X198130732Y-70923000D01*
X197769268Y-70923000D01*
X197414750Y-70993518D01*
X197080801Y-71131844D01*
X196780256Y-71332662D01*
X196524662Y-71588256D01*
X196323844Y-71888801D01*
X196185518Y-72222750D01*
X196115000Y-72577268D01*
X196115000Y-72938732D01*
X196141384Y-73071372D01*
X195285750Y-73073000D01*
X195127000Y-73231750D01*
X195127000Y-76581000D01*
X197376250Y-76581000D01*
X197535000Y-76422250D01*
X197537123Y-74546823D01*
X197769268Y-74593000D01*
X198130732Y-74593000D01*
X198485250Y-74522482D01*
X198819199Y-74384156D01*
X199119744Y-74183338D01*
X199340001Y-73963081D01*
X199340001Y-79452919D01*
X199119744Y-79232662D01*
X198819199Y-79031844D01*
X198485250Y-78893518D01*
X198130732Y-78823000D01*
X197769268Y-78823000D01*
X197537123Y-78869177D01*
X197535000Y-76993750D01*
X197376250Y-76835000D01*
X195127000Y-76835000D01*
X195127000Y-80184250D01*
X195285750Y-80343000D01*
X196141384Y-80344628D01*
X196115000Y-80477268D01*
X196115000Y-80838732D01*
X196185518Y-81193250D01*
X196323844Y-81527199D01*
X196524662Y-81827744D01*
X196780256Y-82083338D01*
X197080801Y-82284156D01*
X197414750Y-82422482D01*
X197769268Y-82493000D01*
X198130732Y-82493000D01*
X198485250Y-82422482D01*
X198819199Y-82284156D01*
X199119744Y-82083338D01*
X199340000Y-81863082D01*
X199340000Y-84506918D01*
X199119744Y-84286662D01*
X198819199Y-84085844D01*
X198485250Y-83947518D01*
X198130732Y-83877000D01*
X197769268Y-83877000D01*
X197414750Y-83947518D01*
X197080801Y-84085844D01*
X196780256Y-84286662D01*
X196524662Y-84542256D01*
X196323844Y-84842801D01*
X196185518Y-85176750D01*
X196115000Y-85531268D01*
X196115000Y-85892732D01*
X196141384Y-86025372D01*
X195285750Y-86027000D01*
X195127000Y-86185750D01*
X195127000Y-89535000D01*
X197376250Y-89535000D01*
X197535000Y-89376250D01*
X197537123Y-87500823D01*
X197769268Y-87547000D01*
X198130732Y-87547000D01*
X198485250Y-87476482D01*
X198819199Y-87338156D01*
X199119744Y-87137338D01*
X199340000Y-86917082D01*
X199340000Y-92406918D01*
X199119744Y-92186662D01*
X198819199Y-91985844D01*
X198485250Y-91847518D01*
X198130732Y-91777000D01*
X197769268Y-91777000D01*
X197537123Y-91823177D01*
X197535000Y-89947750D01*
X197376250Y-89789000D01*
X195127000Y-89789000D01*
X195127000Y-93138250D01*
X195285750Y-93297000D01*
X196141384Y-93298628D01*
X196115000Y-93431268D01*
X196115000Y-93792732D01*
X196185518Y-94147250D01*
X196323844Y-94481199D01*
X196524662Y-94781744D01*
X196780256Y-95037338D01*
X197080801Y-95238156D01*
X197414750Y-95376482D01*
X197769268Y-95447000D01*
X198130732Y-95447000D01*
X198485250Y-95376482D01*
X198819199Y-95238156D01*
X199119744Y-95037338D01*
X199340000Y-94817082D01*
X199340000Y-109340000D01*
X188969787Y-109340000D01*
X189001759Y-109318637D01*
X189201637Y-109118759D01*
X189358680Y-108883727D01*
X189466853Y-108622574D01*
X189522000Y-108345335D01*
X189522000Y-108062665D01*
X189466853Y-107785426D01*
X189358680Y-107524273D01*
X189201637Y-107289241D01*
X189001759Y-107089363D01*
X188847000Y-106985957D01*
X188847000Y-106768000D01*
X190662928Y-106768000D01*
X190675188Y-106892482D01*
X190711498Y-107012180D01*
X190770463Y-107122494D01*
X190849815Y-107219185D01*
X190946506Y-107298537D01*
X191056820Y-107357502D01*
X191176518Y-107393812D01*
X191301000Y-107406072D01*
X191865250Y-107403000D01*
X192024000Y-107244250D01*
X192024000Y-106045000D01*
X192278000Y-106045000D01*
X192278000Y-107244250D01*
X192436750Y-107403000D01*
X193001000Y-107406072D01*
X193125482Y-107393812D01*
X193245180Y-107357502D01*
X193355494Y-107298537D01*
X193452185Y-107219185D01*
X193531537Y-107122494D01*
X193590502Y-107012180D01*
X193626812Y-106892482D01*
X193639072Y-106768000D01*
X193636000Y-106203750D01*
X193477250Y-106045000D01*
X192278000Y-106045000D01*
X192024000Y-106045000D01*
X190824750Y-106045000D01*
X190666000Y-106203750D01*
X190662928Y-106768000D01*
X188847000Y-106768000D01*
X188847000Y-104759320D01*
X188850676Y-104721997D01*
X188847000Y-104684674D01*
X188847000Y-104684665D01*
X188836003Y-104573012D01*
X188792546Y-104429751D01*
X188736358Y-104324632D01*
X188721974Y-104297721D01*
X188650799Y-104210995D01*
X188627001Y-104181997D01*
X188598004Y-104158200D01*
X183984001Y-99544198D01*
X183984001Y-99370658D01*
X184112426Y-99423853D01*
X184389665Y-99479000D01*
X184672335Y-99479000D01*
X184854887Y-99442688D01*
X189301201Y-103889003D01*
X189324999Y-103918001D01*
X189353997Y-103941799D01*
X189440723Y-104012974D01*
X189514538Y-104052429D01*
X189572753Y-104083546D01*
X189716014Y-104127003D01*
X189827667Y-104138000D01*
X189827676Y-104138000D01*
X189864999Y-104141676D01*
X189902322Y-104138000D01*
X190872822Y-104138000D01*
X190997525Y-104324632D01*
X191129380Y-104456487D01*
X191056820Y-104478498D01*
X190946506Y-104537463D01*
X190849815Y-104616815D01*
X190770463Y-104713506D01*
X190711498Y-104823820D01*
X190675188Y-104943518D01*
X190662928Y-105068000D01*
X190666000Y-105632250D01*
X190824750Y-105791000D01*
X192024000Y-105791000D01*
X192024000Y-105771000D01*
X192278000Y-105771000D01*
X192278000Y-105791000D01*
X193477250Y-105791000D01*
X193636000Y-105632250D01*
X193639072Y-105068000D01*
X193626812Y-104943518D01*
X193590502Y-104823820D01*
X193531537Y-104713506D01*
X193452185Y-104616815D01*
X193355494Y-104537463D01*
X193245180Y-104478498D01*
X193172620Y-104456487D01*
X193304475Y-104324632D01*
X193466990Y-104081411D01*
X193578932Y-103811158D01*
X193636000Y-103524260D01*
X193636000Y-103231740D01*
X193578932Y-102944842D01*
X193466990Y-102674589D01*
X193304475Y-102431368D01*
X193097632Y-102224525D01*
X192923240Y-102108000D01*
X193097632Y-101991475D01*
X193304475Y-101784632D01*
X193466990Y-101541411D01*
X193578932Y-101271158D01*
X193636000Y-100984260D01*
X193636000Y-100691740D01*
X193578932Y-100404842D01*
X193466990Y-100134589D01*
X193304475Y-99891368D01*
X193097632Y-99684525D01*
X192923240Y-99568000D01*
X193097632Y-99451475D01*
X193304475Y-99244632D01*
X193466990Y-99001411D01*
X193578932Y-98731158D01*
X193636000Y-98444260D01*
X193636000Y-98151740D01*
X193578932Y-97864842D01*
X193466990Y-97594589D01*
X193304475Y-97351368D01*
X193097632Y-97144525D01*
X192854411Y-96982010D01*
X192584158Y-96870068D01*
X192297260Y-96813000D01*
X192004740Y-96813000D01*
X191717842Y-96870068D01*
X191447589Y-96982010D01*
X191204368Y-97144525D01*
X190997525Y-97351368D01*
X190835010Y-97594589D01*
X190723068Y-97864842D01*
X190666000Y-98151740D01*
X190666000Y-98278199D01*
X189920804Y-97533003D01*
X189897001Y-97503999D01*
X189781276Y-97409026D01*
X189649247Y-97338454D01*
X189505986Y-97294997D01*
X189394333Y-97284000D01*
X189394322Y-97284000D01*
X189357000Y-97280324D01*
X189319678Y-97284000D01*
X189305043Y-97284000D01*
X189201637Y-97129241D01*
X189001759Y-96929363D01*
X188766727Y-96772320D01*
X188505574Y-96664147D01*
X188228335Y-96609000D01*
X187945665Y-96609000D01*
X187668426Y-96664147D01*
X187407273Y-96772320D01*
X187172241Y-96929363D01*
X186972363Y-97129241D01*
X186815320Y-97364273D01*
X186707147Y-97625426D01*
X186652000Y-97902665D01*
X186652000Y-98185335D01*
X186707147Y-98462574D01*
X186815320Y-98723727D01*
X186972363Y-98958759D01*
X187172241Y-99158637D01*
X187407273Y-99315680D01*
X187668426Y-99423853D01*
X187945665Y-99479000D01*
X188228335Y-99479000D01*
X188505574Y-99423853D01*
X188766727Y-99315680D01*
X189001759Y-99158637D01*
X189199297Y-98961099D01*
X190709790Y-100471592D01*
X190666000Y-100691740D01*
X190666000Y-100984260D01*
X190723068Y-101271158D01*
X190835010Y-101541411D01*
X190997525Y-101784632D01*
X191204368Y-101991475D01*
X191378760Y-102108000D01*
X191204368Y-102224525D01*
X190997525Y-102431368D01*
X190872822Y-102618000D01*
X190179802Y-102618000D01*
X185929688Y-98367887D01*
X185966000Y-98185335D01*
X185966000Y-97902665D01*
X185910853Y-97625426D01*
X185802680Y-97364273D01*
X185645637Y-97129241D01*
X185445759Y-96929363D01*
X185210727Y-96772320D01*
X184949574Y-96664147D01*
X184672335Y-96609000D01*
X184389665Y-96609000D01*
X184112426Y-96664147D01*
X183984001Y-96717342D01*
X183984001Y-95982800D01*
X187988187Y-91978615D01*
X187992442Y-92021817D01*
X188082813Y-92319729D01*
X188229566Y-92594286D01*
X188427064Y-92834936D01*
X188667714Y-93032434D01*
X188942271Y-93179187D01*
X189240183Y-93269558D01*
X189550000Y-93300072D01*
X191450000Y-93300072D01*
X191759817Y-93269558D01*
X192057729Y-93179187D01*
X192332286Y-93032434D01*
X192505640Y-92890165D01*
X192510498Y-92906180D01*
X192569463Y-93016494D01*
X192648815Y-93113185D01*
X192745506Y-93192537D01*
X192855820Y-93251502D01*
X192975518Y-93287812D01*
X193100000Y-93300072D01*
X194714250Y-93297000D01*
X194873000Y-93138250D01*
X194873000Y-89789000D01*
X194853000Y-89789000D01*
X194853000Y-89535000D01*
X194873000Y-89535000D01*
X194873000Y-86185750D01*
X194714250Y-86027000D01*
X193100000Y-86023928D01*
X192975518Y-86036188D01*
X192855820Y-86072498D01*
X192745506Y-86131463D01*
X192648815Y-86210815D01*
X192569463Y-86307506D01*
X192510498Y-86417820D01*
X192505640Y-86433835D01*
X192332286Y-86291566D01*
X192057729Y-86144813D01*
X191759817Y-86054442D01*
X191450000Y-86023928D01*
X191260000Y-86023928D01*
X191260000Y-80346072D01*
X191450000Y-80346072D01*
X191759817Y-80315558D01*
X192057729Y-80225187D01*
X192332286Y-80078434D01*
X192505640Y-79936165D01*
X192510498Y-79952180D01*
X192569463Y-80062494D01*
X192648815Y-80159185D01*
X192745506Y-80238537D01*
X192855820Y-80297502D01*
X192975518Y-80333812D01*
X193100000Y-80346072D01*
X194714250Y-80343000D01*
X194873000Y-80184250D01*
X194873000Y-76835000D01*
X194853000Y-76835000D01*
X194853000Y-76581000D01*
X194873000Y-76581000D01*
X194873000Y-73231750D01*
X194714250Y-73073000D01*
X193100000Y-73069928D01*
X192975518Y-73082188D01*
X192855820Y-73118498D01*
X192745506Y-73177463D01*
X192648815Y-73256815D01*
X192569463Y-73353506D01*
X192510498Y-73463820D01*
X192505640Y-73479835D01*
X192332286Y-73337566D01*
X192057729Y-73190813D01*
X191759817Y-73100442D01*
X191450000Y-73069928D01*
X189550000Y-73069928D01*
X189240183Y-73100442D01*
X188942271Y-73190813D01*
X188667714Y-73337566D01*
X188427064Y-73535064D01*
X188415706Y-73548904D01*
X186918000Y-72051199D01*
X186918000Y-70065506D01*
X186945267Y-70047287D01*
X187117287Y-69875267D01*
X187252443Y-69672992D01*
X187345540Y-69448236D01*
X187393000Y-69209637D01*
X187393000Y-68966363D01*
X187345540Y-68727764D01*
X187252443Y-68503008D01*
X187117287Y-68300733D01*
X186945267Y-68128713D01*
X186742992Y-67993557D01*
X186518236Y-67900460D01*
X186279637Y-67853000D01*
X186036363Y-67853000D01*
X185797764Y-67900460D01*
X185628478Y-67970581D01*
X185612494Y-67957463D01*
X185502180Y-67898498D01*
X185382482Y-67862188D01*
X185258000Y-67849928D01*
X184058000Y-67849928D01*
X183933518Y-67862188D01*
X183813820Y-67898498D01*
X183703506Y-67957463D01*
X183606815Y-68036815D01*
X183527463Y-68133506D01*
X183468498Y-68243820D01*
X183442962Y-68328000D01*
X174700043Y-68328000D01*
X174596637Y-68173241D01*
X174396759Y-67973363D01*
X174242000Y-67869957D01*
X174242000Y-66700061D01*
X177146000Y-66700061D01*
X177146000Y-66903939D01*
X177185774Y-67103898D01*
X177263795Y-67292256D01*
X177377063Y-67461774D01*
X177521226Y-67605937D01*
X177690744Y-67719205D01*
X177879102Y-67797226D01*
X178079061Y-67837000D01*
X178282939Y-67837000D01*
X178482898Y-67797226D01*
X178671256Y-67719205D01*
X178840774Y-67605937D01*
X178984937Y-67461774D01*
X179087685Y-67308000D01*
X181338315Y-67308000D01*
X181441063Y-67461774D01*
X181585226Y-67605937D01*
X181754744Y-67719205D01*
X181943102Y-67797226D01*
X182143061Y-67837000D01*
X182346939Y-67837000D01*
X182546898Y-67797226D01*
X182735256Y-67719205D01*
X182904774Y-67605937D01*
X183048937Y-67461774D01*
X183162205Y-67292256D01*
X183240226Y-67103898D01*
X183280000Y-66903939D01*
X183280000Y-66700061D01*
X183240226Y-66500102D01*
X183162205Y-66311744D01*
X183048937Y-66142226D01*
X182904774Y-65998063D01*
X182735256Y-65884795D01*
X182546898Y-65806774D01*
X182346939Y-65767000D01*
X182143061Y-65767000D01*
X182034455Y-65788603D01*
X182028333Y-65788000D01*
X182028322Y-65788000D01*
X181991000Y-65784324D01*
X181953678Y-65788000D01*
X178472322Y-65788000D01*
X178434999Y-65784324D01*
X178397676Y-65788000D01*
X178397667Y-65788000D01*
X178391545Y-65788603D01*
X178282939Y-65767000D01*
X178079061Y-65767000D01*
X177879102Y-65806774D01*
X177690744Y-65884795D01*
X177521226Y-65998063D01*
X177377063Y-66142226D01*
X177263795Y-66311744D01*
X177185774Y-66500102D01*
X177146000Y-66700061D01*
X174242000Y-66700061D01*
X174242000Y-66369043D01*
X174396759Y-66265637D01*
X174596637Y-66065759D01*
X174753680Y-65830727D01*
X174861853Y-65569574D01*
X174917000Y-65292335D01*
X174917000Y-65009665D01*
X174861853Y-64732426D01*
X174821201Y-64634283D01*
X174853723Y-64660973D01*
X174985752Y-64731545D01*
X175129013Y-64775002D01*
X175240666Y-64785999D01*
X175240674Y-64785999D01*
X175277999Y-64789675D01*
X175315324Y-64785999D01*
X179167681Y-64785999D01*
X179205003Y-64789675D01*
X179242325Y-64785999D01*
X179242336Y-64785999D01*
X179353989Y-64775002D01*
X179497250Y-64731545D01*
X179629279Y-64660973D01*
X179745004Y-64566000D01*
X179768806Y-64536997D01*
X180597003Y-63708801D01*
X180626001Y-63685003D01*
X180673603Y-63627000D01*
X180675008Y-63625288D01*
X180693363Y-63652759D01*
X180893241Y-63852637D01*
X181128273Y-64009680D01*
X181389426Y-64117853D01*
X181666665Y-64173000D01*
X181949335Y-64173000D01*
X182226574Y-64117853D01*
X182487727Y-64009680D01*
X182722759Y-63852637D01*
X182922637Y-63652759D01*
X183026043Y-63498000D01*
X187961928Y-63498000D01*
X187961928Y-65804000D01*
X187992442Y-66113817D01*
X188082813Y-66411729D01*
X188229566Y-66686286D01*
X188427064Y-66926936D01*
X188667714Y-67124434D01*
X188942271Y-67271187D01*
X189240183Y-67361558D01*
X189550000Y-67392072D01*
X191450000Y-67392072D01*
X191759817Y-67361558D01*
X192057729Y-67271187D01*
X192332286Y-67124434D01*
X192505640Y-66982165D01*
X192510498Y-66998180D01*
X192569463Y-67108494D01*
X192648815Y-67205185D01*
X192745506Y-67284537D01*
X192855820Y-67343502D01*
X192975518Y-67379812D01*
X193100000Y-67392072D01*
X194714250Y-67389000D01*
X194873000Y-67230250D01*
X194873000Y-63881000D01*
X194853000Y-63881000D01*
X194853000Y-63627000D01*
X194873000Y-63627000D01*
X194873000Y-60277750D01*
X194714250Y-60119000D01*
X193100000Y-60115928D01*
X192975518Y-60128188D01*
X192855820Y-60164498D01*
X192745506Y-60223463D01*
X192648815Y-60302815D01*
X192569463Y-60399506D01*
X192510498Y-60509820D01*
X192505640Y-60525835D01*
X192332286Y-60383566D01*
X192057729Y-60236813D01*
X191759817Y-60146442D01*
X191450000Y-60115928D01*
X189550000Y-60115928D01*
X189240183Y-60146442D01*
X188942271Y-60236813D01*
X188667714Y-60383566D01*
X188427064Y-60581064D01*
X188229566Y-60821714D01*
X188082813Y-61096271D01*
X187992442Y-61394183D01*
X187961928Y-61704000D01*
X187961928Y-61978000D01*
X183026043Y-61978000D01*
X182922637Y-61823241D01*
X182722759Y-61623363D01*
X182487727Y-61466320D01*
X182226574Y-61358147D01*
X181949335Y-61303000D01*
X181706801Y-61303000D01*
X183575802Y-59434000D01*
X193217680Y-59434000D01*
X193255002Y-59437676D01*
X193292324Y-59434000D01*
X193292335Y-59434000D01*
X193403988Y-59423003D01*
X193547249Y-59379546D01*
X193679278Y-59308974D01*
X193795003Y-59214001D01*
X193818806Y-59184997D01*
X195943508Y-57060296D01*
X196146589Y-57195990D01*
X196416842Y-57307932D01*
X196703740Y-57365000D01*
X196996260Y-57365000D01*
X197283158Y-57307932D01*
X197553411Y-57195990D01*
X197796632Y-57033475D01*
X198003475Y-56826632D01*
X198128178Y-56640000D01*
X198463678Y-56640000D01*
X198501000Y-56643676D01*
X198538322Y-56640000D01*
X198538333Y-56640000D01*
X198649986Y-56629003D01*
X198793247Y-56585546D01*
X198925276Y-56514974D01*
X199041001Y-56420001D01*
X199064803Y-56390998D01*
X199340001Y-56115801D01*
X199340001Y-58598919D01*
G37*
X199340001Y-58598919D02*
X199119744Y-58378662D01*
X198819199Y-58177844D01*
X198485250Y-58039518D01*
X198130732Y-57969000D01*
X197769268Y-57969000D01*
X197414750Y-58039518D01*
X197080801Y-58177844D01*
X196780256Y-58378662D01*
X196524662Y-58634256D01*
X196323844Y-58934801D01*
X196185518Y-59268750D01*
X196115000Y-59623268D01*
X196115000Y-59984732D01*
X196141384Y-60117372D01*
X195285750Y-60119000D01*
X195127000Y-60277750D01*
X195127000Y-63627000D01*
X197376250Y-63627000D01*
X197535000Y-63468250D01*
X197537123Y-61592823D01*
X197769268Y-61639000D01*
X198130732Y-61639000D01*
X198485250Y-61568482D01*
X198819199Y-61430156D01*
X199119744Y-61229338D01*
X199340001Y-61009081D01*
X199340001Y-66498919D01*
X199119744Y-66278662D01*
X198819199Y-66077844D01*
X198485250Y-65939518D01*
X198130732Y-65869000D01*
X197769268Y-65869000D01*
X197537123Y-65915177D01*
X197535000Y-64039750D01*
X197376250Y-63881000D01*
X195127000Y-63881000D01*
X195127000Y-67230250D01*
X195285750Y-67389000D01*
X196141384Y-67390628D01*
X196115000Y-67523268D01*
X196115000Y-67884732D01*
X196185518Y-68239250D01*
X196323844Y-68573199D01*
X196524662Y-68873744D01*
X196780256Y-69129338D01*
X197080801Y-69330156D01*
X197414750Y-69468482D01*
X197769268Y-69539000D01*
X198130732Y-69539000D01*
X198485250Y-69468482D01*
X198819199Y-69330156D01*
X199119744Y-69129338D01*
X199340001Y-68909081D01*
X199340001Y-71552919D01*
X199119744Y-71332662D01*
X198819199Y-71131844D01*
X198485250Y-70993518D01*
X198130732Y-70923000D01*
X197769268Y-70923000D01*
X197414750Y-70993518D01*
X197080801Y-71131844D01*
X196780256Y-71332662D01*
X196524662Y-71588256D01*
X196323844Y-71888801D01*
X196185518Y-72222750D01*
X196115000Y-72577268D01*
X196115000Y-72938732D01*
X196141384Y-73071372D01*
X195285750Y-73073000D01*
X195127000Y-73231750D01*
X195127000Y-76581000D01*
X197376250Y-76581000D01*
X197535000Y-76422250D01*
X197537123Y-74546823D01*
X197769268Y-74593000D01*
X198130732Y-74593000D01*
X198485250Y-74522482D01*
X198819199Y-74384156D01*
X199119744Y-74183338D01*
X199340001Y-73963081D01*
X199340001Y-79452919D01*
X199119744Y-79232662D01*
X198819199Y-79031844D01*
X198485250Y-78893518D01*
X198130732Y-78823000D01*
X197769268Y-78823000D01*
X197537123Y-78869177D01*
X197535000Y-76993750D01*
X197376250Y-76835000D01*
X195127000Y-76835000D01*
X195127000Y-80184250D01*
X195285750Y-80343000D01*
X196141384Y-80344628D01*
X196115000Y-80477268D01*
X196115000Y-80838732D01*
X196185518Y-81193250D01*
X196323844Y-81527199D01*
X196524662Y-81827744D01*
X196780256Y-82083338D01*
X197080801Y-82284156D01*
X197414750Y-82422482D01*
X197769268Y-82493000D01*
X198130732Y-82493000D01*
X198485250Y-82422482D01*
X198819199Y-82284156D01*
X199119744Y-82083338D01*
X199340000Y-81863082D01*
X199340000Y-84506918D01*
X199119744Y-84286662D01*
X198819199Y-84085844D01*
X198485250Y-83947518D01*
X198130732Y-83877000D01*
X197769268Y-83877000D01*
X197414750Y-83947518D01*
X197080801Y-84085844D01*
X196780256Y-84286662D01*
X196524662Y-84542256D01*
X196323844Y-84842801D01*
X196185518Y-85176750D01*
X196115000Y-85531268D01*
X196115000Y-85892732D01*
X196141384Y-86025372D01*
X195285750Y-86027000D01*
X195127000Y-86185750D01*
X195127000Y-89535000D01*
X197376250Y-89535000D01*
X197535000Y-89376250D01*
X197537123Y-87500823D01*
X197769268Y-87547000D01*
X198130732Y-87547000D01*
X198485250Y-87476482D01*
X198819199Y-87338156D01*
X199119744Y-87137338D01*
X199340000Y-86917082D01*
X199340000Y-92406918D01*
X199119744Y-92186662D01*
X198819199Y-91985844D01*
X198485250Y-91847518D01*
X198130732Y-91777000D01*
X197769268Y-91777000D01*
X197537123Y-91823177D01*
X197535000Y-89947750D01*
X197376250Y-89789000D01*
X195127000Y-89789000D01*
X195127000Y-93138250D01*
X195285750Y-93297000D01*
X196141384Y-93298628D01*
X196115000Y-93431268D01*
X196115000Y-93792732D01*
X196185518Y-94147250D01*
X196323844Y-94481199D01*
X196524662Y-94781744D01*
X196780256Y-95037338D01*
X197080801Y-95238156D01*
X197414750Y-95376482D01*
X197769268Y-95447000D01*
X198130732Y-95447000D01*
X198485250Y-95376482D01*
X198819199Y-95238156D01*
X199119744Y-95037338D01*
X199340000Y-94817082D01*
X199340000Y-109340000D01*
X188969787Y-109340000D01*
X189001759Y-109318637D01*
X189201637Y-109118759D01*
X189358680Y-108883727D01*
X189466853Y-108622574D01*
X189522000Y-108345335D01*
X189522000Y-108062665D01*
X189466853Y-107785426D01*
X189358680Y-107524273D01*
X189201637Y-107289241D01*
X189001759Y-107089363D01*
X188847000Y-106985957D01*
X188847000Y-106768000D01*
X190662928Y-106768000D01*
X190675188Y-106892482D01*
X190711498Y-107012180D01*
X190770463Y-107122494D01*
X190849815Y-107219185D01*
X190946506Y-107298537D01*
X191056820Y-107357502D01*
X191176518Y-107393812D01*
X191301000Y-107406072D01*
X191865250Y-107403000D01*
X192024000Y-107244250D01*
X192024000Y-106045000D01*
X192278000Y-106045000D01*
X192278000Y-107244250D01*
X192436750Y-107403000D01*
X193001000Y-107406072D01*
X193125482Y-107393812D01*
X193245180Y-107357502D01*
X193355494Y-107298537D01*
X193452185Y-107219185D01*
X193531537Y-107122494D01*
X193590502Y-107012180D01*
X193626812Y-106892482D01*
X193639072Y-106768000D01*
X193636000Y-106203750D01*
X193477250Y-106045000D01*
X192278000Y-106045000D01*
X192024000Y-106045000D01*
X190824750Y-106045000D01*
X190666000Y-106203750D01*
X190662928Y-106768000D01*
X188847000Y-106768000D01*
X188847000Y-104759320D01*
X188850676Y-104721997D01*
X188847000Y-104684674D01*
X188847000Y-104684665D01*
X188836003Y-104573012D01*
X188792546Y-104429751D01*
X188736358Y-104324632D01*
X188721974Y-104297721D01*
X188650799Y-104210995D01*
X188627001Y-104181997D01*
X188598004Y-104158200D01*
X183984001Y-99544198D01*
X183984001Y-99370658D01*
X184112426Y-99423853D01*
X184389665Y-99479000D01*
X184672335Y-99479000D01*
X184854887Y-99442688D01*
X189301201Y-103889003D01*
X189324999Y-103918001D01*
X189353997Y-103941799D01*
X189440723Y-104012974D01*
X189514538Y-104052429D01*
X189572753Y-104083546D01*
X189716014Y-104127003D01*
X189827667Y-104138000D01*
X189827676Y-104138000D01*
X189864999Y-104141676D01*
X189902322Y-104138000D01*
X190872822Y-104138000D01*
X190997525Y-104324632D01*
X191129380Y-104456487D01*
X191056820Y-104478498D01*
X190946506Y-104537463D01*
X190849815Y-104616815D01*
X190770463Y-104713506D01*
X190711498Y-104823820D01*
X190675188Y-104943518D01*
X190662928Y-105068000D01*
X190666000Y-105632250D01*
X190824750Y-105791000D01*
X192024000Y-105791000D01*
X192024000Y-105771000D01*
X192278000Y-105771000D01*
X192278000Y-105791000D01*
X193477250Y-105791000D01*
X193636000Y-105632250D01*
X193639072Y-105068000D01*
X193626812Y-104943518D01*
X193590502Y-104823820D01*
X193531537Y-104713506D01*
X193452185Y-104616815D01*
X193355494Y-104537463D01*
X193245180Y-104478498D01*
X193172620Y-104456487D01*
X193304475Y-104324632D01*
X193466990Y-104081411D01*
X193578932Y-103811158D01*
X193636000Y-103524260D01*
X193636000Y-103231740D01*
X193578932Y-102944842D01*
X193466990Y-102674589D01*
X193304475Y-102431368D01*
X193097632Y-102224525D01*
X192923240Y-102108000D01*
X193097632Y-101991475D01*
X193304475Y-101784632D01*
X193466990Y-101541411D01*
X193578932Y-101271158D01*
X193636000Y-100984260D01*
X193636000Y-100691740D01*
X193578932Y-100404842D01*
X193466990Y-100134589D01*
X193304475Y-99891368D01*
X193097632Y-99684525D01*
X192923240Y-99568000D01*
X193097632Y-99451475D01*
X193304475Y-99244632D01*
X193466990Y-99001411D01*
X193578932Y-98731158D01*
X193636000Y-98444260D01*
X193636000Y-98151740D01*
X193578932Y-97864842D01*
X193466990Y-97594589D01*
X193304475Y-97351368D01*
X193097632Y-97144525D01*
X192854411Y-96982010D01*
X192584158Y-96870068D01*
X192297260Y-96813000D01*
X192004740Y-96813000D01*
X191717842Y-96870068D01*
X191447589Y-96982010D01*
X191204368Y-97144525D01*
X190997525Y-97351368D01*
X190835010Y-97594589D01*
X190723068Y-97864842D01*
X190666000Y-98151740D01*
X190666000Y-98278199D01*
X189920804Y-97533003D01*
X189897001Y-97503999D01*
X189781276Y-97409026D01*
X189649247Y-97338454D01*
X189505986Y-97294997D01*
X189394333Y-97284000D01*
X189394322Y-97284000D01*
X189357000Y-97280324D01*
X189319678Y-97284000D01*
X189305043Y-97284000D01*
X189201637Y-97129241D01*
X189001759Y-96929363D01*
X188766727Y-96772320D01*
X188505574Y-96664147D01*
X188228335Y-96609000D01*
X187945665Y-96609000D01*
X187668426Y-96664147D01*
X187407273Y-96772320D01*
X187172241Y-96929363D01*
X186972363Y-97129241D01*
X186815320Y-97364273D01*
X186707147Y-97625426D01*
X186652000Y-97902665D01*
X186652000Y-98185335D01*
X186707147Y-98462574D01*
X186815320Y-98723727D01*
X186972363Y-98958759D01*
X187172241Y-99158637D01*
X187407273Y-99315680D01*
X187668426Y-99423853D01*
X187945665Y-99479000D01*
X188228335Y-99479000D01*
X188505574Y-99423853D01*
X188766727Y-99315680D01*
X189001759Y-99158637D01*
X189199297Y-98961099D01*
X190709790Y-100471592D01*
X190666000Y-100691740D01*
X190666000Y-100984260D01*
X190723068Y-101271158D01*
X190835010Y-101541411D01*
X190997525Y-101784632D01*
X191204368Y-101991475D01*
X191378760Y-102108000D01*
X191204368Y-102224525D01*
X190997525Y-102431368D01*
X190872822Y-102618000D01*
X190179802Y-102618000D01*
X185929688Y-98367887D01*
X185966000Y-98185335D01*
X185966000Y-97902665D01*
X185910853Y-97625426D01*
X185802680Y-97364273D01*
X185645637Y-97129241D01*
X185445759Y-96929363D01*
X185210727Y-96772320D01*
X184949574Y-96664147D01*
X184672335Y-96609000D01*
X184389665Y-96609000D01*
X184112426Y-96664147D01*
X183984001Y-96717342D01*
X183984001Y-95982800D01*
X187988187Y-91978615D01*
X187992442Y-92021817D01*
X188082813Y-92319729D01*
X188229566Y-92594286D01*
X188427064Y-92834936D01*
X188667714Y-93032434D01*
X188942271Y-93179187D01*
X189240183Y-93269558D01*
X189550000Y-93300072D01*
X191450000Y-93300072D01*
X191759817Y-93269558D01*
X192057729Y-93179187D01*
X192332286Y-93032434D01*
X192505640Y-92890165D01*
X192510498Y-92906180D01*
X192569463Y-93016494D01*
X192648815Y-93113185D01*
X192745506Y-93192537D01*
X192855820Y-93251502D01*
X192975518Y-93287812D01*
X193100000Y-93300072D01*
X194714250Y-93297000D01*
X194873000Y-93138250D01*
X194873000Y-89789000D01*
X194853000Y-89789000D01*
X194853000Y-89535000D01*
X194873000Y-89535000D01*
X194873000Y-86185750D01*
X194714250Y-86027000D01*
X193100000Y-86023928D01*
X192975518Y-86036188D01*
X192855820Y-86072498D01*
X192745506Y-86131463D01*
X192648815Y-86210815D01*
X192569463Y-86307506D01*
X192510498Y-86417820D01*
X192505640Y-86433835D01*
X192332286Y-86291566D01*
X192057729Y-86144813D01*
X191759817Y-86054442D01*
X191450000Y-86023928D01*
X191260000Y-86023928D01*
X191260000Y-80346072D01*
X191450000Y-80346072D01*
X191759817Y-80315558D01*
X192057729Y-80225187D01*
X192332286Y-80078434D01*
X192505640Y-79936165D01*
X192510498Y-79952180D01*
X192569463Y-80062494D01*
X192648815Y-80159185D01*
X192745506Y-80238537D01*
X192855820Y-80297502D01*
X192975518Y-80333812D01*
X193100000Y-80346072D01*
X194714250Y-80343000D01*
X194873000Y-80184250D01*
X194873000Y-76835000D01*
X194853000Y-76835000D01*
X194853000Y-76581000D01*
X194873000Y-76581000D01*
X194873000Y-73231750D01*
X194714250Y-73073000D01*
X193100000Y-73069928D01*
X192975518Y-73082188D01*
X192855820Y-73118498D01*
X192745506Y-73177463D01*
X192648815Y-73256815D01*
X192569463Y-73353506D01*
X192510498Y-73463820D01*
X192505640Y-73479835D01*
X192332286Y-73337566D01*
X192057729Y-73190813D01*
X191759817Y-73100442D01*
X191450000Y-73069928D01*
X189550000Y-73069928D01*
X189240183Y-73100442D01*
X188942271Y-73190813D01*
X188667714Y-73337566D01*
X188427064Y-73535064D01*
X188415706Y-73548904D01*
X186918000Y-72051199D01*
X186918000Y-70065506D01*
X186945267Y-70047287D01*
X187117287Y-69875267D01*
X187252443Y-69672992D01*
X187345540Y-69448236D01*
X187393000Y-69209637D01*
X187393000Y-68966363D01*
X187345540Y-68727764D01*
X187252443Y-68503008D01*
X187117287Y-68300733D01*
X186945267Y-68128713D01*
X186742992Y-67993557D01*
X186518236Y-67900460D01*
X186279637Y-67853000D01*
X186036363Y-67853000D01*
X185797764Y-67900460D01*
X185628478Y-67970581D01*
X185612494Y-67957463D01*
X185502180Y-67898498D01*
X185382482Y-67862188D01*
X185258000Y-67849928D01*
X184058000Y-67849928D01*
X183933518Y-67862188D01*
X183813820Y-67898498D01*
X183703506Y-67957463D01*
X183606815Y-68036815D01*
X183527463Y-68133506D01*
X183468498Y-68243820D01*
X183442962Y-68328000D01*
X174700043Y-68328000D01*
X174596637Y-68173241D01*
X174396759Y-67973363D01*
X174242000Y-67869957D01*
X174242000Y-66700061D01*
X177146000Y-66700061D01*
X177146000Y-66903939D01*
X177185774Y-67103898D01*
X177263795Y-67292256D01*
X177377063Y-67461774D01*
X177521226Y-67605937D01*
X177690744Y-67719205D01*
X177879102Y-67797226D01*
X178079061Y-67837000D01*
X178282939Y-67837000D01*
X178482898Y-67797226D01*
X178671256Y-67719205D01*
X178840774Y-67605937D01*
X178984937Y-67461774D01*
X179087685Y-67308000D01*
X181338315Y-67308000D01*
X181441063Y-67461774D01*
X181585226Y-67605937D01*
X181754744Y-67719205D01*
X181943102Y-67797226D01*
X182143061Y-67837000D01*
X182346939Y-67837000D01*
X182546898Y-67797226D01*
X182735256Y-67719205D01*
X182904774Y-67605937D01*
X183048937Y-67461774D01*
X183162205Y-67292256D01*
X183240226Y-67103898D01*
X183280000Y-66903939D01*
X183280000Y-66700061D01*
X183240226Y-66500102D01*
X183162205Y-66311744D01*
X183048937Y-66142226D01*
X182904774Y-65998063D01*
X182735256Y-65884795D01*
X182546898Y-65806774D01*
X182346939Y-65767000D01*
X182143061Y-65767000D01*
X182034455Y-65788603D01*
X182028333Y-65788000D01*
X182028322Y-65788000D01*
X181991000Y-65784324D01*
X181953678Y-65788000D01*
X178472322Y-65788000D01*
X178434999Y-65784324D01*
X178397676Y-65788000D01*
X178397667Y-65788000D01*
X178391545Y-65788603D01*
X178282939Y-65767000D01*
X178079061Y-65767000D01*
X177879102Y-65806774D01*
X177690744Y-65884795D01*
X177521226Y-65998063D01*
X177377063Y-66142226D01*
X177263795Y-66311744D01*
X177185774Y-66500102D01*
X177146000Y-66700061D01*
X174242000Y-66700061D01*
X174242000Y-66369043D01*
X174396759Y-66265637D01*
X174596637Y-66065759D01*
X174753680Y-65830727D01*
X174861853Y-65569574D01*
X174917000Y-65292335D01*
X174917000Y-65009665D01*
X174861853Y-64732426D01*
X174821201Y-64634283D01*
X174853723Y-64660973D01*
X174985752Y-64731545D01*
X175129013Y-64775002D01*
X175240666Y-64785999D01*
X175240674Y-64785999D01*
X175277999Y-64789675D01*
X175315324Y-64785999D01*
X179167681Y-64785999D01*
X179205003Y-64789675D01*
X179242325Y-64785999D01*
X179242336Y-64785999D01*
X179353989Y-64775002D01*
X179497250Y-64731545D01*
X179629279Y-64660973D01*
X179745004Y-64566000D01*
X179768806Y-64536997D01*
X180597003Y-63708801D01*
X180626001Y-63685003D01*
X180673603Y-63627000D01*
X180675008Y-63625288D01*
X180693363Y-63652759D01*
X180893241Y-63852637D01*
X181128273Y-64009680D01*
X181389426Y-64117853D01*
X181666665Y-64173000D01*
X181949335Y-64173000D01*
X182226574Y-64117853D01*
X182487727Y-64009680D01*
X182722759Y-63852637D01*
X182922637Y-63652759D01*
X183026043Y-63498000D01*
X187961928Y-63498000D01*
X187961928Y-65804000D01*
X187992442Y-66113817D01*
X188082813Y-66411729D01*
X188229566Y-66686286D01*
X188427064Y-66926936D01*
X188667714Y-67124434D01*
X188942271Y-67271187D01*
X189240183Y-67361558D01*
X189550000Y-67392072D01*
X191450000Y-67392072D01*
X191759817Y-67361558D01*
X192057729Y-67271187D01*
X192332286Y-67124434D01*
X192505640Y-66982165D01*
X192510498Y-66998180D01*
X192569463Y-67108494D01*
X192648815Y-67205185D01*
X192745506Y-67284537D01*
X192855820Y-67343502D01*
X192975518Y-67379812D01*
X193100000Y-67392072D01*
X194714250Y-67389000D01*
X194873000Y-67230250D01*
X194873000Y-63881000D01*
X194853000Y-63881000D01*
X194853000Y-63627000D01*
X194873000Y-63627000D01*
X194873000Y-60277750D01*
X194714250Y-60119000D01*
X193100000Y-60115928D01*
X192975518Y-60128188D01*
X192855820Y-60164498D01*
X192745506Y-60223463D01*
X192648815Y-60302815D01*
X192569463Y-60399506D01*
X192510498Y-60509820D01*
X192505640Y-60525835D01*
X192332286Y-60383566D01*
X192057729Y-60236813D01*
X191759817Y-60146442D01*
X191450000Y-60115928D01*
X189550000Y-60115928D01*
X189240183Y-60146442D01*
X188942271Y-60236813D01*
X188667714Y-60383566D01*
X188427064Y-60581064D01*
X188229566Y-60821714D01*
X188082813Y-61096271D01*
X187992442Y-61394183D01*
X187961928Y-61704000D01*
X187961928Y-61978000D01*
X183026043Y-61978000D01*
X182922637Y-61823241D01*
X182722759Y-61623363D01*
X182487727Y-61466320D01*
X182226574Y-61358147D01*
X181949335Y-61303000D01*
X181706801Y-61303000D01*
X183575802Y-59434000D01*
X193217680Y-59434000D01*
X193255002Y-59437676D01*
X193292324Y-59434000D01*
X193292335Y-59434000D01*
X193403988Y-59423003D01*
X193547249Y-59379546D01*
X193679278Y-59308974D01*
X193795003Y-59214001D01*
X193818806Y-59184997D01*
X195943508Y-57060296D01*
X196146589Y-57195990D01*
X196416842Y-57307932D01*
X196703740Y-57365000D01*
X196996260Y-57365000D01*
X197283158Y-57307932D01*
X197553411Y-57195990D01*
X197796632Y-57033475D01*
X198003475Y-56826632D01*
X198128178Y-56640000D01*
X198463678Y-56640000D01*
X198501000Y-56643676D01*
X198538322Y-56640000D01*
X198538333Y-56640000D01*
X198649986Y-56629003D01*
X198793247Y-56585546D01*
X198925276Y-56514974D01*
X199041001Y-56420001D01*
X199064803Y-56390998D01*
X199340001Y-56115801D01*
X199340001Y-58598919D01*
G36*
X157582226Y-50758063D02*
G01*
X157538289Y-50802000D01*
X154469325Y-50802000D01*
X154432000Y-50798324D01*
X154394675Y-50802000D01*
X154394667Y-50802000D01*
X154283014Y-50812997D01*
X154139753Y-50856454D01*
X154007724Y-50927026D01*
X153891999Y-51021999D01*
X153868201Y-51050997D01*
X151126998Y-53792201D01*
X151098000Y-53815999D01*
X151074202Y-53844997D01*
X151074201Y-53844998D01*
X151003026Y-53931724D01*
X150932454Y-54063754D01*
X150918510Y-54109724D01*
X150888998Y-54207014D01*
X150881156Y-54286632D01*
X150874324Y-54356000D01*
X150878001Y-54393332D01*
X150878000Y-57620677D01*
X150874324Y-57658000D01*
X150878000Y-57695322D01*
X150878000Y-57695332D01*
X150888997Y-57806985D01*
X150921459Y-57914000D01*
X150932454Y-57950246D01*
X151003026Y-58082276D01*
X151025944Y-58110201D01*
X151097999Y-58198001D01*
X151127002Y-58221803D01*
X151836201Y-58931002D01*
X151859999Y-58960001D01*
X151975724Y-59054974D01*
X152107753Y-59125546D01*
X152251014Y-59169003D01*
X152362667Y-59180000D01*
X152362675Y-59180000D01*
X152400000Y-59183676D01*
X152437325Y-59180000D01*
X152721822Y-59180000D01*
X152819704Y-59326491D01*
X151126998Y-61019199D01*
X151098000Y-61042997D01*
X151074202Y-61071995D01*
X151074201Y-61071996D01*
X151003026Y-61158722D01*
X150932454Y-61290752D01*
X150925952Y-61312188D01*
X150888998Y-61434012D01*
X150881883Y-61506247D01*
X150874324Y-61582998D01*
X150878001Y-61620331D01*
X150878000Y-88239680D01*
X150874324Y-88277002D01*
X150878000Y-88314324D01*
X150878000Y-88314334D01*
X150888997Y-88425987D01*
X150930339Y-88562275D01*
X150932454Y-88569248D01*
X151003026Y-88701278D01*
X151003454Y-88701799D01*
X151097999Y-88817003D01*
X151127003Y-88840806D01*
X151189194Y-88902997D01*
X151212997Y-88932001D01*
X151308930Y-89010731D01*
X152824512Y-90526313D01*
X152684010Y-90736589D01*
X152572068Y-91006842D01*
X152515000Y-91293740D01*
X152515000Y-91586260D01*
X152572068Y-91873158D01*
X152684010Y-92143411D01*
X152846525Y-92386632D01*
X153053368Y-92593475D01*
X153227760Y-92710000D01*
X153053368Y-92826525D01*
X152846525Y-93033368D01*
X152684010Y-93276589D01*
X152572068Y-93546842D01*
X152515000Y-93833740D01*
X152515000Y-94126260D01*
X152572068Y-94413158D01*
X152684010Y-94683411D01*
X152846525Y-94926632D01*
X153053368Y-95133475D01*
X153227760Y-95250000D01*
X153053368Y-95366525D01*
X152846525Y-95573368D01*
X152684010Y-95816589D01*
X152572068Y-96086842D01*
X152515000Y-96373740D01*
X152515000Y-96666260D01*
X152572068Y-96953158D01*
X152684010Y-97223411D01*
X152846525Y-97466632D01*
X153053368Y-97673475D01*
X153227760Y-97790000D01*
X153053368Y-97906525D01*
X152846525Y-98113368D01*
X152684010Y-98356589D01*
X152572068Y-98626842D01*
X152515000Y-98913740D01*
X152515000Y-99206260D01*
X152572068Y-99493158D01*
X152684010Y-99763411D01*
X152846525Y-100006632D01*
X153053368Y-100213475D01*
X153227760Y-100330000D01*
X153053368Y-100446525D01*
X152846525Y-100653368D01*
X152684010Y-100896589D01*
X152572068Y-101166842D01*
X152515000Y-101453740D01*
X152515000Y-101746260D01*
X152572068Y-102033158D01*
X152684010Y-102303411D01*
X152846525Y-102546632D01*
X153053368Y-102753475D01*
X153227760Y-102870000D01*
X153053368Y-102986525D01*
X152846525Y-103193368D01*
X152684010Y-103436589D01*
X152572068Y-103706842D01*
X152515000Y-103993740D01*
X152515000Y-104286260D01*
X152572068Y-104573158D01*
X152684010Y-104843411D01*
X152846525Y-105086632D01*
X153053368Y-105293475D01*
X153296589Y-105455990D01*
X153566842Y-105567932D01*
X153853740Y-105625000D01*
X154146260Y-105625000D01*
X154433158Y-105567932D01*
X154703411Y-105455990D01*
X154946632Y-105293475D01*
X155153475Y-105086632D01*
X155270000Y-104912240D01*
X155386525Y-105086632D01*
X155593368Y-105293475D01*
X155836589Y-105455990D01*
X156106842Y-105567932D01*
X156393740Y-105625000D01*
X156686260Y-105625000D01*
X156973158Y-105567932D01*
X157243411Y-105455990D01*
X157486632Y-105293475D01*
X157693475Y-105086632D01*
X157855990Y-104843411D01*
X157967932Y-104573158D01*
X158025000Y-104286260D01*
X158025000Y-103993740D01*
X157967932Y-103706842D01*
X157855990Y-103436589D01*
X157693475Y-103193368D01*
X157486632Y-102986525D01*
X157312240Y-102870000D01*
X157486632Y-102753475D01*
X157693475Y-102546632D01*
X157855990Y-102303411D01*
X157967932Y-102033158D01*
X158025000Y-101746260D01*
X158025000Y-101453740D01*
X157967932Y-101166842D01*
X157855990Y-100896589D01*
X157693475Y-100653368D01*
X157486632Y-100446525D01*
X157312240Y-100330000D01*
X157486632Y-100213475D01*
X157693475Y-100006632D01*
X157855990Y-99763411D01*
X157967932Y-99493158D01*
X158025000Y-99206260D01*
X158025000Y-98913740D01*
X157967932Y-98626842D01*
X157855990Y-98356589D01*
X157693475Y-98113368D01*
X157486632Y-97906525D01*
X157312240Y-97790000D01*
X157486632Y-97673475D01*
X157693475Y-97466632D01*
X157855990Y-97223411D01*
X157967932Y-96953158D01*
X158025000Y-96666260D01*
X158025000Y-96373740D01*
X157967932Y-96086842D01*
X157855990Y-95816589D01*
X157693475Y-95573368D01*
X157486632Y-95366525D01*
X157312240Y-95250000D01*
X157486632Y-95133475D01*
X157693475Y-94926632D01*
X157855990Y-94683411D01*
X157967932Y-94413158D01*
X158025000Y-94126260D01*
X158025000Y-93833740D01*
X157967932Y-93546842D01*
X157855990Y-93276589D01*
X157693475Y-93033368D01*
X157561620Y-92901513D01*
X157634180Y-92879502D01*
X157744494Y-92820537D01*
X157841185Y-92741185D01*
X157920537Y-92644494D01*
X157979502Y-92534180D01*
X158015812Y-92414482D01*
X158028072Y-92290000D01*
X158025000Y-91725750D01*
X157866250Y-91567000D01*
X156667000Y-91567000D01*
X156667000Y-91587000D01*
X156413000Y-91587000D01*
X156413000Y-91567000D01*
X156393000Y-91567000D01*
X156393000Y-91313000D01*
X156413000Y-91313000D01*
X156413000Y-91293000D01*
X156667000Y-91293000D01*
X156667000Y-91313000D01*
X157866250Y-91313000D01*
X158025000Y-91154250D01*
X158026221Y-90930000D01*
X160086199Y-90930000D01*
X163175099Y-94018900D01*
X163008549Y-94052029D01*
X162733747Y-94165856D01*
X162486431Y-94331107D01*
X162276107Y-94541431D01*
X162110856Y-94788747D01*
X161997029Y-95063549D01*
X161939000Y-95355278D01*
X161939000Y-95652722D01*
X161986530Y-95891668D01*
X161296668Y-96581530D01*
X161057722Y-96534000D01*
X160760278Y-96534000D01*
X160468549Y-96592029D01*
X160193747Y-96705856D01*
X159946431Y-96871107D01*
X159736107Y-97081431D01*
X159570856Y-97328747D01*
X159457029Y-97603549D01*
X159399000Y-97895278D01*
X159399000Y-98192722D01*
X159457029Y-98484451D01*
X159570856Y-98759253D01*
X159736107Y-99006569D01*
X159946431Y-99216893D01*
X160149000Y-99352245D01*
X160149001Y-103086668D01*
X160145324Y-103124000D01*
X160159998Y-103272985D01*
X160203454Y-103416246D01*
X160274026Y-103548276D01*
X160345201Y-103635002D01*
X160369000Y-103664001D01*
X160397998Y-103687799D01*
X162812312Y-106102114D01*
X162776000Y-106284665D01*
X162776000Y-106567335D01*
X162831147Y-106844574D01*
X162939320Y-107105727D01*
X163096363Y-107340759D01*
X163296241Y-107540637D01*
X163531273Y-107697680D01*
X163792426Y-107805853D01*
X164069665Y-107861000D01*
X164352335Y-107861000D01*
X164629574Y-107805853D01*
X164890727Y-107697680D01*
X165125759Y-107540637D01*
X165325637Y-107340759D01*
X165482680Y-107105727D01*
X165590853Y-106844574D01*
X165646000Y-106567335D01*
X165646000Y-106284665D01*
X165590853Y-106007426D01*
X165482680Y-105746273D01*
X165325637Y-105511241D01*
X165125759Y-105311363D01*
X164890727Y-105154320D01*
X164629574Y-105046147D01*
X164352335Y-104991000D01*
X164069665Y-104991000D01*
X163887114Y-105027312D01*
X161669000Y-102809199D01*
X161669000Y-100435278D01*
X161939000Y-100435278D01*
X161939000Y-100732722D01*
X161997029Y-101024451D01*
X162110856Y-101299253D01*
X162276107Y-101546569D01*
X162486431Y-101756893D01*
X162733747Y-101922144D01*
X163008549Y-102035971D01*
X163300278Y-102094000D01*
X163597722Y-102094000D01*
X163889451Y-102035971D01*
X164164253Y-101922144D01*
X164411569Y-101756893D01*
X164621893Y-101546569D01*
X164787144Y-101299253D01*
X164900971Y-101024451D01*
X164959000Y-100732722D01*
X164959000Y-100435278D01*
X164900971Y-100143549D01*
X164787144Y-99868747D01*
X164621893Y-99621431D01*
X164411569Y-99411107D01*
X164164253Y-99245856D01*
X163889451Y-99132029D01*
X163597722Y-99074000D01*
X163300278Y-99074000D01*
X163008549Y-99132029D01*
X162733747Y-99245856D01*
X162486431Y-99411107D01*
X162276107Y-99621431D01*
X162110856Y-99868747D01*
X161997029Y-100143549D01*
X161939000Y-100435278D01*
X161669000Y-100435278D01*
X161669000Y-99352245D01*
X161871569Y-99216893D01*
X162081893Y-99006569D01*
X162247144Y-98759253D01*
X162360971Y-98484451D01*
X162419000Y-98192722D01*
X162419000Y-97895278D01*
X162371470Y-97656332D01*
X163061332Y-96966470D01*
X163300278Y-97014000D01*
X163597722Y-97014000D01*
X163889451Y-96955971D01*
X164164253Y-96842144D01*
X164411569Y-96676893D01*
X164621893Y-96466569D01*
X164787144Y-96219253D01*
X164900971Y-95944451D01*
X164934100Y-95777902D01*
X168146312Y-98990114D01*
X168110000Y-99172665D01*
X168110000Y-99455335D01*
X168165147Y-99732574D01*
X168273320Y-99993727D01*
X168430363Y-100228759D01*
X168630241Y-100428637D01*
X168862759Y-100584000D01*
X168630241Y-100739363D01*
X168430363Y-100939241D01*
X168273320Y-101174273D01*
X168165147Y-101435426D01*
X168110000Y-101712665D01*
X168110000Y-101995335D01*
X168165147Y-102272574D01*
X168273320Y-102533727D01*
X168430363Y-102768759D01*
X168630241Y-102968637D01*
X168865273Y-103125680D01*
X169126426Y-103233853D01*
X169403665Y-103289000D01*
X169686335Y-103289000D01*
X169963574Y-103233853D01*
X170224727Y-103125680D01*
X170459759Y-102968637D01*
X170659637Y-102768759D01*
X170816680Y-102533727D01*
X170924853Y-102272574D01*
X170980000Y-101995335D01*
X170980000Y-101712665D01*
X170924853Y-101435426D01*
X170816680Y-101174273D01*
X170659637Y-100939241D01*
X170459759Y-100739363D01*
X170227241Y-100584000D01*
X170459759Y-100428637D01*
X170659637Y-100228759D01*
X170816680Y-99993727D01*
X170924853Y-99732574D01*
X170980000Y-99455335D01*
X170980000Y-99172665D01*
X170924853Y-98895426D01*
X170816680Y-98634273D01*
X170659637Y-98399241D01*
X170459759Y-98199363D01*
X170227241Y-98044000D01*
X170459759Y-97888637D01*
X170659637Y-97688759D01*
X170816680Y-97453727D01*
X170924853Y-97192574D01*
X170980000Y-96915335D01*
X170980000Y-96632665D01*
X170924853Y-96355426D01*
X170816680Y-96094273D01*
X170659637Y-95859241D01*
X170461039Y-95660643D01*
X170469482Y-95659812D01*
X170589180Y-95623502D01*
X170699494Y-95564537D01*
X170796185Y-95485185D01*
X170875537Y-95388494D01*
X170934502Y-95278180D01*
X170970812Y-95158482D01*
X170983072Y-95034000D01*
X170980000Y-94519750D01*
X170821250Y-94361000D01*
X169672000Y-94361000D01*
X169672000Y-94381000D01*
X169418000Y-94381000D01*
X169418000Y-94361000D01*
X168268750Y-94361000D01*
X168110000Y-94519750D01*
X168106928Y-95034000D01*
X168119188Y-95158482D01*
X168155498Y-95278180D01*
X168214463Y-95388494D01*
X168293815Y-95485185D01*
X168390506Y-95564537D01*
X168500820Y-95623502D01*
X168620518Y-95659812D01*
X168628961Y-95660643D01*
X168430363Y-95859241D01*
X168273320Y-96094273D01*
X168165147Y-96355426D01*
X168110000Y-96632665D01*
X168110000Y-96804198D01*
X164739802Y-93434000D01*
X168106928Y-93434000D01*
X168110000Y-93948250D01*
X168268750Y-94107000D01*
X169418000Y-94107000D01*
X169418000Y-92957750D01*
X169672000Y-92957750D01*
X169672000Y-94107000D01*
X170821250Y-94107000D01*
X170980000Y-93948250D01*
X170983072Y-93434000D01*
X170970812Y-93309518D01*
X170934502Y-93189820D01*
X170875537Y-93079506D01*
X170796185Y-92982815D01*
X170699494Y-92903463D01*
X170589180Y-92844498D01*
X170469482Y-92808188D01*
X170345000Y-92795928D01*
X169830750Y-92799000D01*
X169672000Y-92957750D01*
X169418000Y-92957750D01*
X169259250Y-92799000D01*
X168745000Y-92795928D01*
X168620518Y-92808188D01*
X168500820Y-92844498D01*
X168390506Y-92903463D01*
X168293815Y-92982815D01*
X168214463Y-93079506D01*
X168155498Y-93189820D01*
X168119188Y-93309518D01*
X168106928Y-93434000D01*
X164739802Y-93434000D01*
X163484504Y-92178702D01*
X171271903Y-92178702D01*
X171343486Y-92422671D01*
X171598996Y-92543571D01*
X171873184Y-92612300D01*
X172155512Y-92626217D01*
X172435130Y-92584787D01*
X172701292Y-92489603D01*
X172826514Y-92422671D01*
X172898097Y-92178702D01*
X172085000Y-91365605D01*
X171271903Y-92178702D01*
X163484504Y-92178702D01*
X162562314Y-91256512D01*
X170644783Y-91256512D01*
X170686213Y-91536130D01*
X170781397Y-91802292D01*
X170848329Y-91927514D01*
X171092298Y-91999097D01*
X171905395Y-91186000D01*
X172264605Y-91186000D01*
X173077702Y-91999097D01*
X173321671Y-91927514D01*
X173335324Y-91898659D01*
X173470363Y-92100759D01*
X173670241Y-92300637D01*
X173905273Y-92457680D01*
X174166426Y-92565853D01*
X174443665Y-92621000D01*
X174726335Y-92621000D01*
X175003574Y-92565853D01*
X175264727Y-92457680D01*
X175499759Y-92300637D01*
X175699637Y-92100759D01*
X175856680Y-91865727D01*
X175964853Y-91604574D01*
X176020000Y-91327335D01*
X176020000Y-91044665D01*
X175964853Y-90767426D01*
X175856680Y-90506273D01*
X175699637Y-90271241D01*
X175499759Y-90071363D01*
X175264727Y-89914320D01*
X175003574Y-89806147D01*
X174726335Y-89751000D01*
X174443665Y-89751000D01*
X174166426Y-89806147D01*
X173905273Y-89914320D01*
X173670241Y-90071363D01*
X173470363Y-90271241D01*
X173336308Y-90471869D01*
X173321671Y-90444486D01*
X173077702Y-90372903D01*
X172264605Y-91186000D01*
X171905395Y-91186000D01*
X171092298Y-90372903D01*
X170848329Y-90444486D01*
X170727429Y-90699996D01*
X170658700Y-90974184D01*
X170644783Y-91256512D01*
X162562314Y-91256512D01*
X161499100Y-90193298D01*
X171271903Y-90193298D01*
X172085000Y-91006395D01*
X172898097Y-90193298D01*
X172826514Y-89949329D01*
X172571004Y-89828429D01*
X172296816Y-89759700D01*
X172014488Y-89745783D01*
X171734870Y-89787213D01*
X171468708Y-89882397D01*
X171343486Y-89949329D01*
X171271903Y-90193298D01*
X161499100Y-90193298D01*
X161059803Y-89754002D01*
X161059798Y-89753996D01*
X161031730Y-89725928D01*
X160953003Y-89629999D01*
X160837278Y-89535026D01*
X160705249Y-89464454D01*
X160561988Y-89420997D01*
X160450335Y-89410000D01*
X160413002Y-89406323D01*
X160375669Y-89410000D01*
X157936103Y-89410000D01*
X157967932Y-89333158D01*
X158025000Y-89046260D01*
X158025000Y-88753740D01*
X157967932Y-88466842D01*
X157855990Y-88196589D01*
X157693475Y-87953368D01*
X157486632Y-87746525D01*
X157312240Y-87630000D01*
X157486632Y-87513475D01*
X157693475Y-87306632D01*
X157855990Y-87063411D01*
X157967932Y-86793158D01*
X158025000Y-86506260D01*
X158025000Y-86213740D01*
X157967932Y-85926842D01*
X157855990Y-85656589D01*
X157693475Y-85413368D01*
X157486632Y-85206525D01*
X157312240Y-85090000D01*
X157486632Y-84973475D01*
X157693475Y-84766632D01*
X157855990Y-84523411D01*
X157967932Y-84253158D01*
X158025000Y-83966260D01*
X158025000Y-83673740D01*
X157967932Y-83386842D01*
X157855990Y-83116589D01*
X157693475Y-82873368D01*
X157486632Y-82666525D01*
X157312240Y-82550000D01*
X157486632Y-82433475D01*
X157693475Y-82226632D01*
X157855990Y-81983411D01*
X157967932Y-81713158D01*
X158025000Y-81426260D01*
X158025000Y-81133740D01*
X157967932Y-80846842D01*
X157875330Y-80623278D01*
X159399000Y-80623278D01*
X159399000Y-80920722D01*
X159457029Y-81212451D01*
X159570856Y-81487253D01*
X159736107Y-81734569D01*
X159946431Y-81944893D01*
X160149001Y-82080246D01*
X160149000Y-84798677D01*
X160145324Y-84836000D01*
X160149000Y-84873322D01*
X160149000Y-84873332D01*
X160159997Y-84984985D01*
X160177902Y-85044010D01*
X160203454Y-85128246D01*
X160274026Y-85260276D01*
X160313871Y-85308826D01*
X160368999Y-85376001D01*
X160398003Y-85399804D01*
X162812312Y-87814114D01*
X162776000Y-87996665D01*
X162776000Y-88279335D01*
X162831147Y-88556574D01*
X162939320Y-88817727D01*
X163096363Y-89052759D01*
X163296241Y-89252637D01*
X163531273Y-89409680D01*
X163792426Y-89517853D01*
X164069665Y-89573000D01*
X164352335Y-89573000D01*
X164629574Y-89517853D01*
X164890727Y-89409680D01*
X165125759Y-89252637D01*
X165325637Y-89052759D01*
X165482680Y-88817727D01*
X165590853Y-88556574D01*
X165646000Y-88279335D01*
X165646000Y-87996665D01*
X172936000Y-87996665D01*
X172936000Y-88279335D01*
X172991147Y-88556574D01*
X173099320Y-88817727D01*
X173256363Y-89052759D01*
X173456241Y-89252637D01*
X173691273Y-89409680D01*
X173952426Y-89517853D01*
X174229665Y-89573000D01*
X174512335Y-89573000D01*
X174789574Y-89517853D01*
X175050727Y-89409680D01*
X175285759Y-89252637D01*
X175485637Y-89052759D01*
X175589043Y-88898000D01*
X176619678Y-88898000D01*
X176657000Y-88901676D01*
X176694322Y-88898000D01*
X176694333Y-88898000D01*
X176805986Y-88887003D01*
X176949247Y-88843546D01*
X177081276Y-88772974D01*
X177197001Y-88678001D01*
X177220804Y-88648997D01*
X177603114Y-88266688D01*
X177785665Y-88303000D01*
X178068335Y-88303000D01*
X178345574Y-88247853D01*
X178606727Y-88139680D01*
X178841759Y-87982637D01*
X178963694Y-87860702D01*
X179613903Y-87860702D01*
X179685486Y-88104671D01*
X179940996Y-88225571D01*
X180215184Y-88294300D01*
X180497512Y-88308217D01*
X180777130Y-88266787D01*
X181043292Y-88171603D01*
X181168514Y-88104671D01*
X181240097Y-87860702D01*
X180427000Y-87047605D01*
X179613903Y-87860702D01*
X178963694Y-87860702D01*
X179041637Y-87782759D01*
X179175692Y-87582131D01*
X179190329Y-87609514D01*
X179434298Y-87681097D01*
X180247395Y-86868000D01*
X180606605Y-86868000D01*
X181419702Y-87681097D01*
X181663671Y-87609514D01*
X181784571Y-87354004D01*
X181853300Y-87079816D01*
X181867217Y-86797488D01*
X181825787Y-86517870D01*
X181730603Y-86251708D01*
X181663671Y-86126486D01*
X181419702Y-86054903D01*
X180606605Y-86868000D01*
X180247395Y-86868000D01*
X180233253Y-86853858D01*
X180412858Y-86674253D01*
X180427000Y-86688395D01*
X181240097Y-85875298D01*
X181168514Y-85631329D01*
X180913004Y-85510429D01*
X180775025Y-85475843D01*
X180885574Y-85453853D01*
X181146727Y-85345680D01*
X181381759Y-85188637D01*
X181581637Y-84988759D01*
X181738680Y-84753727D01*
X181846853Y-84492574D01*
X181902000Y-84215335D01*
X181902000Y-83932665D01*
X181846853Y-83655426D01*
X181738680Y-83394273D01*
X181581637Y-83159241D01*
X181381759Y-82959363D01*
X181146727Y-82802320D01*
X180997968Y-82740702D01*
X184733903Y-82740702D01*
X184805486Y-82984671D01*
X185060996Y-83105571D01*
X185335184Y-83174300D01*
X185617512Y-83188217D01*
X185897130Y-83146787D01*
X186163292Y-83051603D01*
X186288514Y-82984671D01*
X186360097Y-82740702D01*
X185547000Y-81927605D01*
X184733903Y-82740702D01*
X180997968Y-82740702D01*
X180885574Y-82694147D01*
X180608335Y-82639000D01*
X180325665Y-82639000D01*
X180048426Y-82694147D01*
X179787273Y-82802320D01*
X179619934Y-82914132D01*
X178563688Y-81857886D01*
X178571520Y-81818512D01*
X184106783Y-81818512D01*
X184148213Y-82098130D01*
X184243397Y-82364292D01*
X184310329Y-82489514D01*
X184554298Y-82561097D01*
X185367395Y-81748000D01*
X184554298Y-80934903D01*
X184310329Y-81006486D01*
X184189429Y-81261996D01*
X184120700Y-81536184D01*
X184106783Y-81818512D01*
X178571520Y-81818512D01*
X178600000Y-81675335D01*
X178600000Y-81392665D01*
X178544853Y-81115426D01*
X178436680Y-80854273D01*
X178279637Y-80619241D01*
X178079759Y-80419363D01*
X177847241Y-80264000D01*
X178079759Y-80108637D01*
X178279637Y-79908759D01*
X178436680Y-79673727D01*
X178544853Y-79412574D01*
X178600000Y-79135335D01*
X178600000Y-78852665D01*
X178563688Y-78670114D01*
X179401628Y-77832174D01*
X179422820Y-77843502D01*
X179542518Y-77879812D01*
X179667000Y-77892072D01*
X181267000Y-77892072D01*
X181391482Y-77879812D01*
X181511180Y-77843502D01*
X181621494Y-77784537D01*
X181718185Y-77705185D01*
X181797537Y-77608494D01*
X181856502Y-77498180D01*
X181892812Y-77378482D01*
X181905072Y-77254000D01*
X181905072Y-75654000D01*
X181892812Y-75529518D01*
X181856502Y-75409820D01*
X181797537Y-75299506D01*
X181718185Y-75202815D01*
X181621494Y-75123463D01*
X181511180Y-75064498D01*
X181391482Y-75028188D01*
X181267000Y-75015928D01*
X179667000Y-75015928D01*
X179542518Y-75028188D01*
X179422820Y-75064498D01*
X179312506Y-75123463D01*
X179215815Y-75202815D01*
X179136463Y-75299506D01*
X179077498Y-75409820D01*
X179041188Y-75529518D01*
X179028928Y-75654000D01*
X179028928Y-76055269D01*
X178600000Y-76484197D01*
X178600000Y-76312665D01*
X178544853Y-76035426D01*
X178436680Y-75774273D01*
X178279637Y-75539241D01*
X178079759Y-75339363D01*
X177844727Y-75182320D01*
X177583574Y-75074147D01*
X177306335Y-75019000D01*
X177023665Y-75019000D01*
X176746426Y-75074147D01*
X176485273Y-75182320D01*
X176250241Y-75339363D01*
X176050363Y-75539241D01*
X175893320Y-75774273D01*
X175785147Y-76035426D01*
X175730000Y-76312665D01*
X175730000Y-76595335D01*
X175785147Y-76872574D01*
X175893320Y-77133727D01*
X176050363Y-77368759D01*
X176250241Y-77568637D01*
X176482759Y-77724000D01*
X176250241Y-77879363D01*
X176050363Y-78079241D01*
X175893320Y-78314273D01*
X175785147Y-78575426D01*
X175730000Y-78852665D01*
X175730000Y-79135335D01*
X175785147Y-79412574D01*
X175893320Y-79673727D01*
X176050363Y-79908759D01*
X176250241Y-80108637D01*
X176482759Y-80264000D01*
X176250241Y-80419363D01*
X176050363Y-80619241D01*
X175893320Y-80854273D01*
X175785147Y-81115426D01*
X175730000Y-81392665D01*
X175730000Y-81675335D01*
X175785147Y-81952574D01*
X175893320Y-82213727D01*
X176050363Y-82448759D01*
X176250241Y-82648637D01*
X176482759Y-82804000D01*
X176250241Y-82959363D01*
X176050363Y-83159241D01*
X175893320Y-83394273D01*
X175785147Y-83655426D01*
X175730000Y-83932665D01*
X175730000Y-84215335D01*
X175785147Y-84492574D01*
X175893320Y-84753727D01*
X176050363Y-84988759D01*
X176250241Y-85188637D01*
X176485273Y-85345680D01*
X176746426Y-85453853D01*
X177023665Y-85509000D01*
X177306335Y-85509000D01*
X177583574Y-85453853D01*
X177844727Y-85345680D01*
X178079759Y-85188637D01*
X178279637Y-84988759D01*
X178436680Y-84753727D01*
X178544853Y-84492574D01*
X178600000Y-84215335D01*
X178600000Y-84043803D01*
X179011197Y-84455000D01*
X178033198Y-85433000D01*
X177785665Y-85433000D01*
X177508426Y-85488147D01*
X177247273Y-85596320D01*
X177012241Y-85753363D01*
X176812363Y-85953241D01*
X176655320Y-86188273D01*
X176547147Y-86449426D01*
X176492000Y-86726665D01*
X176492000Y-87009335D01*
X176528312Y-87191886D01*
X176342199Y-87378000D01*
X175589043Y-87378000D01*
X175485637Y-87223241D01*
X175285759Y-87023363D01*
X175050727Y-86866320D01*
X174789574Y-86758147D01*
X174512335Y-86703000D01*
X174229665Y-86703000D01*
X173952426Y-86758147D01*
X173691273Y-86866320D01*
X173456241Y-87023363D01*
X173256363Y-87223241D01*
X173099320Y-87458273D01*
X172991147Y-87719426D01*
X172936000Y-87996665D01*
X165646000Y-87996665D01*
X165590853Y-87719426D01*
X165482680Y-87458273D01*
X165325637Y-87223241D01*
X165125759Y-87023363D01*
X164890727Y-86866320D01*
X164629574Y-86758147D01*
X164352335Y-86703000D01*
X164069665Y-86703000D01*
X163887114Y-86739312D01*
X161669000Y-84521199D01*
X161669000Y-83163278D01*
X161939000Y-83163278D01*
X161939000Y-83460722D01*
X161997029Y-83752451D01*
X162110856Y-84027253D01*
X162276107Y-84274569D01*
X162486431Y-84484893D01*
X162733747Y-84650144D01*
X163008549Y-84763971D01*
X163300278Y-84822000D01*
X163597722Y-84822000D01*
X163889451Y-84763971D01*
X164164253Y-84650144D01*
X164411569Y-84484893D01*
X164621893Y-84274569D01*
X164787144Y-84027253D01*
X164900971Y-83752451D01*
X164959000Y-83460722D01*
X164959000Y-83163278D01*
X164900971Y-82871549D01*
X164787144Y-82596747D01*
X164621893Y-82349431D01*
X164411569Y-82139107D01*
X164164253Y-81973856D01*
X163889451Y-81860029D01*
X163597722Y-81802000D01*
X163300278Y-81802000D01*
X163008549Y-81860029D01*
X162733747Y-81973856D01*
X162486431Y-82139107D01*
X162276107Y-82349431D01*
X162110856Y-82596747D01*
X161997029Y-82871549D01*
X161939000Y-83163278D01*
X161669000Y-83163278D01*
X161669000Y-82080245D01*
X161871569Y-81944893D01*
X162081893Y-81734569D01*
X162247144Y-81487253D01*
X162360971Y-81212451D01*
X162419000Y-80920722D01*
X162419000Y-80623278D01*
X162371470Y-80384332D01*
X163061332Y-79694470D01*
X163300278Y-79742000D01*
X163597722Y-79742000D01*
X163889451Y-79683971D01*
X164164253Y-79570144D01*
X164411569Y-79404893D01*
X164621893Y-79194569D01*
X164787144Y-78947253D01*
X164900971Y-78672451D01*
X164959000Y-78380722D01*
X164959000Y-78083278D01*
X164900971Y-77791549D01*
X164787144Y-77516747D01*
X164621893Y-77269431D01*
X164411569Y-77059107D01*
X164164253Y-76893856D01*
X163889451Y-76780029D01*
X163597722Y-76722000D01*
X163300278Y-76722000D01*
X163008549Y-76780029D01*
X162733747Y-76893856D01*
X162486431Y-77059107D01*
X162276107Y-77269431D01*
X162110856Y-77516747D01*
X161997029Y-77791549D01*
X161939000Y-78083278D01*
X161939000Y-78380722D01*
X161986530Y-78619668D01*
X161296668Y-79309530D01*
X161057722Y-79262000D01*
X160760278Y-79262000D01*
X160468549Y-79320029D01*
X160193747Y-79433856D01*
X159946431Y-79599107D01*
X159736107Y-79809431D01*
X159570856Y-80056747D01*
X159457029Y-80331549D01*
X159399000Y-80623278D01*
X157875330Y-80623278D01*
X157855990Y-80576589D01*
X157693475Y-80333368D01*
X157486632Y-80126525D01*
X157312240Y-80010000D01*
X157486632Y-79893475D01*
X157693475Y-79686632D01*
X157855990Y-79443411D01*
X157967932Y-79173158D01*
X158025000Y-78886260D01*
X158025000Y-78593740D01*
X157967932Y-78306842D01*
X157855990Y-78036589D01*
X157693475Y-77793368D01*
X157486632Y-77586525D01*
X157312240Y-77470000D01*
X157486632Y-77353475D01*
X157693475Y-77146632D01*
X157855990Y-76903411D01*
X157967932Y-76633158D01*
X158025000Y-76346260D01*
X158025000Y-76053740D01*
X157967932Y-75766842D01*
X157855990Y-75496589D01*
X157693475Y-75253368D01*
X157486632Y-75046525D01*
X157312240Y-74930000D01*
X157486632Y-74813475D01*
X157693475Y-74606632D01*
X157855990Y-74363411D01*
X157967932Y-74093158D01*
X158025000Y-73806260D01*
X158025000Y-73513740D01*
X157967932Y-73226842D01*
X157855990Y-72956589D01*
X157693475Y-72713368D01*
X157486632Y-72506525D01*
X157312240Y-72390000D01*
X157486632Y-72273475D01*
X157693475Y-72066632D01*
X157855990Y-71823411D01*
X157967932Y-71553158D01*
X158025000Y-71266260D01*
X158025000Y-70973740D01*
X157967932Y-70686842D01*
X157855990Y-70416589D01*
X157693475Y-70173368D01*
X157561620Y-70041513D01*
X157634180Y-70019502D01*
X157744494Y-69960537D01*
X157841185Y-69881185D01*
X157920537Y-69784494D01*
X157979502Y-69674180D01*
X158015812Y-69554482D01*
X158028072Y-69430000D01*
X158025473Y-68952667D01*
X158025997Y-68957985D01*
X158054112Y-69050668D01*
X158069454Y-69101246D01*
X158140026Y-69233276D01*
X158179871Y-69281826D01*
X158234999Y-69349001D01*
X158264003Y-69372804D01*
X166626001Y-77734803D01*
X166626000Y-79337677D01*
X166622324Y-79375000D01*
X166626000Y-79412322D01*
X166626000Y-79412332D01*
X166636997Y-79523985D01*
X166659785Y-79599107D01*
X166680454Y-79667246D01*
X166751026Y-79799276D01*
X166778278Y-79832482D01*
X166845999Y-79915001D01*
X166875003Y-79938804D01*
X168146312Y-81210114D01*
X168110000Y-81392665D01*
X168110000Y-81675335D01*
X168165147Y-81952574D01*
X168273320Y-82213727D01*
X168430363Y-82448759D01*
X168630241Y-82648637D01*
X168862759Y-82804000D01*
X168630241Y-82959363D01*
X168430363Y-83159241D01*
X168273320Y-83394273D01*
X168165147Y-83655426D01*
X168110000Y-83932665D01*
X168110000Y-84215335D01*
X168165147Y-84492574D01*
X168273320Y-84753727D01*
X168430363Y-84988759D01*
X168630241Y-85188637D01*
X168865273Y-85345680D01*
X169126426Y-85453853D01*
X169403665Y-85509000D01*
X169686335Y-85509000D01*
X169963574Y-85453853D01*
X170224727Y-85345680D01*
X170459759Y-85188637D01*
X170659637Y-84988759D01*
X170816680Y-84753727D01*
X170924853Y-84492574D01*
X170980000Y-84215335D01*
X170980000Y-83932665D01*
X170924853Y-83655426D01*
X170816680Y-83394273D01*
X170659637Y-83159241D01*
X170459759Y-82959363D01*
X170227241Y-82804000D01*
X170459759Y-82648637D01*
X170659637Y-82448759D01*
X170816680Y-82213727D01*
X170924853Y-81952574D01*
X170980000Y-81675335D01*
X170980000Y-81392665D01*
X170924853Y-81115426D01*
X170816680Y-80854273D01*
X170659637Y-80619241D01*
X170459759Y-80419363D01*
X170227241Y-80264000D01*
X170459759Y-80108637D01*
X170659637Y-79908759D01*
X170816680Y-79673727D01*
X170924853Y-79412574D01*
X170980000Y-79135335D01*
X170980000Y-78852665D01*
X170924853Y-78575426D01*
X170816680Y-78314273D01*
X170659637Y-78079241D01*
X170461039Y-77880643D01*
X170469482Y-77879812D01*
X170589180Y-77843502D01*
X170699494Y-77784537D01*
X170796185Y-77705185D01*
X170875537Y-77608494D01*
X170934502Y-77498180D01*
X170970812Y-77378482D01*
X170983072Y-77254000D01*
X170980000Y-76739750D01*
X170821250Y-76581000D01*
X169672000Y-76581000D01*
X169672000Y-76601000D01*
X169418000Y-76601000D01*
X169418000Y-76581000D01*
X168268750Y-76581000D01*
X168110000Y-76739750D01*
X168107371Y-77179920D01*
X168091546Y-77127753D01*
X168070818Y-77088974D01*
X168020974Y-76995723D01*
X167949799Y-76908997D01*
X167926001Y-76879999D01*
X167897003Y-76856201D01*
X166694802Y-75654000D01*
X168106928Y-75654000D01*
X168110000Y-76168250D01*
X168268750Y-76327000D01*
X169418000Y-76327000D01*
X169418000Y-75177750D01*
X169672000Y-75177750D01*
X169672000Y-76327000D01*
X170821250Y-76327000D01*
X170980000Y-76168250D01*
X170983072Y-75654000D01*
X170970812Y-75529518D01*
X170934502Y-75409820D01*
X170875537Y-75299506D01*
X170796185Y-75202815D01*
X170699494Y-75123463D01*
X170589180Y-75064498D01*
X170469482Y-75028188D01*
X170345000Y-75015928D01*
X169830750Y-75019000D01*
X169672000Y-75177750D01*
X169418000Y-75177750D01*
X169259250Y-75019000D01*
X168745000Y-75015928D01*
X168620518Y-75028188D01*
X168500820Y-75064498D01*
X168390506Y-75123463D01*
X168293815Y-75202815D01*
X168214463Y-75299506D01*
X168155498Y-75409820D01*
X168119188Y-75529518D01*
X168106928Y-75654000D01*
X166694802Y-75654000D01*
X165439504Y-74398702D01*
X171311903Y-74398702D01*
X171383486Y-74642671D01*
X171638996Y-74763571D01*
X171913184Y-74832300D01*
X172195512Y-74846217D01*
X172475130Y-74804787D01*
X172741292Y-74709603D01*
X172866514Y-74642671D01*
X172938097Y-74398702D01*
X172125000Y-73585605D01*
X171311903Y-74398702D01*
X165439504Y-74398702D01*
X164517314Y-73476512D01*
X170684783Y-73476512D01*
X170726213Y-73756130D01*
X170821397Y-74022292D01*
X170888329Y-74147514D01*
X171132298Y-74219097D01*
X171945395Y-73406000D01*
X172304605Y-73406000D01*
X173117702Y-74219097D01*
X173361671Y-74147514D01*
X173375324Y-74118659D01*
X173510363Y-74320759D01*
X173710241Y-74520637D01*
X173945273Y-74677680D01*
X174206426Y-74785853D01*
X174483665Y-74841000D01*
X174766335Y-74841000D01*
X175043574Y-74785853D01*
X175304727Y-74677680D01*
X175539759Y-74520637D01*
X175739637Y-74320759D01*
X175896680Y-74085727D01*
X176004853Y-73824574D01*
X176060000Y-73547335D01*
X176060000Y-73264665D01*
X176004853Y-72987426D01*
X175896680Y-72726273D01*
X175739637Y-72491241D01*
X175539759Y-72291363D01*
X175304727Y-72134320D01*
X175043574Y-72026147D01*
X174766335Y-71971000D01*
X174483665Y-71971000D01*
X174206426Y-72026147D01*
X173945273Y-72134320D01*
X173710241Y-72291363D01*
X173510363Y-72491241D01*
X173376308Y-72691869D01*
X173361671Y-72664486D01*
X173117702Y-72592903D01*
X172304605Y-73406000D01*
X171945395Y-73406000D01*
X171132298Y-72592903D01*
X170888329Y-72664486D01*
X170767429Y-72919996D01*
X170698700Y-73194184D01*
X170684783Y-73476512D01*
X164517314Y-73476512D01*
X163454100Y-72413298D01*
X171311903Y-72413298D01*
X172125000Y-73226395D01*
X172938097Y-72413298D01*
X172866514Y-72169329D01*
X172611004Y-72048429D01*
X172336816Y-71979700D01*
X172054488Y-71965783D01*
X171774870Y-72007213D01*
X171508708Y-72102397D01*
X171383486Y-72169329D01*
X171311903Y-72413298D01*
X163454100Y-72413298D01*
X160477841Y-69437039D01*
X161930096Y-69437039D01*
X161970754Y-69571087D01*
X162090963Y-69825420D01*
X162258481Y-70051414D01*
X162466869Y-70240385D01*
X162708119Y-70385070D01*
X162972960Y-70479909D01*
X163195000Y-70358624D01*
X163195000Y-69215000D01*
X163449000Y-69215000D01*
X163449000Y-70358624D01*
X163671040Y-70479909D01*
X163935881Y-70385070D01*
X164177131Y-70240385D01*
X164385519Y-70051414D01*
X164553037Y-69825420D01*
X164673246Y-69571087D01*
X164713904Y-69437039D01*
X164591915Y-69215000D01*
X163449000Y-69215000D01*
X163195000Y-69215000D01*
X162052085Y-69215000D01*
X161930096Y-69437039D01*
X160477841Y-69437039D01*
X159535000Y-68494199D01*
X159535000Y-68070000D01*
X162318676Y-68070000D01*
X162258481Y-68124586D01*
X162090963Y-68350580D01*
X161970754Y-68604913D01*
X161930096Y-68738961D01*
X162052085Y-68961000D01*
X163195000Y-68961000D01*
X163195000Y-68941000D01*
X163449000Y-68941000D01*
X163449000Y-68961000D01*
X164591915Y-68961000D01*
X164713904Y-68738961D01*
X164673246Y-68604913D01*
X164553037Y-68350580D01*
X164385519Y-68124586D01*
X164325324Y-68070000D01*
X168999678Y-68070000D01*
X169037000Y-68073676D01*
X169074322Y-68070000D01*
X169074333Y-68070000D01*
X169185986Y-68059003D01*
X169329247Y-68015546D01*
X169461276Y-67944974D01*
X169577001Y-67850001D01*
X169600804Y-67820997D01*
X172060682Y-65361120D01*
X172102147Y-65569574D01*
X172210320Y-65830727D01*
X172367363Y-66065759D01*
X172567241Y-66265637D01*
X172722000Y-66369044D01*
X172722001Y-67869956D01*
X172567241Y-67973363D01*
X172367363Y-68173241D01*
X172210320Y-68408273D01*
X172102147Y-68669426D01*
X172047000Y-68946665D01*
X172047000Y-69229335D01*
X172102147Y-69506574D01*
X172210320Y-69767727D01*
X172367363Y-70002759D01*
X172567241Y-70202637D01*
X172802273Y-70359680D01*
X173063426Y-70467853D01*
X173340665Y-70523000D01*
X173623335Y-70523000D01*
X173900574Y-70467853D01*
X174161727Y-70359680D01*
X174396759Y-70202637D01*
X174596637Y-70002759D01*
X174700043Y-69848000D01*
X183442962Y-69848000D01*
X183468498Y-69932180D01*
X183527463Y-70042494D01*
X183606815Y-70139185D01*
X183703506Y-70218537D01*
X183813820Y-70277502D01*
X183933518Y-70313812D01*
X184058000Y-70326072D01*
X185258000Y-70326072D01*
X185382482Y-70313812D01*
X185398000Y-70309105D01*
X185398001Y-72328668D01*
X185394324Y-72366000D01*
X185398001Y-72403333D01*
X185401218Y-72435990D01*
X185408998Y-72514985D01*
X185452454Y-72658246D01*
X185523026Y-72790276D01*
X185594201Y-72877002D01*
X185618000Y-72906001D01*
X185646998Y-72929799D01*
X187961928Y-75244730D01*
X187961928Y-78758000D01*
X187992442Y-79067817D01*
X188082813Y-79365729D01*
X188229566Y-79640286D01*
X188427064Y-79880936D01*
X188667714Y-80078434D01*
X188942271Y-80225187D01*
X189240183Y-80315558D01*
X189550000Y-80346072D01*
X189740000Y-80346072D01*
X189740001Y-86023928D01*
X189550000Y-86023928D01*
X189240183Y-86054442D01*
X188942271Y-86144813D01*
X188667714Y-86291566D01*
X188466000Y-86457110D01*
X188466000Y-81444322D01*
X188469676Y-81406999D01*
X188466000Y-81369676D01*
X188466000Y-81369667D01*
X188455003Y-81258014D01*
X188411546Y-81114753D01*
X188362501Y-81022997D01*
X188340974Y-80982723D01*
X188269799Y-80895997D01*
X188246001Y-80866999D01*
X188217004Y-80843202D01*
X186945688Y-79571886D01*
X186982000Y-79389335D01*
X186982000Y-79106665D01*
X186926853Y-78829426D01*
X186818680Y-78568273D01*
X186661637Y-78333241D01*
X186461759Y-78133363D01*
X186226727Y-77976320D01*
X185965574Y-77868147D01*
X185688335Y-77813000D01*
X185405665Y-77813000D01*
X185128426Y-77868147D01*
X184867273Y-77976320D01*
X184632241Y-78133363D01*
X184432363Y-78333241D01*
X184275320Y-78568273D01*
X184167147Y-78829426D01*
X184112000Y-79106665D01*
X184112000Y-79389335D01*
X184167147Y-79666574D01*
X184275320Y-79927727D01*
X184432363Y-80162759D01*
X184632241Y-80362637D01*
X184832869Y-80496692D01*
X184805486Y-80511329D01*
X184733903Y-80755298D01*
X185547000Y-81568395D01*
X185561143Y-81554253D01*
X185740748Y-81733858D01*
X185726605Y-81748000D01*
X186539702Y-82561097D01*
X186783671Y-82489514D01*
X186904571Y-82234004D01*
X186946000Y-82068727D01*
X186946001Y-86570047D01*
X186945680Y-86569273D01*
X186788637Y-86334241D01*
X186588759Y-86134363D01*
X186353727Y-85977320D01*
X186092574Y-85869147D01*
X185815335Y-85814000D01*
X185532665Y-85814000D01*
X185255426Y-85869147D01*
X184994273Y-85977320D01*
X184759241Y-86134363D01*
X184559363Y-86334241D01*
X184402320Y-86569273D01*
X184294147Y-86830426D01*
X184239000Y-87107665D01*
X184239000Y-87390335D01*
X184275312Y-87572886D01*
X181988003Y-89860196D01*
X181958999Y-89883999D01*
X181906680Y-89947750D01*
X181864026Y-89999724D01*
X181832095Y-90059463D01*
X181793454Y-90131754D01*
X181749997Y-90275015D01*
X181739000Y-90386668D01*
X181739000Y-90386678D01*
X181735324Y-90424000D01*
X181739000Y-90461322D01*
X181739000Y-93008179D01*
X181718185Y-92982815D01*
X181621494Y-92903463D01*
X181511180Y-92844498D01*
X181391482Y-92808188D01*
X181267000Y-92795928D01*
X179667000Y-92795928D01*
X179542518Y-92808188D01*
X179422820Y-92844498D01*
X179312506Y-92903463D01*
X179215815Y-92982815D01*
X179136463Y-93079506D01*
X179077498Y-93189820D01*
X179041188Y-93309518D01*
X179028928Y-93434000D01*
X179028928Y-93835269D01*
X178600000Y-94264197D01*
X178600000Y-94092665D01*
X178544853Y-93815426D01*
X178436680Y-93554273D01*
X178279637Y-93319241D01*
X178079759Y-93119363D01*
X177844727Y-92962320D01*
X177583574Y-92854147D01*
X177306335Y-92799000D01*
X177023665Y-92799000D01*
X176746426Y-92854147D01*
X176485273Y-92962320D01*
X176250241Y-93119363D01*
X176050363Y-93319241D01*
X175893320Y-93554273D01*
X175785147Y-93815426D01*
X175730000Y-94092665D01*
X175730000Y-94375335D01*
X175785147Y-94652574D01*
X175893320Y-94913727D01*
X176050363Y-95148759D01*
X176250241Y-95348637D01*
X176482759Y-95504000D01*
X176250241Y-95659363D01*
X176050363Y-95859241D01*
X175893320Y-96094273D01*
X175785147Y-96355426D01*
X175730000Y-96632665D01*
X175730000Y-96915335D01*
X175785147Y-97192574D01*
X175893320Y-97453727D01*
X176050363Y-97688759D01*
X176250241Y-97888637D01*
X176482759Y-98044000D01*
X176250241Y-98199363D01*
X176050363Y-98399241D01*
X175893320Y-98634273D01*
X175785147Y-98895426D01*
X175730000Y-99172665D01*
X175730000Y-99455335D01*
X175785147Y-99732574D01*
X175893320Y-99993727D01*
X176050363Y-100228759D01*
X176250241Y-100428637D01*
X176482759Y-100584000D01*
X176250241Y-100739363D01*
X176050363Y-100939241D01*
X175893320Y-101174273D01*
X175785147Y-101435426D01*
X175730000Y-101712665D01*
X175730000Y-101995335D01*
X175785147Y-102272574D01*
X175893320Y-102533727D01*
X176050363Y-102768759D01*
X176250241Y-102968637D01*
X176485273Y-103125680D01*
X176746426Y-103233853D01*
X177023665Y-103289000D01*
X177306335Y-103289000D01*
X177583574Y-103233853D01*
X177844727Y-103125680D01*
X178079759Y-102968637D01*
X178279637Y-102768759D01*
X178436680Y-102533727D01*
X178544853Y-102272574D01*
X178600000Y-101995335D01*
X178600000Y-101712665D01*
X178544853Y-101435426D01*
X178436680Y-101174273D01*
X178279637Y-100939241D01*
X178079759Y-100739363D01*
X177847241Y-100584000D01*
X178012066Y-100473868D01*
X179068312Y-101530114D01*
X179032000Y-101712665D01*
X179032000Y-101995335D01*
X179068312Y-102177886D01*
X177923998Y-103322201D01*
X177895000Y-103345999D01*
X177871202Y-103374997D01*
X177871201Y-103374998D01*
X177800026Y-103461724D01*
X177729454Y-103593754D01*
X177706251Y-103670247D01*
X177695151Y-103706842D01*
X177685998Y-103737015D01*
X177671324Y-103886000D01*
X177675001Y-103923332D01*
X177675001Y-104191956D01*
X177520241Y-104295363D01*
X177320363Y-104495241D01*
X177163320Y-104730273D01*
X177055147Y-104991426D01*
X177000000Y-105268665D01*
X177000000Y-105551335D01*
X177022809Y-105666000D01*
X175589043Y-105666000D01*
X175485637Y-105511241D01*
X175285759Y-105311363D01*
X175050727Y-105154320D01*
X174789574Y-105046147D01*
X174512335Y-104991000D01*
X174229665Y-104991000D01*
X173952426Y-105046147D01*
X173691273Y-105154320D01*
X173456241Y-105311363D01*
X173256363Y-105511241D01*
X173099320Y-105746273D01*
X172991147Y-106007426D01*
X172936000Y-106284665D01*
X172936000Y-106567335D01*
X172991147Y-106844574D01*
X173099320Y-107105727D01*
X173256363Y-107340759D01*
X173456241Y-107540637D01*
X173691273Y-107697680D01*
X173952426Y-107805853D01*
X174229665Y-107861000D01*
X174512335Y-107861000D01*
X174789574Y-107805853D01*
X175050727Y-107697680D01*
X175285759Y-107540637D01*
X175485637Y-107340759D01*
X175589043Y-107186000D01*
X177381678Y-107186000D01*
X177419000Y-107189676D01*
X177456322Y-107186000D01*
X177456333Y-107186000D01*
X177567986Y-107175003D01*
X177711247Y-107131546D01*
X177843276Y-107060974D01*
X177959001Y-106966001D01*
X177982804Y-106936998D01*
X178111113Y-106808688D01*
X178293665Y-106845000D01*
X178576335Y-106845000D01*
X178853574Y-106789853D01*
X179114727Y-106681680D01*
X179349759Y-106524637D01*
X179471694Y-106402702D01*
X180121903Y-106402702D01*
X180193486Y-106646671D01*
X180448996Y-106767571D01*
X180723184Y-106836300D01*
X181005512Y-106850217D01*
X181285130Y-106808787D01*
X181551292Y-106713603D01*
X181676514Y-106646671D01*
X181748097Y-106402702D01*
X180935000Y-105589605D01*
X180121903Y-106402702D01*
X179471694Y-106402702D01*
X179549637Y-106324759D01*
X179683692Y-106124131D01*
X179698329Y-106151514D01*
X179942298Y-106223097D01*
X180755395Y-105410000D01*
X181114605Y-105410000D01*
X181927702Y-106223097D01*
X182171671Y-106151514D01*
X182292571Y-105896004D01*
X182361300Y-105621816D01*
X182375217Y-105339488D01*
X182333787Y-105059870D01*
X182238603Y-104793708D01*
X182171671Y-104668486D01*
X181927702Y-104596903D01*
X181114605Y-105410000D01*
X180755395Y-105410000D01*
X179942298Y-104596903D01*
X179698329Y-104668486D01*
X179684676Y-104697341D01*
X179549637Y-104495241D01*
X179471694Y-104417298D01*
X180121903Y-104417298D01*
X180935000Y-105230395D01*
X181748097Y-104417298D01*
X181676514Y-104173329D01*
X181421004Y-104052429D01*
X181146816Y-103983700D01*
X180864488Y-103969783D01*
X180584870Y-104011213D01*
X180318708Y-104106397D01*
X180193486Y-104173329D01*
X180121903Y-104417298D01*
X179471694Y-104417298D01*
X179349759Y-104295363D01*
X179200302Y-104195499D01*
X180143114Y-103252688D01*
X180325665Y-103289000D01*
X180608335Y-103289000D01*
X180885574Y-103233853D01*
X181146727Y-103125680D01*
X181381759Y-102968637D01*
X181581637Y-102768759D01*
X181738680Y-102533727D01*
X181846853Y-102272574D01*
X181902000Y-101995335D01*
X181902000Y-101712665D01*
X181846853Y-101435426D01*
X181738680Y-101174273D01*
X181581637Y-100939241D01*
X181381759Y-100739363D01*
X181146727Y-100582320D01*
X180885574Y-100474147D01*
X180608335Y-100419000D01*
X180325665Y-100419000D01*
X180143114Y-100455312D01*
X178517718Y-98829917D01*
X178436680Y-98634273D01*
X178279637Y-98399241D01*
X178079759Y-98199363D01*
X177847241Y-98044000D01*
X178079759Y-97888637D01*
X178279637Y-97688759D01*
X178436680Y-97453727D01*
X178544853Y-97192574D01*
X178600000Y-96915335D01*
X178600000Y-96632665D01*
X178563688Y-96450114D01*
X179401628Y-95612174D01*
X179422820Y-95623502D01*
X179542518Y-95659812D01*
X179667000Y-95672072D01*
X181267000Y-95672072D01*
X181391482Y-95659812D01*
X181511180Y-95623502D01*
X181621494Y-95564537D01*
X181718185Y-95485185D01*
X181739001Y-95459821D01*
X181739001Y-97086288D01*
X181695063Y-97130226D01*
X181581795Y-97299744D01*
X181503774Y-97488102D01*
X181464000Y-97688061D01*
X181464000Y-97891939D01*
X181503774Y-98091898D01*
X181581795Y-98280256D01*
X181695063Y-98449774D01*
X181839226Y-98593937D01*
X182008744Y-98707205D01*
X182197102Y-98785226D01*
X182397061Y-98825000D01*
X182464002Y-98825000D01*
X182464002Y-99821667D01*
X182460325Y-99858999D01*
X182474999Y-100007984D01*
X182518455Y-100151245D01*
X182589027Y-100283275D01*
X182660202Y-100370001D01*
X182684001Y-100399000D01*
X182712999Y-100422798D01*
X187327000Y-105036800D01*
X187327001Y-106985956D01*
X187172241Y-107089363D01*
X186972363Y-107289241D01*
X186815320Y-107524273D01*
X186707147Y-107785426D01*
X186652000Y-108062665D01*
X186652000Y-108345335D01*
X186707147Y-108622574D01*
X186815320Y-108883727D01*
X186972363Y-109118759D01*
X187172241Y-109318637D01*
X187204213Y-109340000D01*
X185413787Y-109340000D01*
X185445759Y-109318637D01*
X185645637Y-109118759D01*
X185802680Y-108883727D01*
X185910853Y-108622574D01*
X185966000Y-108345335D01*
X185966000Y-108062665D01*
X185910853Y-107785426D01*
X185802680Y-107524273D01*
X185645637Y-107289241D01*
X185445759Y-107089363D01*
X185210727Y-106932320D01*
X184949574Y-106824147D01*
X184672335Y-106769000D01*
X184389665Y-106769000D01*
X184112426Y-106824147D01*
X183851273Y-106932320D01*
X183616241Y-107089363D01*
X183416363Y-107289241D01*
X183259320Y-107524273D01*
X183151147Y-107785426D01*
X183096000Y-108062665D01*
X183096000Y-108345335D01*
X183151147Y-108622574D01*
X183259320Y-108883727D01*
X183416363Y-109118759D01*
X183616241Y-109318637D01*
X183648213Y-109340000D01*
X150660000Y-109340000D01*
X150660000Y-50660000D01*
X157728988Y-50660000D01*
X157582226Y-50758063D01*
G37*
X157582226Y-50758063D02*
X157538289Y-50802000D01*
X154469325Y-50802000D01*
X154432000Y-50798324D01*
X154394675Y-50802000D01*
X154394667Y-50802000D01*
X154283014Y-50812997D01*
X154139753Y-50856454D01*
X154007724Y-50927026D01*
X153891999Y-51021999D01*
X153868201Y-51050997D01*
X151126998Y-53792201D01*
X151098000Y-53815999D01*
X151074202Y-53844997D01*
X151074201Y-53844998D01*
X151003026Y-53931724D01*
X150932454Y-54063754D01*
X150918510Y-54109724D01*
X150888998Y-54207014D01*
X150881156Y-54286632D01*
X150874324Y-54356000D01*
X150878001Y-54393332D01*
X150878000Y-57620677D01*
X150874324Y-57658000D01*
X150878000Y-57695322D01*
X150878000Y-57695332D01*
X150888997Y-57806985D01*
X150921459Y-57914000D01*
X150932454Y-57950246D01*
X151003026Y-58082276D01*
X151025944Y-58110201D01*
X151097999Y-58198001D01*
X151127002Y-58221803D01*
X151836201Y-58931002D01*
X151859999Y-58960001D01*
X151975724Y-59054974D01*
X152107753Y-59125546D01*
X152251014Y-59169003D01*
X152362667Y-59180000D01*
X152362675Y-59180000D01*
X152400000Y-59183676D01*
X152437325Y-59180000D01*
X152721822Y-59180000D01*
X152819704Y-59326491D01*
X151126998Y-61019199D01*
X151098000Y-61042997D01*
X151074202Y-61071995D01*
X151074201Y-61071996D01*
X151003026Y-61158722D01*
X150932454Y-61290752D01*
X150925952Y-61312188D01*
X150888998Y-61434012D01*
X150881883Y-61506247D01*
X150874324Y-61582998D01*
X150878001Y-61620331D01*
X150878000Y-88239680D01*
X150874324Y-88277002D01*
X150878000Y-88314324D01*
X150878000Y-88314334D01*
X150888997Y-88425987D01*
X150930339Y-88562275D01*
X150932454Y-88569248D01*
X151003026Y-88701278D01*
X151003454Y-88701799D01*
X151097999Y-88817003D01*
X151127003Y-88840806D01*
X151189194Y-88902997D01*
X151212997Y-88932001D01*
X151308930Y-89010731D01*
X152824512Y-90526313D01*
X152684010Y-90736589D01*
X152572068Y-91006842D01*
X152515000Y-91293740D01*
X152515000Y-91586260D01*
X152572068Y-91873158D01*
X152684010Y-92143411D01*
X152846525Y-92386632D01*
X153053368Y-92593475D01*
X153227760Y-92710000D01*
X153053368Y-92826525D01*
X152846525Y-93033368D01*
X152684010Y-93276589D01*
X152572068Y-93546842D01*
X152515000Y-93833740D01*
X152515000Y-94126260D01*
X152572068Y-94413158D01*
X152684010Y-94683411D01*
X152846525Y-94926632D01*
X153053368Y-95133475D01*
X153227760Y-95250000D01*
X153053368Y-95366525D01*
X152846525Y-95573368D01*
X152684010Y-95816589D01*
X152572068Y-96086842D01*
X152515000Y-96373740D01*
X152515000Y-96666260D01*
X152572068Y-96953158D01*
X152684010Y-97223411D01*
X152846525Y-97466632D01*
X153053368Y-97673475D01*
X153227760Y-97790000D01*
X153053368Y-97906525D01*
X152846525Y-98113368D01*
X152684010Y-98356589D01*
X152572068Y-98626842D01*
X152515000Y-98913740D01*
X152515000Y-99206260D01*
X152572068Y-99493158D01*
X152684010Y-99763411D01*
X152846525Y-100006632D01*
X153053368Y-100213475D01*
X153227760Y-100330000D01*
X153053368Y-100446525D01*
X152846525Y-100653368D01*
X152684010Y-100896589D01*
X152572068Y-101166842D01*
X152515000Y-101453740D01*
X152515000Y-101746260D01*
X152572068Y-102033158D01*
X152684010Y-102303411D01*
X152846525Y-102546632D01*
X153053368Y-102753475D01*
X153227760Y-102870000D01*
X153053368Y-102986525D01*
X152846525Y-103193368D01*
X152684010Y-103436589D01*
X152572068Y-103706842D01*
X152515000Y-103993740D01*
X152515000Y-104286260D01*
X152572068Y-104573158D01*
X152684010Y-104843411D01*
X152846525Y-105086632D01*
X153053368Y-105293475D01*
X153296589Y-105455990D01*
X153566842Y-105567932D01*
X153853740Y-105625000D01*
X154146260Y-105625000D01*
X154433158Y-105567932D01*
X154703411Y-105455990D01*
X154946632Y-105293475D01*
X155153475Y-105086632D01*
X155270000Y-104912240D01*
X155386525Y-105086632D01*
X155593368Y-105293475D01*
X155836589Y-105455990D01*
X156106842Y-105567932D01*
X156393740Y-105625000D01*
X156686260Y-105625000D01*
X156973158Y-105567932D01*
X157243411Y-105455990D01*
X157486632Y-105293475D01*
X157693475Y-105086632D01*
X157855990Y-104843411D01*
X157967932Y-104573158D01*
X158025000Y-104286260D01*
X158025000Y-103993740D01*
X157967932Y-103706842D01*
X157855990Y-103436589D01*
X157693475Y-103193368D01*
X157486632Y-102986525D01*
X157312240Y-102870000D01*
X157486632Y-102753475D01*
X157693475Y-102546632D01*
X157855990Y-102303411D01*
X157967932Y-102033158D01*
X158025000Y-101746260D01*
X158025000Y-101453740D01*
X157967932Y-101166842D01*
X157855990Y-100896589D01*
X157693475Y-100653368D01*
X157486632Y-100446525D01*
X157312240Y-100330000D01*
X157486632Y-100213475D01*
X157693475Y-100006632D01*
X157855990Y-99763411D01*
X157967932Y-99493158D01*
X158025000Y-99206260D01*
X158025000Y-98913740D01*
X157967932Y-98626842D01*
X157855990Y-98356589D01*
X157693475Y-98113368D01*
X157486632Y-97906525D01*
X157312240Y-97790000D01*
X157486632Y-97673475D01*
X157693475Y-97466632D01*
X157855990Y-97223411D01*
X157967932Y-96953158D01*
X158025000Y-96666260D01*
X158025000Y-96373740D01*
X157967932Y-96086842D01*
X157855990Y-95816589D01*
X157693475Y-95573368D01*
X157486632Y-95366525D01*
X157312240Y-95250000D01*
X157486632Y-95133475D01*
X157693475Y-94926632D01*
X157855990Y-94683411D01*
X157967932Y-94413158D01*
X158025000Y-94126260D01*
X158025000Y-93833740D01*
X157967932Y-93546842D01*
X157855990Y-93276589D01*
X157693475Y-93033368D01*
X157561620Y-92901513D01*
X157634180Y-92879502D01*
X157744494Y-92820537D01*
X157841185Y-92741185D01*
X157920537Y-92644494D01*
X157979502Y-92534180D01*
X158015812Y-92414482D01*
X158028072Y-92290000D01*
X158025000Y-91725750D01*
X157866250Y-91567000D01*
X156667000Y-91567000D01*
X156667000Y-91587000D01*
X156413000Y-91587000D01*
X156413000Y-91567000D01*
X156393000Y-91567000D01*
X156393000Y-91313000D01*
X156413000Y-91313000D01*
X156413000Y-91293000D01*
X156667000Y-91293000D01*
X156667000Y-91313000D01*
X157866250Y-91313000D01*
X158025000Y-91154250D01*
X158026221Y-90930000D01*
X160086199Y-90930000D01*
X163175099Y-94018900D01*
X163008549Y-94052029D01*
X162733747Y-94165856D01*
X162486431Y-94331107D01*
X162276107Y-94541431D01*
X162110856Y-94788747D01*
X161997029Y-95063549D01*
X161939000Y-95355278D01*
X161939000Y-95652722D01*
X161986530Y-95891668D01*
X161296668Y-96581530D01*
X161057722Y-96534000D01*
X160760278Y-96534000D01*
X160468549Y-96592029D01*
X160193747Y-96705856D01*
X159946431Y-96871107D01*
X159736107Y-97081431D01*
X159570856Y-97328747D01*
X159457029Y-97603549D01*
X159399000Y-97895278D01*
X159399000Y-98192722D01*
X159457029Y-98484451D01*
X159570856Y-98759253D01*
X159736107Y-99006569D01*
X159946431Y-99216893D01*
X160149000Y-99352245D01*
X160149001Y-103086668D01*
X160145324Y-103124000D01*
X160159998Y-103272985D01*
X160203454Y-103416246D01*
X160274026Y-103548276D01*
X160345201Y-103635002D01*
X160369000Y-103664001D01*
X160397998Y-103687799D01*
X162812312Y-106102114D01*
X162776000Y-106284665D01*
X162776000Y-106567335D01*
X162831147Y-106844574D01*
X162939320Y-107105727D01*
X163096363Y-107340759D01*
X163296241Y-107540637D01*
X163531273Y-107697680D01*
X163792426Y-107805853D01*
X164069665Y-107861000D01*
X164352335Y-107861000D01*
X164629574Y-107805853D01*
X164890727Y-107697680D01*
X165125759Y-107540637D01*
X165325637Y-107340759D01*
X165482680Y-107105727D01*
X165590853Y-106844574D01*
X165646000Y-106567335D01*
X165646000Y-106284665D01*
X165590853Y-106007426D01*
X165482680Y-105746273D01*
X165325637Y-105511241D01*
X165125759Y-105311363D01*
X164890727Y-105154320D01*
X164629574Y-105046147D01*
X164352335Y-104991000D01*
X164069665Y-104991000D01*
X163887114Y-105027312D01*
X161669000Y-102809199D01*
X161669000Y-100435278D01*
X161939000Y-100435278D01*
X161939000Y-100732722D01*
X161997029Y-101024451D01*
X162110856Y-101299253D01*
X162276107Y-101546569D01*
X162486431Y-101756893D01*
X162733747Y-101922144D01*
X163008549Y-102035971D01*
X163300278Y-102094000D01*
X163597722Y-102094000D01*
X163889451Y-102035971D01*
X164164253Y-101922144D01*
X164411569Y-101756893D01*
X164621893Y-101546569D01*
X164787144Y-101299253D01*
X164900971Y-101024451D01*
X164959000Y-100732722D01*
X164959000Y-100435278D01*
X164900971Y-100143549D01*
X164787144Y-99868747D01*
X164621893Y-99621431D01*
X164411569Y-99411107D01*
X164164253Y-99245856D01*
X163889451Y-99132029D01*
X163597722Y-99074000D01*
X163300278Y-99074000D01*
X163008549Y-99132029D01*
X162733747Y-99245856D01*
X162486431Y-99411107D01*
X162276107Y-99621431D01*
X162110856Y-99868747D01*
X161997029Y-100143549D01*
X161939000Y-100435278D01*
X161669000Y-100435278D01*
X161669000Y-99352245D01*
X161871569Y-99216893D01*
X162081893Y-99006569D01*
X162247144Y-98759253D01*
X162360971Y-98484451D01*
X162419000Y-98192722D01*
X162419000Y-97895278D01*
X162371470Y-97656332D01*
X163061332Y-96966470D01*
X163300278Y-97014000D01*
X163597722Y-97014000D01*
X163889451Y-96955971D01*
X164164253Y-96842144D01*
X164411569Y-96676893D01*
X164621893Y-96466569D01*
X164787144Y-96219253D01*
X164900971Y-95944451D01*
X164934100Y-95777902D01*
X168146312Y-98990114D01*
X168110000Y-99172665D01*
X168110000Y-99455335D01*
X168165147Y-99732574D01*
X168273320Y-99993727D01*
X168430363Y-100228759D01*
X168630241Y-100428637D01*
X168862759Y-100584000D01*
X168630241Y-100739363D01*
X168430363Y-100939241D01*
X168273320Y-101174273D01*
X168165147Y-101435426D01*
X168110000Y-101712665D01*
X168110000Y-101995335D01*
X168165147Y-102272574D01*
X168273320Y-102533727D01*
X168430363Y-102768759D01*
X168630241Y-102968637D01*
X168865273Y-103125680D01*
X169126426Y-103233853D01*
X169403665Y-103289000D01*
X169686335Y-103289000D01*
X169963574Y-103233853D01*
X170224727Y-103125680D01*
X170459759Y-102968637D01*
X170659637Y-102768759D01*
X170816680Y-102533727D01*
X170924853Y-102272574D01*
X170980000Y-101995335D01*
X170980000Y-101712665D01*
X170924853Y-101435426D01*
X170816680Y-101174273D01*
X170659637Y-100939241D01*
X170459759Y-100739363D01*
X170227241Y-100584000D01*
X170459759Y-100428637D01*
X170659637Y-100228759D01*
X170816680Y-99993727D01*
X170924853Y-99732574D01*
X170980000Y-99455335D01*
X170980000Y-99172665D01*
X170924853Y-98895426D01*
X170816680Y-98634273D01*
X170659637Y-98399241D01*
X170459759Y-98199363D01*
X170227241Y-98044000D01*
X170459759Y-97888637D01*
X170659637Y-97688759D01*
X170816680Y-97453727D01*
X170924853Y-97192574D01*
X170980000Y-96915335D01*
X170980000Y-96632665D01*
X170924853Y-96355426D01*
X170816680Y-96094273D01*
X170659637Y-95859241D01*
X170461039Y-95660643D01*
X170469482Y-95659812D01*
X170589180Y-95623502D01*
X170699494Y-95564537D01*
X170796185Y-95485185D01*
X170875537Y-95388494D01*
X170934502Y-95278180D01*
X170970812Y-95158482D01*
X170983072Y-95034000D01*
X170980000Y-94519750D01*
X170821250Y-94361000D01*
X169672000Y-94361000D01*
X169672000Y-94381000D01*
X169418000Y-94381000D01*
X169418000Y-94361000D01*
X168268750Y-94361000D01*
X168110000Y-94519750D01*
X168106928Y-95034000D01*
X168119188Y-95158482D01*
X168155498Y-95278180D01*
X168214463Y-95388494D01*
X168293815Y-95485185D01*
X168390506Y-95564537D01*
X168500820Y-95623502D01*
X168620518Y-95659812D01*
X168628961Y-95660643D01*
X168430363Y-95859241D01*
X168273320Y-96094273D01*
X168165147Y-96355426D01*
X168110000Y-96632665D01*
X168110000Y-96804198D01*
X164739802Y-93434000D01*
X168106928Y-93434000D01*
X168110000Y-93948250D01*
X168268750Y-94107000D01*
X169418000Y-94107000D01*
X169418000Y-92957750D01*
X169672000Y-92957750D01*
X169672000Y-94107000D01*
X170821250Y-94107000D01*
X170980000Y-93948250D01*
X170983072Y-93434000D01*
X170970812Y-93309518D01*
X170934502Y-93189820D01*
X170875537Y-93079506D01*
X170796185Y-92982815D01*
X170699494Y-92903463D01*
X170589180Y-92844498D01*
X170469482Y-92808188D01*
X170345000Y-92795928D01*
X169830750Y-92799000D01*
X169672000Y-92957750D01*
X169418000Y-92957750D01*
X169259250Y-92799000D01*
X168745000Y-92795928D01*
X168620518Y-92808188D01*
X168500820Y-92844498D01*
X168390506Y-92903463D01*
X168293815Y-92982815D01*
X168214463Y-93079506D01*
X168155498Y-93189820D01*
X168119188Y-93309518D01*
X168106928Y-93434000D01*
X164739802Y-93434000D01*
X163484504Y-92178702D01*
X171271903Y-92178702D01*
X171343486Y-92422671D01*
X171598996Y-92543571D01*
X171873184Y-92612300D01*
X172155512Y-92626217D01*
X172435130Y-92584787D01*
X172701292Y-92489603D01*
X172826514Y-92422671D01*
X172898097Y-92178702D01*
X172085000Y-91365605D01*
X171271903Y-92178702D01*
X163484504Y-92178702D01*
X162562314Y-91256512D01*
X170644783Y-91256512D01*
X170686213Y-91536130D01*
X170781397Y-91802292D01*
X170848329Y-91927514D01*
X171092298Y-91999097D01*
X171905395Y-91186000D01*
X172264605Y-91186000D01*
X173077702Y-91999097D01*
X173321671Y-91927514D01*
X173335324Y-91898659D01*
X173470363Y-92100759D01*
X173670241Y-92300637D01*
X173905273Y-92457680D01*
X174166426Y-92565853D01*
X174443665Y-92621000D01*
X174726335Y-92621000D01*
X175003574Y-92565853D01*
X175264727Y-92457680D01*
X175499759Y-92300637D01*
X175699637Y-92100759D01*
X175856680Y-91865727D01*
X175964853Y-91604574D01*
X176020000Y-91327335D01*
X176020000Y-91044665D01*
X175964853Y-90767426D01*
X175856680Y-90506273D01*
X175699637Y-90271241D01*
X175499759Y-90071363D01*
X175264727Y-89914320D01*
X175003574Y-89806147D01*
X174726335Y-89751000D01*
X174443665Y-89751000D01*
X174166426Y-89806147D01*
X173905273Y-89914320D01*
X173670241Y-90071363D01*
X173470363Y-90271241D01*
X173336308Y-90471869D01*
X173321671Y-90444486D01*
X173077702Y-90372903D01*
X172264605Y-91186000D01*
X171905395Y-91186000D01*
X171092298Y-90372903D01*
X170848329Y-90444486D01*
X170727429Y-90699996D01*
X170658700Y-90974184D01*
X170644783Y-91256512D01*
X162562314Y-91256512D01*
X161499100Y-90193298D01*
X171271903Y-90193298D01*
X172085000Y-91006395D01*
X172898097Y-90193298D01*
X172826514Y-89949329D01*
X172571004Y-89828429D01*
X172296816Y-89759700D01*
X172014488Y-89745783D01*
X171734870Y-89787213D01*
X171468708Y-89882397D01*
X171343486Y-89949329D01*
X171271903Y-90193298D01*
X161499100Y-90193298D01*
X161059803Y-89754002D01*
X161059798Y-89753996D01*
X161031730Y-89725928D01*
X160953003Y-89629999D01*
X160837278Y-89535026D01*
X160705249Y-89464454D01*
X160561988Y-89420997D01*
X160450335Y-89410000D01*
X160413002Y-89406323D01*
X160375669Y-89410000D01*
X157936103Y-89410000D01*
X157967932Y-89333158D01*
X158025000Y-89046260D01*
X158025000Y-88753740D01*
X157967932Y-88466842D01*
X157855990Y-88196589D01*
X157693475Y-87953368D01*
X157486632Y-87746525D01*
X157312240Y-87630000D01*
X157486632Y-87513475D01*
X157693475Y-87306632D01*
X157855990Y-87063411D01*
X157967932Y-86793158D01*
X158025000Y-86506260D01*
X158025000Y-86213740D01*
X157967932Y-85926842D01*
X157855990Y-85656589D01*
X157693475Y-85413368D01*
X157486632Y-85206525D01*
X157312240Y-85090000D01*
X157486632Y-84973475D01*
X157693475Y-84766632D01*
X157855990Y-84523411D01*
X157967932Y-84253158D01*
X158025000Y-83966260D01*
X158025000Y-83673740D01*
X157967932Y-83386842D01*
X157855990Y-83116589D01*
X157693475Y-82873368D01*
X157486632Y-82666525D01*
X157312240Y-82550000D01*
X157486632Y-82433475D01*
X157693475Y-82226632D01*
X157855990Y-81983411D01*
X157967932Y-81713158D01*
X158025000Y-81426260D01*
X158025000Y-81133740D01*
X157967932Y-80846842D01*
X157875330Y-80623278D01*
X159399000Y-80623278D01*
X159399000Y-80920722D01*
X159457029Y-81212451D01*
X159570856Y-81487253D01*
X159736107Y-81734569D01*
X159946431Y-81944893D01*
X160149001Y-82080246D01*
X160149000Y-84798677D01*
X160145324Y-84836000D01*
X160149000Y-84873322D01*
X160149000Y-84873332D01*
X160159997Y-84984985D01*
X160177902Y-85044010D01*
X160203454Y-85128246D01*
X160274026Y-85260276D01*
X160313871Y-85308826D01*
X160368999Y-85376001D01*
X160398003Y-85399804D01*
X162812312Y-87814114D01*
X162776000Y-87996665D01*
X162776000Y-88279335D01*
X162831147Y-88556574D01*
X162939320Y-88817727D01*
X163096363Y-89052759D01*
X163296241Y-89252637D01*
X163531273Y-89409680D01*
X163792426Y-89517853D01*
X164069665Y-89573000D01*
X164352335Y-89573000D01*
X164629574Y-89517853D01*
X164890727Y-89409680D01*
X165125759Y-89252637D01*
X165325637Y-89052759D01*
X165482680Y-88817727D01*
X165590853Y-88556574D01*
X165646000Y-88279335D01*
X165646000Y-87996665D01*
X172936000Y-87996665D01*
X172936000Y-88279335D01*
X172991147Y-88556574D01*
X173099320Y-88817727D01*
X173256363Y-89052759D01*
X173456241Y-89252637D01*
X173691273Y-89409680D01*
X173952426Y-89517853D01*
X174229665Y-89573000D01*
X174512335Y-89573000D01*
X174789574Y-89517853D01*
X175050727Y-89409680D01*
X175285759Y-89252637D01*
X175485637Y-89052759D01*
X175589043Y-88898000D01*
X176619678Y-88898000D01*
X176657000Y-88901676D01*
X176694322Y-88898000D01*
X176694333Y-88898000D01*
X176805986Y-88887003D01*
X176949247Y-88843546D01*
X177081276Y-88772974D01*
X177197001Y-88678001D01*
X177220804Y-88648997D01*
X177603114Y-88266688D01*
X177785665Y-88303000D01*
X178068335Y-88303000D01*
X178345574Y-88247853D01*
X178606727Y-88139680D01*
X178841759Y-87982637D01*
X178963694Y-87860702D01*
X179613903Y-87860702D01*
X179685486Y-88104671D01*
X179940996Y-88225571D01*
X180215184Y-88294300D01*
X180497512Y-88308217D01*
X180777130Y-88266787D01*
X181043292Y-88171603D01*
X181168514Y-88104671D01*
X181240097Y-87860702D01*
X180427000Y-87047605D01*
X179613903Y-87860702D01*
X178963694Y-87860702D01*
X179041637Y-87782759D01*
X179175692Y-87582131D01*
X179190329Y-87609514D01*
X179434298Y-87681097D01*
X180247395Y-86868000D01*
X180606605Y-86868000D01*
X181419702Y-87681097D01*
X181663671Y-87609514D01*
X181784571Y-87354004D01*
X181853300Y-87079816D01*
X181867217Y-86797488D01*
X181825787Y-86517870D01*
X181730603Y-86251708D01*
X181663671Y-86126486D01*
X181419702Y-86054903D01*
X180606605Y-86868000D01*
X180247395Y-86868000D01*
X180233253Y-86853858D01*
X180412858Y-86674253D01*
X180427000Y-86688395D01*
X181240097Y-85875298D01*
X181168514Y-85631329D01*
X180913004Y-85510429D01*
X180775025Y-85475843D01*
X180885574Y-85453853D01*
X181146727Y-85345680D01*
X181381759Y-85188637D01*
X181581637Y-84988759D01*
X181738680Y-84753727D01*
X181846853Y-84492574D01*
X181902000Y-84215335D01*
X181902000Y-83932665D01*
X181846853Y-83655426D01*
X181738680Y-83394273D01*
X181581637Y-83159241D01*
X181381759Y-82959363D01*
X181146727Y-82802320D01*
X180997968Y-82740702D01*
X184733903Y-82740702D01*
X184805486Y-82984671D01*
X185060996Y-83105571D01*
X185335184Y-83174300D01*
X185617512Y-83188217D01*
X185897130Y-83146787D01*
X186163292Y-83051603D01*
X186288514Y-82984671D01*
X186360097Y-82740702D01*
X185547000Y-81927605D01*
X184733903Y-82740702D01*
X180997968Y-82740702D01*
X180885574Y-82694147D01*
X180608335Y-82639000D01*
X180325665Y-82639000D01*
X180048426Y-82694147D01*
X179787273Y-82802320D01*
X179619934Y-82914132D01*
X178563688Y-81857886D01*
X178571520Y-81818512D01*
X184106783Y-81818512D01*
X184148213Y-82098130D01*
X184243397Y-82364292D01*
X184310329Y-82489514D01*
X184554298Y-82561097D01*
X185367395Y-81748000D01*
X184554298Y-80934903D01*
X184310329Y-81006486D01*
X184189429Y-81261996D01*
X184120700Y-81536184D01*
X184106783Y-81818512D01*
X178571520Y-81818512D01*
X178600000Y-81675335D01*
X178600000Y-81392665D01*
X178544853Y-81115426D01*
X178436680Y-80854273D01*
X178279637Y-80619241D01*
X178079759Y-80419363D01*
X177847241Y-80264000D01*
X178079759Y-80108637D01*
X178279637Y-79908759D01*
X178436680Y-79673727D01*
X178544853Y-79412574D01*
X178600000Y-79135335D01*
X178600000Y-78852665D01*
X178563688Y-78670114D01*
X179401628Y-77832174D01*
X179422820Y-77843502D01*
X179542518Y-77879812D01*
X179667000Y-77892072D01*
X181267000Y-77892072D01*
X181391482Y-77879812D01*
X181511180Y-77843502D01*
X181621494Y-77784537D01*
X181718185Y-77705185D01*
X181797537Y-77608494D01*
X181856502Y-77498180D01*
X181892812Y-77378482D01*
X181905072Y-77254000D01*
X181905072Y-75654000D01*
X181892812Y-75529518D01*
X181856502Y-75409820D01*
X181797537Y-75299506D01*
X181718185Y-75202815D01*
X181621494Y-75123463D01*
X181511180Y-75064498D01*
X181391482Y-75028188D01*
X181267000Y-75015928D01*
X179667000Y-75015928D01*
X179542518Y-75028188D01*
X179422820Y-75064498D01*
X179312506Y-75123463D01*
X179215815Y-75202815D01*
X179136463Y-75299506D01*
X179077498Y-75409820D01*
X179041188Y-75529518D01*
X179028928Y-75654000D01*
X179028928Y-76055269D01*
X178600000Y-76484197D01*
X178600000Y-76312665D01*
X178544853Y-76035426D01*
X178436680Y-75774273D01*
X178279637Y-75539241D01*
X178079759Y-75339363D01*
X177844727Y-75182320D01*
X177583574Y-75074147D01*
X177306335Y-75019000D01*
X177023665Y-75019000D01*
X176746426Y-75074147D01*
X176485273Y-75182320D01*
X176250241Y-75339363D01*
X176050363Y-75539241D01*
X175893320Y-75774273D01*
X175785147Y-76035426D01*
X175730000Y-76312665D01*
X175730000Y-76595335D01*
X175785147Y-76872574D01*
X175893320Y-77133727D01*
X176050363Y-77368759D01*
X176250241Y-77568637D01*
X176482759Y-77724000D01*
X176250241Y-77879363D01*
X176050363Y-78079241D01*
X175893320Y-78314273D01*
X175785147Y-78575426D01*
X175730000Y-78852665D01*
X175730000Y-79135335D01*
X175785147Y-79412574D01*
X175893320Y-79673727D01*
X176050363Y-79908759D01*
X176250241Y-80108637D01*
X176482759Y-80264000D01*
X176250241Y-80419363D01*
X176050363Y-80619241D01*
X175893320Y-80854273D01*
X175785147Y-81115426D01*
X175730000Y-81392665D01*
X175730000Y-81675335D01*
X175785147Y-81952574D01*
X175893320Y-82213727D01*
X176050363Y-82448759D01*
X176250241Y-82648637D01*
X176482759Y-82804000D01*
X176250241Y-82959363D01*
X176050363Y-83159241D01*
X175893320Y-83394273D01*
X175785147Y-83655426D01*
X175730000Y-83932665D01*
X175730000Y-84215335D01*
X175785147Y-84492574D01*
X175893320Y-84753727D01*
X176050363Y-84988759D01*
X176250241Y-85188637D01*
X176485273Y-85345680D01*
X176746426Y-85453853D01*
X177023665Y-85509000D01*
X177306335Y-85509000D01*
X177583574Y-85453853D01*
X177844727Y-85345680D01*
X178079759Y-85188637D01*
X178279637Y-84988759D01*
X178436680Y-84753727D01*
X178544853Y-84492574D01*
X178600000Y-84215335D01*
X178600000Y-84043803D01*
X179011197Y-84455000D01*
X178033198Y-85433000D01*
X177785665Y-85433000D01*
X177508426Y-85488147D01*
X177247273Y-85596320D01*
X177012241Y-85753363D01*
X176812363Y-85953241D01*
X176655320Y-86188273D01*
X176547147Y-86449426D01*
X176492000Y-86726665D01*
X176492000Y-87009335D01*
X176528312Y-87191886D01*
X176342199Y-87378000D01*
X175589043Y-87378000D01*
X175485637Y-87223241D01*
X175285759Y-87023363D01*
X175050727Y-86866320D01*
X174789574Y-86758147D01*
X174512335Y-86703000D01*
X174229665Y-86703000D01*
X173952426Y-86758147D01*
X173691273Y-86866320D01*
X173456241Y-87023363D01*
X173256363Y-87223241D01*
X173099320Y-87458273D01*
X172991147Y-87719426D01*
X172936000Y-87996665D01*
X165646000Y-87996665D01*
X165590853Y-87719426D01*
X165482680Y-87458273D01*
X165325637Y-87223241D01*
X165125759Y-87023363D01*
X164890727Y-86866320D01*
X164629574Y-86758147D01*
X164352335Y-86703000D01*
X164069665Y-86703000D01*
X163887114Y-86739312D01*
X161669000Y-84521199D01*
X161669000Y-83163278D01*
X161939000Y-83163278D01*
X161939000Y-83460722D01*
X161997029Y-83752451D01*
X162110856Y-84027253D01*
X162276107Y-84274569D01*
X162486431Y-84484893D01*
X162733747Y-84650144D01*
X163008549Y-84763971D01*
X163300278Y-84822000D01*
X163597722Y-84822000D01*
X163889451Y-84763971D01*
X164164253Y-84650144D01*
X164411569Y-84484893D01*
X164621893Y-84274569D01*
X164787144Y-84027253D01*
X164900971Y-83752451D01*
X164959000Y-83460722D01*
X164959000Y-83163278D01*
X164900971Y-82871549D01*
X164787144Y-82596747D01*
X164621893Y-82349431D01*
X164411569Y-82139107D01*
X164164253Y-81973856D01*
X163889451Y-81860029D01*
X163597722Y-81802000D01*
X163300278Y-81802000D01*
X163008549Y-81860029D01*
X162733747Y-81973856D01*
X162486431Y-82139107D01*
X162276107Y-82349431D01*
X162110856Y-82596747D01*
X161997029Y-82871549D01*
X161939000Y-83163278D01*
X161669000Y-83163278D01*
X161669000Y-82080245D01*
X161871569Y-81944893D01*
X162081893Y-81734569D01*
X162247144Y-81487253D01*
X162360971Y-81212451D01*
X162419000Y-80920722D01*
X162419000Y-80623278D01*
X162371470Y-80384332D01*
X163061332Y-79694470D01*
X163300278Y-79742000D01*
X163597722Y-79742000D01*
X163889451Y-79683971D01*
X164164253Y-79570144D01*
X164411569Y-79404893D01*
X164621893Y-79194569D01*
X164787144Y-78947253D01*
X164900971Y-78672451D01*
X164959000Y-78380722D01*
X164959000Y-78083278D01*
X164900971Y-77791549D01*
X164787144Y-77516747D01*
X164621893Y-77269431D01*
X164411569Y-77059107D01*
X164164253Y-76893856D01*
X163889451Y-76780029D01*
X163597722Y-76722000D01*
X163300278Y-76722000D01*
X163008549Y-76780029D01*
X162733747Y-76893856D01*
X162486431Y-77059107D01*
X162276107Y-77269431D01*
X162110856Y-77516747D01*
X161997029Y-77791549D01*
X161939000Y-78083278D01*
X161939000Y-78380722D01*
X161986530Y-78619668D01*
X161296668Y-79309530D01*
X161057722Y-79262000D01*
X160760278Y-79262000D01*
X160468549Y-79320029D01*
X160193747Y-79433856D01*
X159946431Y-79599107D01*
X159736107Y-79809431D01*
X159570856Y-80056747D01*
X159457029Y-80331549D01*
X159399000Y-80623278D01*
X157875330Y-80623278D01*
X157855990Y-80576589D01*
X157693475Y-80333368D01*
X157486632Y-80126525D01*
X157312240Y-80010000D01*
X157486632Y-79893475D01*
X157693475Y-79686632D01*
X157855990Y-79443411D01*
X157967932Y-79173158D01*
X158025000Y-78886260D01*
X158025000Y-78593740D01*
X157967932Y-78306842D01*
X157855990Y-78036589D01*
X157693475Y-77793368D01*
X157486632Y-77586525D01*
X157312240Y-77470000D01*
X157486632Y-77353475D01*
X157693475Y-77146632D01*
X157855990Y-76903411D01*
X157967932Y-76633158D01*
X158025000Y-76346260D01*
X158025000Y-76053740D01*
X157967932Y-75766842D01*
X157855990Y-75496589D01*
X157693475Y-75253368D01*
X157486632Y-75046525D01*
X157312240Y-74930000D01*
X157486632Y-74813475D01*
X157693475Y-74606632D01*
X157855990Y-74363411D01*
X157967932Y-74093158D01*
X158025000Y-73806260D01*
X158025000Y-73513740D01*
X157967932Y-73226842D01*
X157855990Y-72956589D01*
X157693475Y-72713368D01*
X157486632Y-72506525D01*
X157312240Y-72390000D01*
X157486632Y-72273475D01*
X157693475Y-72066632D01*
X157855990Y-71823411D01*
X157967932Y-71553158D01*
X158025000Y-71266260D01*
X158025000Y-70973740D01*
X157967932Y-70686842D01*
X157855990Y-70416589D01*
X157693475Y-70173368D01*
X157561620Y-70041513D01*
X157634180Y-70019502D01*
X157744494Y-69960537D01*
X157841185Y-69881185D01*
X157920537Y-69784494D01*
X157979502Y-69674180D01*
X158015812Y-69554482D01*
X158028072Y-69430000D01*
X158025473Y-68952667D01*
X158025997Y-68957985D01*
X158054112Y-69050668D01*
X158069454Y-69101246D01*
X158140026Y-69233276D01*
X158179871Y-69281826D01*
X158234999Y-69349001D01*
X158264003Y-69372804D01*
X166626001Y-77734803D01*
X166626000Y-79337677D01*
X166622324Y-79375000D01*
X166626000Y-79412322D01*
X166626000Y-79412332D01*
X166636997Y-79523985D01*
X166659785Y-79599107D01*
X166680454Y-79667246D01*
X166751026Y-79799276D01*
X166778278Y-79832482D01*
X166845999Y-79915001D01*
X166875003Y-79938804D01*
X168146312Y-81210114D01*
X168110000Y-81392665D01*
X168110000Y-81675335D01*
X168165147Y-81952574D01*
X168273320Y-82213727D01*
X168430363Y-82448759D01*
X168630241Y-82648637D01*
X168862759Y-82804000D01*
X168630241Y-82959363D01*
X168430363Y-83159241D01*
X168273320Y-83394273D01*
X168165147Y-83655426D01*
X168110000Y-83932665D01*
X168110000Y-84215335D01*
X168165147Y-84492574D01*
X168273320Y-84753727D01*
X168430363Y-84988759D01*
X168630241Y-85188637D01*
X168865273Y-85345680D01*
X169126426Y-85453853D01*
X169403665Y-85509000D01*
X169686335Y-85509000D01*
X169963574Y-85453853D01*
X170224727Y-85345680D01*
X170459759Y-85188637D01*
X170659637Y-84988759D01*
X170816680Y-84753727D01*
X170924853Y-84492574D01*
X170980000Y-84215335D01*
X170980000Y-83932665D01*
X170924853Y-83655426D01*
X170816680Y-83394273D01*
X170659637Y-83159241D01*
X170459759Y-82959363D01*
X170227241Y-82804000D01*
X170459759Y-82648637D01*
X170659637Y-82448759D01*
X170816680Y-82213727D01*
X170924853Y-81952574D01*
X170980000Y-81675335D01*
X170980000Y-81392665D01*
X170924853Y-81115426D01*
X170816680Y-80854273D01*
X170659637Y-80619241D01*
X170459759Y-80419363D01*
X170227241Y-80264000D01*
X170459759Y-80108637D01*
X170659637Y-79908759D01*
X170816680Y-79673727D01*
X170924853Y-79412574D01*
X170980000Y-79135335D01*
X170980000Y-78852665D01*
X170924853Y-78575426D01*
X170816680Y-78314273D01*
X170659637Y-78079241D01*
X170461039Y-77880643D01*
X170469482Y-77879812D01*
X170589180Y-77843502D01*
X170699494Y-77784537D01*
X170796185Y-77705185D01*
X170875537Y-77608494D01*
X170934502Y-77498180D01*
X170970812Y-77378482D01*
X170983072Y-77254000D01*
X170980000Y-76739750D01*
X170821250Y-76581000D01*
X169672000Y-76581000D01*
X169672000Y-76601000D01*
X169418000Y-76601000D01*
X169418000Y-76581000D01*
X168268750Y-76581000D01*
X168110000Y-76739750D01*
X168107371Y-77179920D01*
X168091546Y-77127753D01*
X168070818Y-77088974D01*
X168020974Y-76995723D01*
X167949799Y-76908997D01*
X167926001Y-76879999D01*
X167897003Y-76856201D01*
X166694802Y-75654000D01*
X168106928Y-75654000D01*
X168110000Y-76168250D01*
X168268750Y-76327000D01*
X169418000Y-76327000D01*
X169418000Y-75177750D01*
X169672000Y-75177750D01*
X169672000Y-76327000D01*
X170821250Y-76327000D01*
X170980000Y-76168250D01*
X170983072Y-75654000D01*
X170970812Y-75529518D01*
X170934502Y-75409820D01*
X170875537Y-75299506D01*
X170796185Y-75202815D01*
X170699494Y-75123463D01*
X170589180Y-75064498D01*
X170469482Y-75028188D01*
X170345000Y-75015928D01*
X169830750Y-75019000D01*
X169672000Y-75177750D01*
X169418000Y-75177750D01*
X169259250Y-75019000D01*
X168745000Y-75015928D01*
X168620518Y-75028188D01*
X168500820Y-75064498D01*
X168390506Y-75123463D01*
X168293815Y-75202815D01*
X168214463Y-75299506D01*
X168155498Y-75409820D01*
X168119188Y-75529518D01*
X168106928Y-75654000D01*
X166694802Y-75654000D01*
X165439504Y-74398702D01*
X171311903Y-74398702D01*
X171383486Y-74642671D01*
X171638996Y-74763571D01*
X171913184Y-74832300D01*
X172195512Y-74846217D01*
X172475130Y-74804787D01*
X172741292Y-74709603D01*
X172866514Y-74642671D01*
X172938097Y-74398702D01*
X172125000Y-73585605D01*
X171311903Y-74398702D01*
X165439504Y-74398702D01*
X164517314Y-73476512D01*
X170684783Y-73476512D01*
X170726213Y-73756130D01*
X170821397Y-74022292D01*
X170888329Y-74147514D01*
X171132298Y-74219097D01*
X171945395Y-73406000D01*
X172304605Y-73406000D01*
X173117702Y-74219097D01*
X173361671Y-74147514D01*
X173375324Y-74118659D01*
X173510363Y-74320759D01*
X173710241Y-74520637D01*
X173945273Y-74677680D01*
X174206426Y-74785853D01*
X174483665Y-74841000D01*
X174766335Y-74841000D01*
X175043574Y-74785853D01*
X175304727Y-74677680D01*
X175539759Y-74520637D01*
X175739637Y-74320759D01*
X175896680Y-74085727D01*
X176004853Y-73824574D01*
X176060000Y-73547335D01*
X176060000Y-73264665D01*
X176004853Y-72987426D01*
X175896680Y-72726273D01*
X175739637Y-72491241D01*
X175539759Y-72291363D01*
X175304727Y-72134320D01*
X175043574Y-72026147D01*
X174766335Y-71971000D01*
X174483665Y-71971000D01*
X174206426Y-72026147D01*
X173945273Y-72134320D01*
X173710241Y-72291363D01*
X173510363Y-72491241D01*
X173376308Y-72691869D01*
X173361671Y-72664486D01*
X173117702Y-72592903D01*
X172304605Y-73406000D01*
X171945395Y-73406000D01*
X171132298Y-72592903D01*
X170888329Y-72664486D01*
X170767429Y-72919996D01*
X170698700Y-73194184D01*
X170684783Y-73476512D01*
X164517314Y-73476512D01*
X163454100Y-72413298D01*
X171311903Y-72413298D01*
X172125000Y-73226395D01*
X172938097Y-72413298D01*
X172866514Y-72169329D01*
X172611004Y-72048429D01*
X172336816Y-71979700D01*
X172054488Y-71965783D01*
X171774870Y-72007213D01*
X171508708Y-72102397D01*
X171383486Y-72169329D01*
X171311903Y-72413298D01*
X163454100Y-72413298D01*
X160477841Y-69437039D01*
X161930096Y-69437039D01*
X161970754Y-69571087D01*
X162090963Y-69825420D01*
X162258481Y-70051414D01*
X162466869Y-70240385D01*
X162708119Y-70385070D01*
X162972960Y-70479909D01*
X163195000Y-70358624D01*
X163195000Y-69215000D01*
X163449000Y-69215000D01*
X163449000Y-70358624D01*
X163671040Y-70479909D01*
X163935881Y-70385070D01*
X164177131Y-70240385D01*
X164385519Y-70051414D01*
X164553037Y-69825420D01*
X164673246Y-69571087D01*
X164713904Y-69437039D01*
X164591915Y-69215000D01*
X163449000Y-69215000D01*
X163195000Y-69215000D01*
X162052085Y-69215000D01*
X161930096Y-69437039D01*
X160477841Y-69437039D01*
X159535000Y-68494199D01*
X159535000Y-68070000D01*
X162318676Y-68070000D01*
X162258481Y-68124586D01*
X162090963Y-68350580D01*
X161970754Y-68604913D01*
X161930096Y-68738961D01*
X162052085Y-68961000D01*
X163195000Y-68961000D01*
X163195000Y-68941000D01*
X163449000Y-68941000D01*
X163449000Y-68961000D01*
X164591915Y-68961000D01*
X164713904Y-68738961D01*
X164673246Y-68604913D01*
X164553037Y-68350580D01*
X164385519Y-68124586D01*
X164325324Y-68070000D01*
X168999678Y-68070000D01*
X169037000Y-68073676D01*
X169074322Y-68070000D01*
X169074333Y-68070000D01*
X169185986Y-68059003D01*
X169329247Y-68015546D01*
X169461276Y-67944974D01*
X169577001Y-67850001D01*
X169600804Y-67820997D01*
X172060682Y-65361120D01*
X172102147Y-65569574D01*
X172210320Y-65830727D01*
X172367363Y-66065759D01*
X172567241Y-66265637D01*
X172722000Y-66369044D01*
X172722001Y-67869956D01*
X172567241Y-67973363D01*
X172367363Y-68173241D01*
X172210320Y-68408273D01*
X172102147Y-68669426D01*
X172047000Y-68946665D01*
X172047000Y-69229335D01*
X172102147Y-69506574D01*
X172210320Y-69767727D01*
X172367363Y-70002759D01*
X172567241Y-70202637D01*
X172802273Y-70359680D01*
X173063426Y-70467853D01*
X173340665Y-70523000D01*
X173623335Y-70523000D01*
X173900574Y-70467853D01*
X174161727Y-70359680D01*
X174396759Y-70202637D01*
X174596637Y-70002759D01*
X174700043Y-69848000D01*
X183442962Y-69848000D01*
X183468498Y-69932180D01*
X183527463Y-70042494D01*
X183606815Y-70139185D01*
X183703506Y-70218537D01*
X183813820Y-70277502D01*
X183933518Y-70313812D01*
X184058000Y-70326072D01*
X185258000Y-70326072D01*
X185382482Y-70313812D01*
X185398000Y-70309105D01*
X185398001Y-72328668D01*
X185394324Y-72366000D01*
X185398001Y-72403333D01*
X185401218Y-72435990D01*
X185408998Y-72514985D01*
X185452454Y-72658246D01*
X185523026Y-72790276D01*
X185594201Y-72877002D01*
X185618000Y-72906001D01*
X185646998Y-72929799D01*
X187961928Y-75244730D01*
X187961928Y-78758000D01*
X187992442Y-79067817D01*
X188082813Y-79365729D01*
X188229566Y-79640286D01*
X188427064Y-79880936D01*
X188667714Y-80078434D01*
X188942271Y-80225187D01*
X189240183Y-80315558D01*
X189550000Y-80346072D01*
X189740000Y-80346072D01*
X189740001Y-86023928D01*
X189550000Y-86023928D01*
X189240183Y-86054442D01*
X188942271Y-86144813D01*
X188667714Y-86291566D01*
X188466000Y-86457110D01*
X188466000Y-81444322D01*
X188469676Y-81406999D01*
X188466000Y-81369676D01*
X188466000Y-81369667D01*
X188455003Y-81258014D01*
X188411546Y-81114753D01*
X188362501Y-81022997D01*
X188340974Y-80982723D01*
X188269799Y-80895997D01*
X188246001Y-80866999D01*
X188217004Y-80843202D01*
X186945688Y-79571886D01*
X186982000Y-79389335D01*
X186982000Y-79106665D01*
X186926853Y-78829426D01*
X186818680Y-78568273D01*
X186661637Y-78333241D01*
X186461759Y-78133363D01*
X186226727Y-77976320D01*
X185965574Y-77868147D01*
X185688335Y-77813000D01*
X185405665Y-77813000D01*
X185128426Y-77868147D01*
X184867273Y-77976320D01*
X184632241Y-78133363D01*
X184432363Y-78333241D01*
X184275320Y-78568273D01*
X184167147Y-78829426D01*
X184112000Y-79106665D01*
X184112000Y-79389335D01*
X184167147Y-79666574D01*
X184275320Y-79927727D01*
X184432363Y-80162759D01*
X184632241Y-80362637D01*
X184832869Y-80496692D01*
X184805486Y-80511329D01*
X184733903Y-80755298D01*
X185547000Y-81568395D01*
X185561143Y-81554253D01*
X185740748Y-81733858D01*
X185726605Y-81748000D01*
X186539702Y-82561097D01*
X186783671Y-82489514D01*
X186904571Y-82234004D01*
X186946000Y-82068727D01*
X186946001Y-86570047D01*
X186945680Y-86569273D01*
X186788637Y-86334241D01*
X186588759Y-86134363D01*
X186353727Y-85977320D01*
X186092574Y-85869147D01*
X185815335Y-85814000D01*
X185532665Y-85814000D01*
X185255426Y-85869147D01*
X184994273Y-85977320D01*
X184759241Y-86134363D01*
X184559363Y-86334241D01*
X184402320Y-86569273D01*
X184294147Y-86830426D01*
X184239000Y-87107665D01*
X184239000Y-87390335D01*
X184275312Y-87572886D01*
X181988003Y-89860196D01*
X181958999Y-89883999D01*
X181906680Y-89947750D01*
X181864026Y-89999724D01*
X181832095Y-90059463D01*
X181793454Y-90131754D01*
X181749997Y-90275015D01*
X181739000Y-90386668D01*
X181739000Y-90386678D01*
X181735324Y-90424000D01*
X181739000Y-90461322D01*
X181739000Y-93008179D01*
X181718185Y-92982815D01*
X181621494Y-92903463D01*
X181511180Y-92844498D01*
X181391482Y-92808188D01*
X181267000Y-92795928D01*
X179667000Y-92795928D01*
X179542518Y-92808188D01*
X179422820Y-92844498D01*
X179312506Y-92903463D01*
X179215815Y-92982815D01*
X179136463Y-93079506D01*
X179077498Y-93189820D01*
X179041188Y-93309518D01*
X179028928Y-93434000D01*
X179028928Y-93835269D01*
X178600000Y-94264197D01*
X178600000Y-94092665D01*
X178544853Y-93815426D01*
X178436680Y-93554273D01*
X178279637Y-93319241D01*
X178079759Y-93119363D01*
X177844727Y-92962320D01*
X177583574Y-92854147D01*
X177306335Y-92799000D01*
X177023665Y-92799000D01*
X176746426Y-92854147D01*
X176485273Y-92962320D01*
X176250241Y-93119363D01*
X176050363Y-93319241D01*
X175893320Y-93554273D01*
X175785147Y-93815426D01*
X175730000Y-94092665D01*
X175730000Y-94375335D01*
X175785147Y-94652574D01*
X175893320Y-94913727D01*
X176050363Y-95148759D01*
X176250241Y-95348637D01*
X176482759Y-95504000D01*
X176250241Y-95659363D01*
X176050363Y-95859241D01*
X175893320Y-96094273D01*
X175785147Y-96355426D01*
X175730000Y-96632665D01*
X175730000Y-96915335D01*
X175785147Y-97192574D01*
X175893320Y-97453727D01*
X176050363Y-97688759D01*
X176250241Y-97888637D01*
X176482759Y-98044000D01*
X176250241Y-98199363D01*
X176050363Y-98399241D01*
X175893320Y-98634273D01*
X175785147Y-98895426D01*
X175730000Y-99172665D01*
X175730000Y-99455335D01*
X175785147Y-99732574D01*
X175893320Y-99993727D01*
X176050363Y-100228759D01*
X176250241Y-100428637D01*
X176482759Y-100584000D01*
X176250241Y-100739363D01*
X176050363Y-100939241D01*
X175893320Y-101174273D01*
X175785147Y-101435426D01*
X175730000Y-101712665D01*
X175730000Y-101995335D01*
X175785147Y-102272574D01*
X175893320Y-102533727D01*
X176050363Y-102768759D01*
X176250241Y-102968637D01*
X176485273Y-103125680D01*
X176746426Y-103233853D01*
X177023665Y-103289000D01*
X177306335Y-103289000D01*
X177583574Y-103233853D01*
X177844727Y-103125680D01*
X178079759Y-102968637D01*
X178279637Y-102768759D01*
X178436680Y-102533727D01*
X178544853Y-102272574D01*
X178600000Y-101995335D01*
X178600000Y-101712665D01*
X178544853Y-101435426D01*
X178436680Y-101174273D01*
X178279637Y-100939241D01*
X178079759Y-100739363D01*
X177847241Y-100584000D01*
X178012066Y-100473868D01*
X179068312Y-101530114D01*
X179032000Y-101712665D01*
X179032000Y-101995335D01*
X179068312Y-102177886D01*
X177923998Y-103322201D01*
X177895000Y-103345999D01*
X177871202Y-103374997D01*
X177871201Y-103374998D01*
X177800026Y-103461724D01*
X177729454Y-103593754D01*
X177706251Y-103670247D01*
X177695151Y-103706842D01*
X177685998Y-103737015D01*
X177671324Y-103886000D01*
X177675001Y-103923332D01*
X177675001Y-104191956D01*
X177520241Y-104295363D01*
X177320363Y-104495241D01*
X177163320Y-104730273D01*
X177055147Y-104991426D01*
X177000000Y-105268665D01*
X177000000Y-105551335D01*
X177022809Y-105666000D01*
X175589043Y-105666000D01*
X175485637Y-105511241D01*
X175285759Y-105311363D01*
X175050727Y-105154320D01*
X174789574Y-105046147D01*
X174512335Y-104991000D01*
X174229665Y-104991000D01*
X173952426Y-105046147D01*
X173691273Y-105154320D01*
X173456241Y-105311363D01*
X173256363Y-105511241D01*
X173099320Y-105746273D01*
X172991147Y-106007426D01*
X172936000Y-106284665D01*
X172936000Y-106567335D01*
X172991147Y-106844574D01*
X173099320Y-107105727D01*
X173256363Y-107340759D01*
X173456241Y-107540637D01*
X173691273Y-107697680D01*
X173952426Y-107805853D01*
X174229665Y-107861000D01*
X174512335Y-107861000D01*
X174789574Y-107805853D01*
X175050727Y-107697680D01*
X175285759Y-107540637D01*
X175485637Y-107340759D01*
X175589043Y-107186000D01*
X177381678Y-107186000D01*
X177419000Y-107189676D01*
X177456322Y-107186000D01*
X177456333Y-107186000D01*
X177567986Y-107175003D01*
X177711247Y-107131546D01*
X177843276Y-107060974D01*
X177959001Y-106966001D01*
X177982804Y-106936998D01*
X178111113Y-106808688D01*
X178293665Y-106845000D01*
X178576335Y-106845000D01*
X178853574Y-106789853D01*
X179114727Y-106681680D01*
X179349759Y-106524637D01*
X179471694Y-106402702D01*
X180121903Y-106402702D01*
X180193486Y-106646671D01*
X180448996Y-106767571D01*
X180723184Y-106836300D01*
X181005512Y-106850217D01*
X181285130Y-106808787D01*
X181551292Y-106713603D01*
X181676514Y-106646671D01*
X181748097Y-106402702D01*
X180935000Y-105589605D01*
X180121903Y-106402702D01*
X179471694Y-106402702D01*
X179549637Y-106324759D01*
X179683692Y-106124131D01*
X179698329Y-106151514D01*
X179942298Y-106223097D01*
X180755395Y-105410000D01*
X181114605Y-105410000D01*
X181927702Y-106223097D01*
X182171671Y-106151514D01*
X182292571Y-105896004D01*
X182361300Y-105621816D01*
X182375217Y-105339488D01*
X182333787Y-105059870D01*
X182238603Y-104793708D01*
X182171671Y-104668486D01*
X181927702Y-104596903D01*
X181114605Y-105410000D01*
X180755395Y-105410000D01*
X179942298Y-104596903D01*
X179698329Y-104668486D01*
X179684676Y-104697341D01*
X179549637Y-104495241D01*
X179471694Y-104417298D01*
X180121903Y-104417298D01*
X180935000Y-105230395D01*
X181748097Y-104417298D01*
X181676514Y-104173329D01*
X181421004Y-104052429D01*
X181146816Y-103983700D01*
X180864488Y-103969783D01*
X180584870Y-104011213D01*
X180318708Y-104106397D01*
X180193486Y-104173329D01*
X180121903Y-104417298D01*
X179471694Y-104417298D01*
X179349759Y-104295363D01*
X179200302Y-104195499D01*
X180143114Y-103252688D01*
X180325665Y-103289000D01*
X180608335Y-103289000D01*
X180885574Y-103233853D01*
X181146727Y-103125680D01*
X181381759Y-102968637D01*
X181581637Y-102768759D01*
X181738680Y-102533727D01*
X181846853Y-102272574D01*
X181902000Y-101995335D01*
X181902000Y-101712665D01*
X181846853Y-101435426D01*
X181738680Y-101174273D01*
X181581637Y-100939241D01*
X181381759Y-100739363D01*
X181146727Y-100582320D01*
X180885574Y-100474147D01*
X180608335Y-100419000D01*
X180325665Y-100419000D01*
X180143114Y-100455312D01*
X178517718Y-98829917D01*
X178436680Y-98634273D01*
X178279637Y-98399241D01*
X178079759Y-98199363D01*
X177847241Y-98044000D01*
X178079759Y-97888637D01*
X178279637Y-97688759D01*
X178436680Y-97453727D01*
X178544853Y-97192574D01*
X178600000Y-96915335D01*
X178600000Y-96632665D01*
X178563688Y-96450114D01*
X179401628Y-95612174D01*
X179422820Y-95623502D01*
X179542518Y-95659812D01*
X179667000Y-95672072D01*
X181267000Y-95672072D01*
X181391482Y-95659812D01*
X181511180Y-95623502D01*
X181621494Y-95564537D01*
X181718185Y-95485185D01*
X181739001Y-95459821D01*
X181739001Y-97086288D01*
X181695063Y-97130226D01*
X181581795Y-97299744D01*
X181503774Y-97488102D01*
X181464000Y-97688061D01*
X181464000Y-97891939D01*
X181503774Y-98091898D01*
X181581795Y-98280256D01*
X181695063Y-98449774D01*
X181839226Y-98593937D01*
X182008744Y-98707205D01*
X182197102Y-98785226D01*
X182397061Y-98825000D01*
X182464002Y-98825000D01*
X182464002Y-99821667D01*
X182460325Y-99858999D01*
X182474999Y-100007984D01*
X182518455Y-100151245D01*
X182589027Y-100283275D01*
X182660202Y-100370001D01*
X182684001Y-100399000D01*
X182712999Y-100422798D01*
X187327000Y-105036800D01*
X187327001Y-106985956D01*
X187172241Y-107089363D01*
X186972363Y-107289241D01*
X186815320Y-107524273D01*
X186707147Y-107785426D01*
X186652000Y-108062665D01*
X186652000Y-108345335D01*
X186707147Y-108622574D01*
X186815320Y-108883727D01*
X186972363Y-109118759D01*
X187172241Y-109318637D01*
X187204213Y-109340000D01*
X185413787Y-109340000D01*
X185445759Y-109318637D01*
X185645637Y-109118759D01*
X185802680Y-108883727D01*
X185910853Y-108622574D01*
X185966000Y-108345335D01*
X185966000Y-108062665D01*
X185910853Y-107785426D01*
X185802680Y-107524273D01*
X185645637Y-107289241D01*
X185445759Y-107089363D01*
X185210727Y-106932320D01*
X184949574Y-106824147D01*
X184672335Y-106769000D01*
X184389665Y-106769000D01*
X184112426Y-106824147D01*
X183851273Y-106932320D01*
X183616241Y-107089363D01*
X183416363Y-107289241D01*
X183259320Y-107524273D01*
X183151147Y-107785426D01*
X183096000Y-108062665D01*
X183096000Y-108345335D01*
X183151147Y-108622574D01*
X183259320Y-108883727D01*
X183416363Y-109118759D01*
X183616241Y-109318637D01*
X183648213Y-109340000D01*
X150660000Y-109340000D01*
X150660000Y-50660000D01*
X157728988Y-50660000D01*
X157582226Y-50758063D01*
G36*
X186946001Y-89073584D02*
G01*
X186910671Y-89007486D01*
X186666702Y-88935903D01*
X185853605Y-89749000D01*
X186666702Y-90562097D01*
X186910671Y-90490514D01*
X186946001Y-90415848D01*
X186946001Y-90871197D01*
X183259000Y-94558199D01*
X183259000Y-90741702D01*
X184860903Y-90741702D01*
X184932486Y-90985671D01*
X185187996Y-91106571D01*
X185462184Y-91175300D01*
X185744512Y-91189217D01*
X186024130Y-91147787D01*
X186290292Y-91052603D01*
X186415514Y-90985671D01*
X186487097Y-90741702D01*
X185674000Y-89928605D01*
X184860903Y-90741702D01*
X183259000Y-90741702D01*
X183259000Y-90738801D01*
X184236660Y-89761141D01*
X184233783Y-89819512D01*
X184275213Y-90099130D01*
X184370397Y-90365292D01*
X184437329Y-90490514D01*
X184681298Y-90562097D01*
X185494395Y-89749000D01*
X185480253Y-89734858D01*
X185659858Y-89555253D01*
X185674000Y-89569395D01*
X186487097Y-88756298D01*
X186415514Y-88512329D01*
X186386659Y-88498676D01*
X186588759Y-88363637D01*
X186788637Y-88163759D01*
X186945680Y-87928727D01*
X186946001Y-87927953D01*
X186946001Y-89073584D01*
G37*
X186946001Y-89073584D02*
X186910671Y-89007486D01*
X186666702Y-88935903D01*
X185853605Y-89749000D01*
X186666702Y-90562097D01*
X186910671Y-90490514D01*
X186946001Y-90415848D01*
X186946001Y-90871197D01*
X183259000Y-94558199D01*
X183259000Y-90741702D01*
X184860903Y-90741702D01*
X184932486Y-90985671D01*
X185187996Y-91106571D01*
X185462184Y-91175300D01*
X185744512Y-91189217D01*
X186024130Y-91147787D01*
X186290292Y-91052603D01*
X186415514Y-90985671D01*
X186487097Y-90741702D01*
X185674000Y-89928605D01*
X184860903Y-90741702D01*
X183259000Y-90741702D01*
X183259000Y-90738801D01*
X184236660Y-89761141D01*
X184233783Y-89819512D01*
X184275213Y-90099130D01*
X184370397Y-90365292D01*
X184437329Y-90490514D01*
X184681298Y-90562097D01*
X185494395Y-89749000D01*
X185480253Y-89734858D01*
X185659858Y-89555253D01*
X185674000Y-89569395D01*
X186487097Y-88756298D01*
X186415514Y-88512329D01*
X186386659Y-88498676D01*
X186588759Y-88363637D01*
X186788637Y-88163759D01*
X186945680Y-87928727D01*
X186946001Y-87927953D01*
X186946001Y-89073584D01*
G36*
X156667000Y-68453000D02*
G01*
X156687000Y-68453000D01*
X156687000Y-68707000D01*
X156667000Y-68707000D01*
X156667000Y-68727000D01*
X156413000Y-68727000D01*
X156413000Y-68707000D01*
X156393000Y-68707000D01*
X156393000Y-68453000D01*
X156413000Y-68453000D01*
X156413000Y-68433000D01*
X156667000Y-68433000D01*
X156667000Y-68453000D01*
G37*
X156667000Y-68453000D02*
X156687000Y-68453000D01*
X156687000Y-68707000D01*
X156667000Y-68707000D01*
X156667000Y-68727000D01*
X156413000Y-68727000D01*
X156413000Y-68707000D01*
X156393000Y-68707000D01*
X156393000Y-68453000D01*
X156413000Y-68453000D01*
X156413000Y-68433000D01*
X156667000Y-68433000D01*
X156667000Y-68453000D01*
G36*
X173063426Y-51960147D02*
G01*
X172802273Y-52068320D01*
X172567241Y-52225363D01*
X172367363Y-52425241D01*
X172210320Y-52660273D01*
X172102147Y-52921426D01*
X172047000Y-53198665D01*
X172047000Y-53481335D01*
X172102147Y-53758574D01*
X172210320Y-54019727D01*
X172367363Y-54254759D01*
X172567241Y-54454637D01*
X172722000Y-54558044D01*
X172722000Y-56058956D01*
X172567241Y-56162363D01*
X172367363Y-56362241D01*
X172210320Y-56597273D01*
X172102147Y-56858426D01*
X172047000Y-57135665D01*
X172047000Y-57418335D01*
X172102147Y-57695574D01*
X172210320Y-57956727D01*
X172367363Y-58191759D01*
X172567241Y-58391637D01*
X172722001Y-58495044D01*
X172722001Y-59995956D01*
X172567241Y-60099363D01*
X172367363Y-60299241D01*
X172210320Y-60534273D01*
X172102147Y-60795426D01*
X172047000Y-61072665D01*
X172047000Y-61355335D01*
X172102147Y-61632574D01*
X172210320Y-61893727D01*
X172367363Y-62128759D01*
X172567241Y-62328637D01*
X172802273Y-62485680D01*
X173063426Y-62593853D01*
X173340665Y-62649000D01*
X173623335Y-62649000D01*
X173805886Y-62612688D01*
X174060198Y-62867000D01*
X172757322Y-62867000D01*
X172719999Y-62863324D01*
X172682677Y-62867000D01*
X172682667Y-62867000D01*
X172571014Y-62877997D01*
X172427753Y-62921454D01*
X172295724Y-62992026D01*
X172179999Y-63086999D01*
X172156196Y-63116003D01*
X172082007Y-63190192D01*
X172081996Y-63190201D01*
X168722199Y-66550000D01*
X163644317Y-66550000D01*
X163740574Y-66530853D01*
X164001727Y-66422680D01*
X164236759Y-66265637D01*
X164436637Y-66065759D01*
X164593680Y-65830727D01*
X164701853Y-65569574D01*
X164757000Y-65292335D01*
X164757000Y-65009665D01*
X164720688Y-64827113D01*
X167897004Y-61650798D01*
X167926001Y-61627001D01*
X167952332Y-61594917D01*
X168020974Y-61511277D01*
X168091546Y-61379247D01*
X168096479Y-61362985D01*
X168135003Y-61235986D01*
X168146000Y-61124333D01*
X168146000Y-61124323D01*
X168149676Y-61087000D01*
X168146000Y-61049677D01*
X168146000Y-53654801D01*
X169859802Y-51941000D01*
X173159683Y-51941000D01*
X173063426Y-51960147D01*
G37*
X173063426Y-51960147D02*
X172802273Y-52068320D01*
X172567241Y-52225363D01*
X172367363Y-52425241D01*
X172210320Y-52660273D01*
X172102147Y-52921426D01*
X172047000Y-53198665D01*
X172047000Y-53481335D01*
X172102147Y-53758574D01*
X172210320Y-54019727D01*
X172367363Y-54254759D01*
X172567241Y-54454637D01*
X172722000Y-54558044D01*
X172722000Y-56058956D01*
X172567241Y-56162363D01*
X172367363Y-56362241D01*
X172210320Y-56597273D01*
X172102147Y-56858426D01*
X172047000Y-57135665D01*
X172047000Y-57418335D01*
X172102147Y-57695574D01*
X172210320Y-57956727D01*
X172367363Y-58191759D01*
X172567241Y-58391637D01*
X172722001Y-58495044D01*
X172722001Y-59995956D01*
X172567241Y-60099363D01*
X172367363Y-60299241D01*
X172210320Y-60534273D01*
X172102147Y-60795426D01*
X172047000Y-61072665D01*
X172047000Y-61355335D01*
X172102147Y-61632574D01*
X172210320Y-61893727D01*
X172367363Y-62128759D01*
X172567241Y-62328637D01*
X172802273Y-62485680D01*
X173063426Y-62593853D01*
X173340665Y-62649000D01*
X173623335Y-62649000D01*
X173805886Y-62612688D01*
X174060198Y-62867000D01*
X172757322Y-62867000D01*
X172719999Y-62863324D01*
X172682677Y-62867000D01*
X172682667Y-62867000D01*
X172571014Y-62877997D01*
X172427753Y-62921454D01*
X172295724Y-62992026D01*
X172179999Y-63086999D01*
X172156196Y-63116003D01*
X172082007Y-63190192D01*
X172081996Y-63190201D01*
X168722199Y-66550000D01*
X163644317Y-66550000D01*
X163740574Y-66530853D01*
X164001727Y-66422680D01*
X164236759Y-66265637D01*
X164436637Y-66065759D01*
X164593680Y-65830727D01*
X164701853Y-65569574D01*
X164757000Y-65292335D01*
X164757000Y-65009665D01*
X164720688Y-64827113D01*
X167897004Y-61650798D01*
X167926001Y-61627001D01*
X167952332Y-61594917D01*
X168020974Y-61511277D01*
X168091546Y-61379247D01*
X168096479Y-61362985D01*
X168135003Y-61235986D01*
X168146000Y-61124333D01*
X168146000Y-61124323D01*
X168149676Y-61087000D01*
X168146000Y-61049677D01*
X168146000Y-53654801D01*
X169859802Y-51941000D01*
X173159683Y-51941000D01*
X173063426Y-51960147D01*
G36*
X166874998Y-52776201D02*
G01*
X166846000Y-52799999D01*
X166822202Y-52828997D01*
X166822201Y-52828998D01*
X166751026Y-52915724D01*
X166680454Y-53047754D01*
X166678484Y-53054250D01*
X166636998Y-53191014D01*
X166634833Y-53213000D01*
X166622324Y-53340000D01*
X166626001Y-53377332D01*
X166626000Y-60772198D01*
X163645887Y-63752312D01*
X163463335Y-63716000D01*
X163180665Y-63716000D01*
X162903426Y-63771147D01*
X162642273Y-63879320D01*
X162446696Y-64010000D01*
X157936103Y-64010000D01*
X157967932Y-63933158D01*
X158025000Y-63646260D01*
X158025000Y-63353740D01*
X157967932Y-63066842D01*
X157855990Y-62796589D01*
X157693475Y-62553368D01*
X157486632Y-62346525D01*
X157312240Y-62230000D01*
X157486632Y-62113475D01*
X157693475Y-61906632D01*
X157855990Y-61663411D01*
X157967932Y-61393158D01*
X158025000Y-61106260D01*
X158025000Y-61072665D01*
X161887000Y-61072665D01*
X161887000Y-61355335D01*
X161942147Y-61632574D01*
X162050320Y-61893727D01*
X162207363Y-62128759D01*
X162407241Y-62328637D01*
X162642273Y-62485680D01*
X162903426Y-62593853D01*
X163180665Y-62649000D01*
X163463335Y-62649000D01*
X163740574Y-62593853D01*
X164001727Y-62485680D01*
X164236759Y-62328637D01*
X164436637Y-62128759D01*
X164593680Y-61893727D01*
X164701853Y-61632574D01*
X164757000Y-61355335D01*
X164757000Y-61072665D01*
X164701853Y-60795426D01*
X164593680Y-60534273D01*
X164436637Y-60299241D01*
X164236759Y-60099363D01*
X164001727Y-59942320D01*
X163740574Y-59834147D01*
X163463335Y-59779000D01*
X163180665Y-59779000D01*
X162903426Y-59834147D01*
X162642273Y-59942320D01*
X162407241Y-60099363D01*
X162207363Y-60299241D01*
X162050320Y-60534273D01*
X161942147Y-60795426D01*
X161887000Y-61072665D01*
X158025000Y-61072665D01*
X158025000Y-60813740D01*
X157967932Y-60526842D01*
X157855990Y-60256589D01*
X157693475Y-60013368D01*
X157486632Y-59806525D01*
X157312240Y-59690000D01*
X157486632Y-59573475D01*
X157693475Y-59366632D01*
X157855990Y-59123411D01*
X157967932Y-58853158D01*
X158025000Y-58566260D01*
X158025000Y-58273740D01*
X157967932Y-57986842D01*
X157855990Y-57716589D01*
X157693475Y-57473368D01*
X157486632Y-57266525D01*
X157312240Y-57150000D01*
X157486632Y-57033475D01*
X157693475Y-56826632D01*
X157818178Y-56640000D01*
X161221289Y-56640000D01*
X161265226Y-56683937D01*
X161434744Y-56797205D01*
X161623102Y-56875226D01*
X161823061Y-56915000D01*
X161885199Y-56915000D01*
X161923312Y-56953114D01*
X161887000Y-57135665D01*
X161887000Y-57418335D01*
X161942147Y-57695574D01*
X162050320Y-57956727D01*
X162207363Y-58191759D01*
X162407241Y-58391637D01*
X162642273Y-58548680D01*
X162903426Y-58656853D01*
X163180665Y-58712000D01*
X163463335Y-58712000D01*
X163740574Y-58656853D01*
X164001727Y-58548680D01*
X164236759Y-58391637D01*
X164436637Y-58191759D01*
X164593680Y-57956727D01*
X164701853Y-57695574D01*
X164757000Y-57418335D01*
X164757000Y-57135665D01*
X164701853Y-56858426D01*
X164593680Y-56597273D01*
X164436637Y-56362241D01*
X164236759Y-56162363D01*
X164001727Y-56005320D01*
X163740574Y-55897147D01*
X163463335Y-55842000D01*
X163180665Y-55842000D01*
X162998114Y-55878312D01*
X162960000Y-55840199D01*
X162960000Y-55778061D01*
X162920226Y-55578102D01*
X162842205Y-55389744D01*
X162728937Y-55220226D01*
X162584774Y-55076063D01*
X162415256Y-54962795D01*
X162226898Y-54884774D01*
X162026939Y-54845000D01*
X161823061Y-54845000D01*
X161623102Y-54884774D01*
X161434744Y-54962795D01*
X161265226Y-55076063D01*
X161221289Y-55120000D01*
X157818178Y-55120000D01*
X157693475Y-54933368D01*
X157486632Y-54726525D01*
X157243411Y-54564010D01*
X156973158Y-54452068D01*
X156686260Y-54395000D01*
X156393740Y-54395000D01*
X156106842Y-54452068D01*
X155836589Y-54564010D01*
X155593368Y-54726525D01*
X155386525Y-54933368D01*
X155270000Y-55107760D01*
X155153475Y-54933368D01*
X154946632Y-54726525D01*
X154908054Y-54700748D01*
X155508802Y-54100000D01*
X162103957Y-54100000D01*
X162207363Y-54254759D01*
X162407241Y-54454637D01*
X162642273Y-54611680D01*
X162903426Y-54719853D01*
X163180665Y-54775000D01*
X163463335Y-54775000D01*
X163740574Y-54719853D01*
X164001727Y-54611680D01*
X164236759Y-54454637D01*
X164436637Y-54254759D01*
X164593680Y-54019727D01*
X164701853Y-53758574D01*
X164757000Y-53481335D01*
X164757000Y-53198665D01*
X164720688Y-53016114D01*
X166303802Y-51433000D01*
X168218198Y-51433000D01*
X166874998Y-52776201D01*
G37*
X166874998Y-52776201D02*
X166846000Y-52799999D01*
X166822202Y-52828997D01*
X166822201Y-52828998D01*
X166751026Y-52915724D01*
X166680454Y-53047754D01*
X166678484Y-53054250D01*
X166636998Y-53191014D01*
X166634833Y-53213000D01*
X166622324Y-53340000D01*
X166626001Y-53377332D01*
X166626000Y-60772198D01*
X163645887Y-63752312D01*
X163463335Y-63716000D01*
X163180665Y-63716000D01*
X162903426Y-63771147D01*
X162642273Y-63879320D01*
X162446696Y-64010000D01*
X157936103Y-64010000D01*
X157967932Y-63933158D01*
X158025000Y-63646260D01*
X158025000Y-63353740D01*
X157967932Y-63066842D01*
X157855990Y-62796589D01*
X157693475Y-62553368D01*
X157486632Y-62346525D01*
X157312240Y-62230000D01*
X157486632Y-62113475D01*
X157693475Y-61906632D01*
X157855990Y-61663411D01*
X157967932Y-61393158D01*
X158025000Y-61106260D01*
X158025000Y-61072665D01*
X161887000Y-61072665D01*
X161887000Y-61355335D01*
X161942147Y-61632574D01*
X162050320Y-61893727D01*
X162207363Y-62128759D01*
X162407241Y-62328637D01*
X162642273Y-62485680D01*
X162903426Y-62593853D01*
X163180665Y-62649000D01*
X163463335Y-62649000D01*
X163740574Y-62593853D01*
X164001727Y-62485680D01*
X164236759Y-62328637D01*
X164436637Y-62128759D01*
X164593680Y-61893727D01*
X164701853Y-61632574D01*
X164757000Y-61355335D01*
X164757000Y-61072665D01*
X164701853Y-60795426D01*
X164593680Y-60534273D01*
X164436637Y-60299241D01*
X164236759Y-60099363D01*
X164001727Y-59942320D01*
X163740574Y-59834147D01*
X163463335Y-59779000D01*
X163180665Y-59779000D01*
X162903426Y-59834147D01*
X162642273Y-59942320D01*
X162407241Y-60099363D01*
X162207363Y-60299241D01*
X162050320Y-60534273D01*
X161942147Y-60795426D01*
X161887000Y-61072665D01*
X158025000Y-61072665D01*
X158025000Y-60813740D01*
X157967932Y-60526842D01*
X157855990Y-60256589D01*
X157693475Y-60013368D01*
X157486632Y-59806525D01*
X157312240Y-59690000D01*
X157486632Y-59573475D01*
X157693475Y-59366632D01*
X157855990Y-59123411D01*
X157967932Y-58853158D01*
X158025000Y-58566260D01*
X158025000Y-58273740D01*
X157967932Y-57986842D01*
X157855990Y-57716589D01*
X157693475Y-57473368D01*
X157486632Y-57266525D01*
X157312240Y-57150000D01*
X157486632Y-57033475D01*
X157693475Y-56826632D01*
X157818178Y-56640000D01*
X161221289Y-56640000D01*
X161265226Y-56683937D01*
X161434744Y-56797205D01*
X161623102Y-56875226D01*
X161823061Y-56915000D01*
X161885199Y-56915000D01*
X161923312Y-56953114D01*
X161887000Y-57135665D01*
X161887000Y-57418335D01*
X161942147Y-57695574D01*
X162050320Y-57956727D01*
X162207363Y-58191759D01*
X162407241Y-58391637D01*
X162642273Y-58548680D01*
X162903426Y-58656853D01*
X163180665Y-58712000D01*
X163463335Y-58712000D01*
X163740574Y-58656853D01*
X164001727Y-58548680D01*
X164236759Y-58391637D01*
X164436637Y-58191759D01*
X164593680Y-57956727D01*
X164701853Y-57695574D01*
X164757000Y-57418335D01*
X164757000Y-57135665D01*
X164701853Y-56858426D01*
X164593680Y-56597273D01*
X164436637Y-56362241D01*
X164236759Y-56162363D01*
X164001727Y-56005320D01*
X163740574Y-55897147D01*
X163463335Y-55842000D01*
X163180665Y-55842000D01*
X162998114Y-55878312D01*
X162960000Y-55840199D01*
X162960000Y-55778061D01*
X162920226Y-55578102D01*
X162842205Y-55389744D01*
X162728937Y-55220226D01*
X162584774Y-55076063D01*
X162415256Y-54962795D01*
X162226898Y-54884774D01*
X162026939Y-54845000D01*
X161823061Y-54845000D01*
X161623102Y-54884774D01*
X161434744Y-54962795D01*
X161265226Y-55076063D01*
X161221289Y-55120000D01*
X157818178Y-55120000D01*
X157693475Y-54933368D01*
X157486632Y-54726525D01*
X157243411Y-54564010D01*
X156973158Y-54452068D01*
X156686260Y-54395000D01*
X156393740Y-54395000D01*
X156106842Y-54452068D01*
X155836589Y-54564010D01*
X155593368Y-54726525D01*
X155386525Y-54933368D01*
X155270000Y-55107760D01*
X155153475Y-54933368D01*
X154946632Y-54726525D01*
X154908054Y-54700748D01*
X155508802Y-54100000D01*
X162103957Y-54100000D01*
X162207363Y-54254759D01*
X162407241Y-54454637D01*
X162642273Y-54611680D01*
X162903426Y-54719853D01*
X163180665Y-54775000D01*
X163463335Y-54775000D01*
X163740574Y-54719853D01*
X164001727Y-54611680D01*
X164236759Y-54454637D01*
X164436637Y-54254759D01*
X164593680Y-54019727D01*
X164701853Y-53758574D01*
X164757000Y-53481335D01*
X164757000Y-53198665D01*
X164720688Y-53016114D01*
X166303802Y-51433000D01*
X168218198Y-51433000D01*
X166874998Y-52776201D01*
G36*
X183446589Y-52024010D02*
G01*
X183203368Y-52186525D01*
X182996525Y-52393368D01*
X182834010Y-52636589D01*
X182722068Y-52906842D01*
X182665000Y-53193740D01*
X182665000Y-53486260D01*
X182722068Y-53773158D01*
X182834010Y-54043411D01*
X182996525Y-54286632D01*
X183203368Y-54493475D01*
X183377760Y-54610000D01*
X183203368Y-54726525D01*
X182996525Y-54933368D01*
X182834010Y-55176589D01*
X182722068Y-55446842D01*
X182665000Y-55733740D01*
X182665000Y-56026260D01*
X182722068Y-56313158D01*
X182834010Y-56583411D01*
X182996525Y-56826632D01*
X183203368Y-57033475D01*
X183380753Y-57152000D01*
X178122711Y-57152000D01*
X178078774Y-57108063D01*
X177909256Y-56994795D01*
X177720898Y-56916774D01*
X177520939Y-56877000D01*
X177317061Y-56877000D01*
X177117102Y-56916774D01*
X176928744Y-56994795D01*
X176759226Y-57108063D01*
X176615063Y-57252226D01*
X176501795Y-57421744D01*
X176423774Y-57610102D01*
X176384000Y-57810061D01*
X176384000Y-58013939D01*
X176423774Y-58213898D01*
X176501795Y-58402256D01*
X176615063Y-58571774D01*
X176759226Y-58715937D01*
X176928744Y-58829205D01*
X177117102Y-58907226D01*
X177317061Y-58947000D01*
X177520939Y-58947000D01*
X177720898Y-58907226D01*
X177909256Y-58829205D01*
X178078774Y-58715937D01*
X178122711Y-58672000D01*
X182188198Y-58672000D01*
X179575003Y-61285196D01*
X179545999Y-61308999D01*
X179490871Y-61376174D01*
X179464106Y-61408786D01*
X179462494Y-61407463D01*
X179352180Y-61348498D01*
X179232482Y-61312188D01*
X179108000Y-61299928D01*
X177508000Y-61299928D01*
X177383518Y-61312188D01*
X177263820Y-61348498D01*
X177153506Y-61407463D01*
X177056815Y-61486815D01*
X176977463Y-61583506D01*
X176918498Y-61693820D01*
X176882188Y-61813518D01*
X176869928Y-61938000D01*
X176869928Y-61978000D01*
X175320803Y-61978000D01*
X174880688Y-61537886D01*
X174917000Y-61355335D01*
X174917000Y-61072665D01*
X174861853Y-60795426D01*
X174753680Y-60534273D01*
X174596637Y-60299241D01*
X174396759Y-60099363D01*
X174242000Y-59995957D01*
X174242000Y-58495043D01*
X174396759Y-58391637D01*
X174596637Y-58191759D01*
X174753680Y-57956727D01*
X174861853Y-57695574D01*
X174917000Y-57418335D01*
X174917000Y-57135665D01*
X174861853Y-56858426D01*
X174753680Y-56597273D01*
X174596637Y-56362241D01*
X174396759Y-56162363D01*
X174242000Y-56058957D01*
X174242000Y-54558043D01*
X174396759Y-54454637D01*
X174596637Y-54254759D01*
X174753680Y-54019727D01*
X174861853Y-53758574D01*
X174917000Y-53481335D01*
X174917000Y-53198665D01*
X174861853Y-52921426D01*
X174753680Y-52660273D01*
X174596637Y-52425241D01*
X174396759Y-52225363D01*
X174161727Y-52068320D01*
X173900574Y-51960147D01*
X173804317Y-51941000D01*
X183646994Y-51941000D01*
X183446589Y-52024010D01*
G37*
X183446589Y-52024010D02*
X183203368Y-52186525D01*
X182996525Y-52393368D01*
X182834010Y-52636589D01*
X182722068Y-52906842D01*
X182665000Y-53193740D01*
X182665000Y-53486260D01*
X182722068Y-53773158D01*
X182834010Y-54043411D01*
X182996525Y-54286632D01*
X183203368Y-54493475D01*
X183377760Y-54610000D01*
X183203368Y-54726525D01*
X182996525Y-54933368D01*
X182834010Y-55176589D01*
X182722068Y-55446842D01*
X182665000Y-55733740D01*
X182665000Y-56026260D01*
X182722068Y-56313158D01*
X182834010Y-56583411D01*
X182996525Y-56826632D01*
X183203368Y-57033475D01*
X183380753Y-57152000D01*
X178122711Y-57152000D01*
X178078774Y-57108063D01*
X177909256Y-56994795D01*
X177720898Y-56916774D01*
X177520939Y-56877000D01*
X177317061Y-56877000D01*
X177117102Y-56916774D01*
X176928744Y-56994795D01*
X176759226Y-57108063D01*
X176615063Y-57252226D01*
X176501795Y-57421744D01*
X176423774Y-57610102D01*
X176384000Y-57810061D01*
X176384000Y-58013939D01*
X176423774Y-58213898D01*
X176501795Y-58402256D01*
X176615063Y-58571774D01*
X176759226Y-58715937D01*
X176928744Y-58829205D01*
X177117102Y-58907226D01*
X177317061Y-58947000D01*
X177520939Y-58947000D01*
X177720898Y-58907226D01*
X177909256Y-58829205D01*
X178078774Y-58715937D01*
X178122711Y-58672000D01*
X182188198Y-58672000D01*
X179575003Y-61285196D01*
X179545999Y-61308999D01*
X179490871Y-61376174D01*
X179464106Y-61408786D01*
X179462494Y-61407463D01*
X179352180Y-61348498D01*
X179232482Y-61312188D01*
X179108000Y-61299928D01*
X177508000Y-61299928D01*
X177383518Y-61312188D01*
X177263820Y-61348498D01*
X177153506Y-61407463D01*
X177056815Y-61486815D01*
X176977463Y-61583506D01*
X176918498Y-61693820D01*
X176882188Y-61813518D01*
X176869928Y-61938000D01*
X176869928Y-61978000D01*
X175320803Y-61978000D01*
X174880688Y-61537886D01*
X174917000Y-61355335D01*
X174917000Y-61072665D01*
X174861853Y-60795426D01*
X174753680Y-60534273D01*
X174596637Y-60299241D01*
X174396759Y-60099363D01*
X174242000Y-59995957D01*
X174242000Y-58495043D01*
X174396759Y-58391637D01*
X174596637Y-58191759D01*
X174753680Y-57956727D01*
X174861853Y-57695574D01*
X174917000Y-57418335D01*
X174917000Y-57135665D01*
X174861853Y-56858426D01*
X174753680Y-56597273D01*
X174596637Y-56362241D01*
X174396759Y-56162363D01*
X174242000Y-56058957D01*
X174242000Y-54558043D01*
X174396759Y-54454637D01*
X174596637Y-54254759D01*
X174753680Y-54019727D01*
X174861853Y-53758574D01*
X174917000Y-53481335D01*
X174917000Y-53198665D01*
X174861853Y-52921426D01*
X174753680Y-52660273D01*
X174596637Y-52425241D01*
X174396759Y-52225363D01*
X174161727Y-52068320D01*
X173900574Y-51960147D01*
X173804317Y-51941000D01*
X183646994Y-51941000D01*
X183446589Y-52024010D01*
G36*
X193156525Y-56826632D02*
G01*
X193363368Y-57033475D01*
X193606589Y-57195990D01*
X193643091Y-57211110D01*
X192940201Y-57914000D01*
X190810801Y-57914000D01*
X191403592Y-57321210D01*
X191623740Y-57365000D01*
X191916260Y-57365000D01*
X192203158Y-57307932D01*
X192473411Y-57195990D01*
X192716632Y-57033475D01*
X192923475Y-56826632D01*
X193040000Y-56652240D01*
X193156525Y-56826632D01*
G37*
X193156525Y-56826632D02*
X193363368Y-57033475D01*
X193606589Y-57195990D01*
X193643091Y-57211110D01*
X192940201Y-57914000D01*
X190810801Y-57914000D01*
X191403592Y-57321210D01*
X191623740Y-57365000D01*
X191916260Y-57365000D01*
X192203158Y-57307932D01*
X192473411Y-57195990D01*
X192716632Y-57033475D01*
X192923475Y-56826632D01*
X193040000Y-56652240D01*
X193156525Y-56826632D01*
G36*
X186817000Y-53213000D02*
G01*
X186837000Y-53213000D01*
X186837000Y-53467000D01*
X186817000Y-53467000D01*
X186817000Y-55753000D01*
X186837000Y-55753000D01*
X186837000Y-56007000D01*
X186817000Y-56007000D01*
X186817000Y-56027000D01*
X186563000Y-56027000D01*
X186563000Y-56007000D01*
X186543000Y-56007000D01*
X186543000Y-55753000D01*
X186563000Y-55753000D01*
X186563000Y-53467000D01*
X186543000Y-53467000D01*
X186543000Y-53213000D01*
X186563000Y-53213000D01*
X186563000Y-53193000D01*
X186817000Y-53193000D01*
X186817000Y-53213000D01*
G37*
X186817000Y-53213000D02*
X186837000Y-53213000D01*
X186837000Y-53467000D01*
X186817000Y-53467000D01*
X186817000Y-55753000D01*
X186837000Y-55753000D01*
X186837000Y-56007000D01*
X186817000Y-56007000D01*
X186817000Y-56027000D01*
X186563000Y-56027000D01*
X186563000Y-56007000D01*
X186543000Y-56007000D01*
X186543000Y-55753000D01*
X186563000Y-55753000D01*
X186563000Y-53467000D01*
X186543000Y-53467000D01*
X186543000Y-53213000D01*
X186563000Y-53213000D01*
X186563000Y-53193000D01*
X186817000Y-53193000D01*
X186817000Y-53213000D01*
G36*
X198249000Y-52257802D02*
G01*
X198249000Y-52836994D01*
X198165990Y-52636589D01*
X198003475Y-52393368D01*
X197796632Y-52186525D01*
X197553411Y-52024010D01*
X197283158Y-51912068D01*
X196996260Y-51855000D01*
X196703740Y-51855000D01*
X196416842Y-51912068D01*
X196146589Y-52024010D01*
X195903368Y-52186525D01*
X195696525Y-52393368D01*
X195580000Y-52567760D01*
X195463475Y-52393368D01*
X195256632Y-52186525D01*
X195013411Y-52024010D01*
X194743158Y-51912068D01*
X194456260Y-51855000D01*
X194163740Y-51855000D01*
X193876842Y-51912068D01*
X193606589Y-52024010D01*
X193363368Y-52186525D01*
X193156525Y-52393368D01*
X193040000Y-52567760D01*
X192923475Y-52393368D01*
X192716632Y-52186525D01*
X192473411Y-52024010D01*
X192203158Y-51912068D01*
X191916260Y-51855000D01*
X191623740Y-51855000D01*
X191403592Y-51898790D01*
X190937801Y-51433000D01*
X197424199Y-51433000D01*
X198249000Y-52257802D01*
G37*
X198249000Y-52257802D02*
X198249000Y-52836994D01*
X198165990Y-52636589D01*
X198003475Y-52393368D01*
X197796632Y-52186525D01*
X197553411Y-52024010D01*
X197283158Y-51912068D01*
X196996260Y-51855000D01*
X196703740Y-51855000D01*
X196416842Y-51912068D01*
X196146589Y-52024010D01*
X195903368Y-52186525D01*
X195696525Y-52393368D01*
X195580000Y-52567760D01*
X195463475Y-52393368D01*
X195256632Y-52186525D01*
X195013411Y-52024010D01*
X194743158Y-51912068D01*
X194456260Y-51855000D01*
X194163740Y-51855000D01*
X193876842Y-51912068D01*
X193606589Y-52024010D01*
X193363368Y-52186525D01*
X193156525Y-52393368D01*
X193040000Y-52567760D01*
X192923475Y-52393368D01*
X192716632Y-52186525D01*
X192473411Y-52024010D01*
X192203158Y-51912068D01*
X191916260Y-51855000D01*
X191623740Y-51855000D01*
X191403592Y-51898790D01*
X190937801Y-51433000D01*
X197424199Y-51433000D01*
X198249000Y-52257802D01*
G36*
X163645886Y-51941312D02*
G01*
X163463335Y-51905000D01*
X163180665Y-51905000D01*
X162903426Y-51960147D01*
X162642273Y-52068320D01*
X162407241Y-52225363D01*
X162207363Y-52425241D01*
X162103957Y-52580000D01*
X158429404Y-52580000D01*
X158543898Y-52557226D01*
X158732256Y-52479205D01*
X158901774Y-52365937D01*
X159045937Y-52221774D01*
X159159205Y-52052256D01*
X159237226Y-51863898D01*
X159277000Y-51663939D01*
X159277000Y-51460061D01*
X159237226Y-51260102D01*
X159159205Y-51071744D01*
X159045937Y-50902226D01*
X158901774Y-50758063D01*
X158755012Y-50660000D01*
X164927198Y-50660000D01*
X163645886Y-51941312D01*
G37*
X163645886Y-51941312D02*
X163463335Y-51905000D01*
X163180665Y-51905000D01*
X162903426Y-51960147D01*
X162642273Y-52068320D01*
X162407241Y-52225363D01*
X162207363Y-52425241D01*
X162103957Y-52580000D01*
X158429404Y-52580000D01*
X158543898Y-52557226D01*
X158732256Y-52479205D01*
X158901774Y-52365937D01*
X159045937Y-52221774D01*
X159159205Y-52052256D01*
X159237226Y-51863898D01*
X159277000Y-51663939D01*
X159277000Y-51460061D01*
X159237226Y-51260102D01*
X159159205Y-51071744D01*
X159045937Y-50902226D01*
X158901774Y-50758063D01*
X158755012Y-50660000D01*
X164927198Y-50660000D01*
X163645886Y-51941312D01*
M02*
