M48
; DRILL file {KiCad (5.1.6)-1} date 10/27/20 17:07:07
; FORMAT={-:-/ absolute / inch / decimal}
; #@! TF.CreationDate,2020-10-27T17:07:07+09:00
; #@! TF.GenerationSoftware,Kicad,Pcbnew,(5.1.6)-1
FMAT,2
INCH
T1C0.0157
T2C0.0236
T3C0.0276
T4C0.0315
T5C0.0394
T6C0.1024
T7C0.0945
%
G90
G05
T1
X5.97Y-2.035
X5.975Y-4.275
X6.23Y-2.03
X6.285Y-3.705
X6.33Y-2.06
X6.33Y-2.14
X6.33Y-2.29
X6.365Y-4.27
X6.375Y-2.2
X6.72Y-2.49
X6.725Y-2.175
X6.855Y-3.97
X6.95Y-4.26
X6.985Y-2.28
X7.015Y-2.63
X7.0866Y-2.1654
X7.175Y-2.63
X7.185Y-3.85
X7.19Y-2.875
X7.25Y-2.36
X7.37Y-2.42
X7.49Y-2.76
X7.57Y-2.275
X7.725Y-2.025
T2
X7.27Y-2.72
X7.3291Y-2.72
T3
X6.335Y-3.18
X6.435Y-3.08
X6.435Y-3.28
X6.335Y-3.86
X6.435Y-3.76
X6.435Y-3.96
T4
X6.465Y-4.19
X6.865Y-4.19
X6.43Y-2.255
X6.83Y-2.255
X7.025Y-4.15
X7.1234Y-4.15
X6.7766Y-2.89
X6.875Y-2.89
X6.43Y-2.72
X6.83Y-2.72
X7.005Y-3.42
X7.1034Y-3.42
X6.775Y-3.59
X6.8734Y-3.59
X7.405Y-3.86
X7.405Y-4.26
X6.43Y-2.565
X6.83Y-2.565
X7.105Y-3.71
X7.105Y-4.01
X6.675Y-3.71
X6.675Y-3.81
X6.675Y-3.91
X6.675Y-4.01
X6.975Y-3.71
X6.975Y-3.81
X6.975Y-3.91
X6.975Y-4.01
X7.265Y-3.86
X7.265Y-4.26
X6.43Y-2.1
X6.83Y-2.1
X7.305Y-3.12
X7.305Y-3.2184
X6.675Y-3.01
X6.675Y-3.11
X6.675Y-3.21
X6.675Y-3.31
X6.975Y-3.01
X6.975Y-3.11
X6.975Y-3.21
X6.975Y-3.31
X6.465Y-3.47
X6.865Y-3.47
X7.31Y-3.435
X7.31Y-3.5334
X6.43Y-2.41
X6.83Y-2.41
X7.105Y-3.01
X7.105Y-3.31
X7.02Y-2.47
X7.1578Y-2.47
T5
X6.063Y-2.2
X6.063Y-2.3
X6.063Y-2.4
X6.063Y-2.5
X6.063Y-2.6
X6.063Y-2.7
X6.063Y-2.8
X6.063Y-2.9
X6.063Y-3.0
X6.063Y-3.1
X6.063Y-3.2
X6.063Y-3.3
X6.063Y-3.4
X6.063Y-3.5
X6.063Y-3.6
X6.063Y-3.7
X6.063Y-3.8
X6.063Y-3.9
X6.063Y-4.0
X6.063Y-4.1
X6.163Y-2.2
X6.163Y-2.3
X6.163Y-2.4
X6.163Y-2.5
X6.163Y-2.6
X6.163Y-2.7
X6.163Y-2.8
X6.163Y-2.9
X6.163Y-3.0
X6.163Y-3.1
X6.163Y-3.2
X6.163Y-3.3
X6.163Y-3.4
X6.163Y-3.5
X6.163Y-3.6
X6.163Y-3.7
X6.163Y-3.8
X6.163Y-3.9
X6.163Y-4.0
X6.163Y-4.1
X7.565Y-3.87
X7.565Y-3.97
X7.565Y-4.07
X7.565Y-4.17
X7.25Y-2.1
X7.25Y-2.2
X7.35Y-2.1
X7.35Y-2.2
X7.45Y-2.1
X7.45Y-2.2
X7.55Y-2.1
X7.55Y-2.2
X7.65Y-2.1
X7.65Y-2.2
X7.75Y-2.1
X7.75Y-2.2
T6
X7.5Y-3.53
X7.6772Y-3.53
X7.5Y-2.51
X7.6772Y-2.51
X7.5Y-3.02
X7.6772Y-3.02
T7
X7.7933Y-3.3745
X7.7933Y-3.6855
X7.7933Y-2.3545
X7.7933Y-2.6655
X7.7933Y-2.8645
X7.7933Y-3.1755
T0
M30
